<?xml version="1.0" encoding="utf-8" standalone="no"?>
<!DOCTYPE svg PUBLIC "-//W3C//DTD SVG 1.1//EN"
  "http://www.w3.org/Graphics/SVG/1.1/DTD/svg11.dtd">
<svg xmlns:xlink="http://www.w3.org/1999/xlink" width="576pt" height="324pt" viewBox="0 0 576 324" xmlns="http://www.w3.org/2000/svg" version="1.1">
 <metadata>
  <rdf:RDF xmlns:dc="http://purl.org/dc/elements/1.1/" xmlns:cc="http://creativecommons.org/ns#" xmlns:rdf="http://www.w3.org/1999/02/22-rdf-syntax-ns#">
   <cc:Work>
    <dc:type rdf:resource="http://purl.org/dc/dcmitype/StillImage"/>
    <dc:date>2026-06-27T07:47:05.185121</dc:date>
    <dc:format>image/svg+xml</dc:format>
    <dc:creator>
     <cc:Agent>
      <dc:title>Matplotlib v3.8.2, https://matplotlib.org/</dc:title>
     </cc:Agent>
    </dc:creator>
   </cc:Work>
  </rdf:RDF>
 </metadata>
 <defs>
  <style type="text/css">*{stroke-linejoin: round; stroke-linecap: butt}</style>
 </defs>
 <g id="figure_1">
  <g id="patch_1">
   <path d="M 0 324 
L 576 324 
L 576 0 
L 0 0 
z
" style="fill: #ffffff"/>
  </g>
  <g id="axes_1">
   <g id="patch_2">
    <path d="M 48.63 274.668 
L 563.04 274.668 
L 563.04 12.96 
L 48.63 12.96 
z
" style="fill: #ffffff"/>
   </g>
   <g id="matplotlib.axis_1">
    <g id="xtick_1">
     <g id="line2d_1">
      <defs>
       <path id="mdae9caeb7f" d="M 0 0 
L 0 -3.5 
" style="stroke: #000000; stroke-width: 0.8"/>
      </defs>
      <g>
       <use xlink:href="#mdae9caeb7f" x="84.869462" y="274.668" style="stroke: #000000; stroke-width: 0.8"/>
      </g>
     </g>
     <g id="text_1">
      <!-- 500 -->
      <g transform="translate(73.416962 287.286125) scale(0.12 -0.12)">
       <defs>
        <path id="DejaVuSans-35" d="M 691 4666 
L 3169 4666 
L 3169 4134 
L 1269 4134 
L 1269 2991 
Q 1406 3038 1543 3061 
Q 1681 3084 1819 3084 
Q 2600 3084 3056 2656 
Q 3513 2228 3513 1497 
Q 3513 744 3044 326 
Q 2575 -91 1722 -91 
Q 1428 -91 1123 -41 
Q 819 9 494 109 
L 494 744 
Q 775 591 1075 516 
Q 1375 441 1709 441 
Q 2250 441 2565 725 
Q 2881 1009 2881 1497 
Q 2881 1984 2565 2268 
Q 2250 2553 1709 2553 
Q 1456 2553 1204 2497 
Q 953 2441 691 2322 
L 691 4666 
z
" transform="scale(0.015625)"/>
        <path id="DejaVuSans-30" d="M 2034 4250 
Q 1547 4250 1301 3770 
Q 1056 3291 1056 2328 
Q 1056 1369 1301 889 
Q 1547 409 2034 409 
Q 2525 409 2770 889 
Q 3016 1369 3016 2328 
Q 3016 3291 2770 3770 
Q 2525 4250 2034 4250 
z
M 2034 4750 
Q 2819 4750 3233 4129 
Q 3647 3509 3647 2328 
Q 3647 1150 3233 529 
Q 2819 -91 2034 -91 
Q 1250 -91 836 529 
Q 422 1150 422 2328 
Q 422 3509 836 4129 
Q 1250 4750 2034 4750 
z
" transform="scale(0.015625)"/>
       </defs>
       <use xlink:href="#DejaVuSans-35"/>
       <use xlink:href="#DejaVuSans-30" x="63.623047"/>
       <use xlink:href="#DejaVuSans-30" x="127.246094"/>
      </g>
     </g>
    </g>
    <g id="xtick_2">
     <g id="line2d_2">
      <g>
       <use xlink:href="#mdae9caeb7f" x="149.910264" y="274.668" style="stroke: #000000; stroke-width: 0.8"/>
      </g>
     </g>
     <g id="text_2">
      <!-- 1000 -->
      <g transform="translate(134.640264 287.286125) scale(0.12 -0.12)">
       <defs>
        <path id="DejaVuSans-31" d="M 794 531 
L 1825 531 
L 1825 4091 
L 703 3866 
L 703 4441 
L 1819 4666 
L 2450 4666 
L 2450 531 
L 3481 531 
L 3481 0 
L 794 0 
L 794 531 
z
" transform="scale(0.015625)"/>
       </defs>
       <use xlink:href="#DejaVuSans-31"/>
       <use xlink:href="#DejaVuSans-30" x="63.623047"/>
       <use xlink:href="#DejaVuSans-30" x="127.246094"/>
       <use xlink:href="#DejaVuSans-30" x="190.869141"/>
      </g>
     </g>
    </g>
    <g id="xtick_3">
     <g id="line2d_3">
      <g>
       <use xlink:href="#mdae9caeb7f" x="214.951067" y="274.668" style="stroke: #000000; stroke-width: 0.8"/>
      </g>
     </g>
     <g id="text_3">
      <!-- 1500 -->
      <g transform="translate(199.681067 287.286125) scale(0.12 -0.12)">
       <use xlink:href="#DejaVuSans-31"/>
       <use xlink:href="#DejaVuSans-35" x="63.623047"/>
       <use xlink:href="#DejaVuSans-30" x="127.246094"/>
       <use xlink:href="#DejaVuSans-30" x="190.869141"/>
      </g>
     </g>
    </g>
    <g id="xtick_4">
     <g id="line2d_4">
      <g>
       <use xlink:href="#mdae9caeb7f" x="279.991869" y="274.668" style="stroke: #000000; stroke-width: 0.8"/>
      </g>
     </g>
     <g id="text_4">
      <!-- 2000 -->
      <g transform="translate(264.721869 287.286125) scale(0.12 -0.12)">
       <defs>
        <path id="DejaVuSans-32" d="M 1228 531 
L 3431 531 
L 3431 0 
L 469 0 
L 469 531 
Q 828 903 1448 1529 
Q 2069 2156 2228 2338 
Q 2531 2678 2651 2914 
Q 2772 3150 2772 3378 
Q 2772 3750 2511 3984 
Q 2250 4219 1831 4219 
Q 1534 4219 1204 4116 
Q 875 4013 500 3803 
L 500 4441 
Q 881 4594 1212 4672 
Q 1544 4750 1819 4750 
Q 2544 4750 2975 4387 
Q 3406 4025 3406 3419 
Q 3406 3131 3298 2873 
Q 3191 2616 2906 2266 
Q 2828 2175 2409 1742 
Q 1991 1309 1228 531 
z
" transform="scale(0.015625)"/>
       </defs>
       <use xlink:href="#DejaVuSans-32"/>
       <use xlink:href="#DejaVuSans-30" x="63.623047"/>
       <use xlink:href="#DejaVuSans-30" x="127.246094"/>
       <use xlink:href="#DejaVuSans-30" x="190.869141"/>
      </g>
     </g>
    </g>
    <g id="xtick_5">
     <g id="line2d_5">
      <g>
       <use xlink:href="#mdae9caeb7f" x="345.032671" y="274.668" style="stroke: #000000; stroke-width: 0.8"/>
      </g>
     </g>
     <g id="text_5">
      <!-- 2500 -->
      <g transform="translate(329.762671 287.286125) scale(0.12 -0.12)">
       <use xlink:href="#DejaVuSans-32"/>
       <use xlink:href="#DejaVuSans-35" x="63.623047"/>
       <use xlink:href="#DejaVuSans-30" x="127.246094"/>
       <use xlink:href="#DejaVuSans-30" x="190.869141"/>
      </g>
     </g>
    </g>
    <g id="xtick_6">
     <g id="line2d_6">
      <g>
       <use xlink:href="#mdae9caeb7f" x="410.073474" y="274.668" style="stroke: #000000; stroke-width: 0.8"/>
      </g>
     </g>
     <g id="text_6">
      <!-- 3000 -->
      <g transform="translate(394.803474 287.286125) scale(0.12 -0.12)">
       <defs>
        <path id="DejaVuSans-33" d="M 2597 2516 
Q 3050 2419 3304 2112 
Q 3559 1806 3559 1356 
Q 3559 666 3084 287 
Q 2609 -91 1734 -91 
Q 1441 -91 1130 -33 
Q 819 25 488 141 
L 488 750 
Q 750 597 1062 519 
Q 1375 441 1716 441 
Q 2309 441 2620 675 
Q 2931 909 2931 1356 
Q 2931 1769 2642 2001 
Q 2353 2234 1838 2234 
L 1294 2234 
L 1294 2753 
L 1863 2753 
Q 2328 2753 2575 2939 
Q 2822 3125 2822 3475 
Q 2822 3834 2567 4026 
Q 2313 4219 1838 4219 
Q 1578 4219 1281 4162 
Q 984 4106 628 3988 
L 628 4550 
Q 988 4650 1302 4700 
Q 1616 4750 1894 4750 
Q 2613 4750 3031 4423 
Q 3450 4097 3450 3541 
Q 3450 3153 3228 2886 
Q 3006 2619 2597 2516 
z
" transform="scale(0.015625)"/>
       </defs>
       <use xlink:href="#DejaVuSans-33"/>
       <use xlink:href="#DejaVuSans-30" x="63.623047"/>
       <use xlink:href="#DejaVuSans-30" x="127.246094"/>
       <use xlink:href="#DejaVuSans-30" x="190.869141"/>
      </g>
     </g>
    </g>
    <g id="xtick_7">
     <g id="line2d_7">
      <g>
       <use xlink:href="#mdae9caeb7f" x="475.114276" y="274.668" style="stroke: #000000; stroke-width: 0.8"/>
      </g>
     </g>
     <g id="text_7">
      <!-- 3500 -->
      <g transform="translate(459.844276 287.286125) scale(0.12 -0.12)">
       <use xlink:href="#DejaVuSans-33"/>
       <use xlink:href="#DejaVuSans-35" x="63.623047"/>
       <use xlink:href="#DejaVuSans-30" x="127.246094"/>
       <use xlink:href="#DejaVuSans-30" x="190.869141"/>
      </g>
     </g>
    </g>
    <g id="xtick_8">
     <g id="line2d_8">
      <g>
       <use xlink:href="#mdae9caeb7f" x="540.155078" y="274.668" style="stroke: #000000; stroke-width: 0.8"/>
      </g>
     </g>
     <g id="text_8">
      <!-- 4000 -->
      <g transform="translate(524.885078 287.286125) scale(0.12 -0.12)">
       <defs>
        <path id="DejaVuSans-34" d="M 2419 4116 
L 825 1625 
L 2419 1625 
L 2419 4116 
z
M 2253 4666 
L 3047 4666 
L 3047 1625 
L 3713 1625 
L 3713 1100 
L 3047 1100 
L 3047 0 
L 2419 0 
L 2419 1100 
L 313 1100 
L 313 1709 
L 2253 4666 
z
" transform="scale(0.015625)"/>
       </defs>
       <use xlink:href="#DejaVuSans-34"/>
       <use xlink:href="#DejaVuSans-30" x="63.623047"/>
       <use xlink:href="#DejaVuSans-30" x="127.246094"/>
       <use xlink:href="#DejaVuSans-30" x="190.869141"/>
      </g>
     </g>
    </g>
    <g id="text_9">
     <!-- Wavenumber (cm$^{-1}$) -->
     <g transform="translate(243.375 303.766125) scale(0.12 -0.12)">
      <defs>
       <path id="DejaVuSans-57" d="M 213 4666 
L 850 4666 
L 1831 722 
L 2809 4666 
L 3519 4666 
L 4500 722 
L 5478 4666 
L 6119 4666 
L 4947 0 
L 4153 0 
L 3169 4050 
L 2175 0 
L 1381 0 
L 213 4666 
z
" transform="scale(0.015625)"/>
       <path id="DejaVuSans-61" d="M 2194 1759 
Q 1497 1759 1228 1600 
Q 959 1441 959 1056 
Q 959 750 1161 570 
Q 1363 391 1709 391 
Q 2188 391 2477 730 
Q 2766 1069 2766 1631 
L 2766 1759 
L 2194 1759 
z
M 3341 1997 
L 3341 0 
L 2766 0 
L 2766 531 
Q 2569 213 2275 61 
Q 1981 -91 1556 -91 
Q 1019 -91 701 211 
Q 384 513 384 1019 
Q 384 1609 779 1909 
Q 1175 2209 1959 2209 
L 2766 2209 
L 2766 2266 
Q 2766 2663 2505 2880 
Q 2244 3097 1772 3097 
Q 1472 3097 1187 3025 
Q 903 2953 641 2809 
L 641 3341 
Q 956 3463 1253 3523 
Q 1550 3584 1831 3584 
Q 2591 3584 2966 3190 
Q 3341 2797 3341 1997 
z
" transform="scale(0.015625)"/>
       <path id="DejaVuSans-76" d="M 191 3500 
L 800 3500 
L 1894 563 
L 2988 3500 
L 3597 3500 
L 2284 0 
L 1503 0 
L 191 3500 
z
" transform="scale(0.015625)"/>
       <path id="DejaVuSans-65" d="M 3597 1894 
L 3597 1613 
L 953 1613 
Q 991 1019 1311 708 
Q 1631 397 2203 397 
Q 2534 397 2845 478 
Q 3156 559 3463 722 
L 3463 178 
Q 3153 47 2828 -22 
Q 2503 -91 2169 -91 
Q 1331 -91 842 396 
Q 353 884 353 1716 
Q 353 2575 817 3079 
Q 1281 3584 2069 3584 
Q 2775 3584 3186 3129 
Q 3597 2675 3597 1894 
z
M 3022 2063 
Q 3016 2534 2758 2815 
Q 2500 3097 2075 3097 
Q 1594 3097 1305 2825 
Q 1016 2553 972 2059 
L 3022 2063 
z
" transform="scale(0.015625)"/>
       <path id="DejaVuSans-6e" d="M 3513 2113 
L 3513 0 
L 2938 0 
L 2938 2094 
Q 2938 2591 2744 2837 
Q 2550 3084 2163 3084 
Q 1697 3084 1428 2787 
Q 1159 2491 1159 1978 
L 1159 0 
L 581 0 
L 581 3500 
L 1159 3500 
L 1159 2956 
Q 1366 3272 1645 3428 
Q 1925 3584 2291 3584 
Q 2894 3584 3203 3211 
Q 3513 2838 3513 2113 
z
" transform="scale(0.015625)"/>
       <path id="DejaVuSans-75" d="M 544 1381 
L 544 3500 
L 1119 3500 
L 1119 1403 
Q 1119 906 1312 657 
Q 1506 409 1894 409 
Q 2359 409 2629 706 
Q 2900 1003 2900 1516 
L 2900 3500 
L 3475 3500 
L 3475 0 
L 2900 0 
L 2900 538 
Q 2691 219 2414 64 
Q 2138 -91 1772 -91 
Q 1169 -91 856 284 
Q 544 659 544 1381 
z
M 1991 3584 
L 1991 3584 
z
" transform="scale(0.015625)"/>
       <path id="DejaVuSans-6d" d="M 3328 2828 
Q 3544 3216 3844 3400 
Q 4144 3584 4550 3584 
Q 5097 3584 5394 3201 
Q 5691 2819 5691 2113 
L 5691 0 
L 5113 0 
L 5113 2094 
Q 5113 2597 4934 2840 
Q 4756 3084 4391 3084 
Q 3944 3084 3684 2787 
Q 3425 2491 3425 1978 
L 3425 0 
L 2847 0 
L 2847 2094 
Q 2847 2600 2669 2842 
Q 2491 3084 2119 3084 
Q 1678 3084 1418 2786 
Q 1159 2488 1159 1978 
L 1159 0 
L 581 0 
L 581 3500 
L 1159 3500 
L 1159 2956 
Q 1356 3278 1631 3431 
Q 1906 3584 2284 3584 
Q 2666 3584 2933 3390 
Q 3200 3197 3328 2828 
z
" transform="scale(0.015625)"/>
       <path id="DejaVuSans-62" d="M 3116 1747 
Q 3116 2381 2855 2742 
Q 2594 3103 2138 3103 
Q 1681 3103 1420 2742 
Q 1159 2381 1159 1747 
Q 1159 1113 1420 752 
Q 1681 391 2138 391 
Q 2594 391 2855 752 
Q 3116 1113 3116 1747 
z
M 1159 2969 
Q 1341 3281 1617 3432 
Q 1894 3584 2278 3584 
Q 2916 3584 3314 3078 
Q 3713 2572 3713 1747 
Q 3713 922 3314 415 
Q 2916 -91 2278 -91 
Q 1894 -91 1617 61 
Q 1341 213 1159 525 
L 1159 0 
L 581 0 
L 581 4863 
L 1159 4863 
L 1159 2969 
z
" transform="scale(0.015625)"/>
       <path id="DejaVuSans-72" d="M 2631 2963 
Q 2534 3019 2420 3045 
Q 2306 3072 2169 3072 
Q 1681 3072 1420 2755 
Q 1159 2438 1159 1844 
L 1159 0 
L 581 0 
L 581 3500 
L 1159 3500 
L 1159 2956 
Q 1341 3275 1631 3429 
Q 1922 3584 2338 3584 
Q 2397 3584 2469 3576 
Q 2541 3569 2628 3553 
L 2631 2963 
z
" transform="scale(0.015625)"/>
       <path id="DejaVuSans-20" transform="scale(0.015625)"/>
       <path id="DejaVuSans-28" d="M 1984 4856 
Q 1566 4138 1362 3434 
Q 1159 2731 1159 2009 
Q 1159 1288 1364 580 
Q 1569 -128 1984 -844 
L 1484 -844 
Q 1016 -109 783 600 
Q 550 1309 550 2009 
Q 550 2706 781 3412 
Q 1013 4119 1484 4856 
L 1984 4856 
z
" transform="scale(0.015625)"/>
       <path id="DejaVuSans-63" d="M 3122 3366 
L 3122 2828 
Q 2878 2963 2633 3030 
Q 2388 3097 2138 3097 
Q 1578 3097 1268 2742 
Q 959 2388 959 1747 
Q 959 1106 1268 751 
Q 1578 397 2138 397 
Q 2388 397 2633 464 
Q 2878 531 3122 666 
L 3122 134 
Q 2881 22 2623 -34 
Q 2366 -91 2075 -91 
Q 1284 -91 818 406 
Q 353 903 353 1747 
Q 353 2603 823 3093 
Q 1294 3584 2113 3584 
Q 2378 3584 2631 3529 
Q 2884 3475 3122 3366 
z
" transform="scale(0.015625)"/>
       <path id="DejaVuSans-2212" d="M 678 2272 
L 4684 2272 
L 4684 1741 
L 678 1741 
L 678 2272 
z
" transform="scale(0.015625)"/>
       <path id="DejaVuSans-29" d="M 513 4856 
L 1013 4856 
Q 1481 4119 1714 3412 
Q 1947 2706 1947 2009 
Q 1947 1309 1714 600 
Q 1481 -109 1013 -844 
L 513 -844 
Q 928 -128 1133 580 
Q 1338 1288 1338 2009 
Q 1338 2731 1133 3434 
Q 928 4138 513 4856 
z
" transform="scale(0.015625)"/>
      </defs>
      <use xlink:href="#DejaVuSans-57" transform="translate(0 0.684375)"/>
      <use xlink:href="#DejaVuSans-61" transform="translate(98.876953 0.684375)"/>
      <use xlink:href="#DejaVuSans-76" transform="translate(160.15625 0.684375)"/>
      <use xlink:href="#DejaVuSans-65" transform="translate(219.335938 0.684375)"/>
      <use xlink:href="#DejaVuSans-6e" transform="translate(280.859375 0.684375)"/>
      <use xlink:href="#DejaVuSans-75" transform="translate(344.238281 0.684375)"/>
      <use xlink:href="#DejaVuSans-6d" transform="translate(407.617188 0.684375)"/>
      <use xlink:href="#DejaVuSans-62" transform="translate(505.029297 0.684375)"/>
      <use xlink:href="#DejaVuSans-65" transform="translate(568.505859 0.684375)"/>
      <use xlink:href="#DejaVuSans-72" transform="translate(630.029297 0.684375)"/>
      <use xlink:href="#DejaVuSans-20" transform="translate(671.142578 0.684375)"/>
      <use xlink:href="#DejaVuSans-28" transform="translate(702.929688 0.684375)"/>
      <use xlink:href="#DejaVuSans-63" transform="translate(741.943359 0.684375)"/>
      <use xlink:href="#DejaVuSans-6d" transform="translate(796.923828 0.684375)"/>
      <use xlink:href="#DejaVuSans-2212" transform="translate(895.292969 38.965625) scale(0.7)"/>
      <use xlink:href="#DejaVuSans-31" transform="translate(953.945312 38.965625) scale(0.7)"/>
      <use xlink:href="#DejaVuSans-29" transform="translate(1001.21582 0.684375)"/>
     </g>
    </g>
   </g>
   <g id="matplotlib.axis_2">
    <g id="ytick_1">
     <g id="line2d_9">
      <defs>
       <path id="m152cc0660e" d="M 0 0 
L 3.5 0 
" style="stroke: #000000; stroke-width: 0.8"/>
      </defs>
      <g>
       <use xlink:href="#m152cc0660e" x="48.63" y="264.000298" style="stroke: #000000; stroke-width: 0.8"/>
      </g>
     </g>
     <g id="text_10">
      <!-- 30 -->
      <g transform="translate(29.86 268.55936) scale(0.12 -0.12)">
       <use xlink:href="#DejaVuSans-33"/>
       <use xlink:href="#DejaVuSans-30" x="63.623047"/>
      </g>
     </g>
    </g>
    <g id="ytick_2">
     <g id="line2d_10">
      <g>
       <use xlink:href="#m152cc0660e" x="48.63" y="210.506277" style="stroke: #000000; stroke-width: 0.8"/>
      </g>
     </g>
     <g id="text_11">
      <!-- 40 -->
      <g transform="translate(29.86 215.065339) scale(0.12 -0.12)">
       <use xlink:href="#DejaVuSans-34"/>
       <use xlink:href="#DejaVuSans-30" x="63.623047"/>
      </g>
     </g>
    </g>
    <g id="ytick_3">
     <g id="line2d_11">
      <g>
       <use xlink:href="#m152cc0660e" x="48.63" y="157.012256" style="stroke: #000000; stroke-width: 0.8"/>
      </g>
     </g>
     <g id="text_12">
      <!-- 50 -->
      <g transform="translate(29.86 161.571319) scale(0.12 -0.12)">
       <use xlink:href="#DejaVuSans-35"/>
       <use xlink:href="#DejaVuSans-30" x="63.623047"/>
      </g>
     </g>
    </g>
    <g id="ytick_4">
     <g id="line2d_12">
      <g>
       <use xlink:href="#m152cc0660e" x="48.63" y="103.518235" style="stroke: #000000; stroke-width: 0.8"/>
      </g>
     </g>
     <g id="text_13">
      <!-- 60 -->
      <g transform="translate(29.86 108.077298) scale(0.12 -0.12)">
       <defs>
        <path id="DejaVuSans-36" d="M 2113 2584 
Q 1688 2584 1439 2293 
Q 1191 2003 1191 1497 
Q 1191 994 1439 701 
Q 1688 409 2113 409 
Q 2538 409 2786 701 
Q 3034 994 3034 1497 
Q 3034 2003 2786 2293 
Q 2538 2584 2113 2584 
z
M 3366 4563 
L 3366 3988 
Q 3128 4100 2886 4159 
Q 2644 4219 2406 4219 
Q 1781 4219 1451 3797 
Q 1122 3375 1075 2522 
Q 1259 2794 1537 2939 
Q 1816 3084 2150 3084 
Q 2853 3084 3261 2657 
Q 3669 2231 3669 1497 
Q 3669 778 3244 343 
Q 2819 -91 2113 -91 
Q 1303 -91 875 529 
Q 447 1150 447 2328 
Q 447 3434 972 4092 
Q 1497 4750 2381 4750 
Q 2619 4750 2861 4703 
Q 3103 4656 3366 4563 
z
" transform="scale(0.015625)"/>
       </defs>
       <use xlink:href="#DejaVuSans-36"/>
       <use xlink:href="#DejaVuSans-30" x="63.623047"/>
      </g>
     </g>
    </g>
    <g id="ytick_5">
     <g id="line2d_13">
      <g>
       <use xlink:href="#m152cc0660e" x="48.63" y="50.024215" style="stroke: #000000; stroke-width: 0.8"/>
      </g>
     </g>
     <g id="text_14">
      <!-- 70 -->
      <g transform="translate(29.86 54.583277) scale(0.12 -0.12)">
       <defs>
        <path id="DejaVuSans-37" d="M 525 4666 
L 3525 4666 
L 3525 4397 
L 1831 0 
L 1172 0 
L 2766 4134 
L 525 4134 
L 525 4666 
z
" transform="scale(0.015625)"/>
       </defs>
       <use xlink:href="#DejaVuSans-37"/>
       <use xlink:href="#DejaVuSans-30" x="63.623047"/>
      </g>
     </g>
    </g>
    <g id="text_15">
     <!-- Transmittance (%) -->
     <g transform="translate(23.364375 198.640875) rotate(-90) scale(0.12 -0.12)">
      <defs>
       <path id="DejaVuSans-54" d="M -19 4666 
L 3928 4666 
L 3928 4134 
L 2272 4134 
L 2272 0 
L 1638 0 
L 1638 4134 
L -19 4134 
L -19 4666 
z
" transform="scale(0.015625)"/>
       <path id="DejaVuSans-73" d="M 2834 3397 
L 2834 2853 
Q 2591 2978 2328 3040 
Q 2066 3103 1784 3103 
Q 1356 3103 1142 2972 
Q 928 2841 928 2578 
Q 928 2378 1081 2264 
Q 1234 2150 1697 2047 
L 1894 2003 
Q 2506 1872 2764 1633 
Q 3022 1394 3022 966 
Q 3022 478 2636 193 
Q 2250 -91 1575 -91 
Q 1294 -91 989 -36 
Q 684 19 347 128 
L 347 722 
Q 666 556 975 473 
Q 1284 391 1588 391 
Q 1994 391 2212 530 
Q 2431 669 2431 922 
Q 2431 1156 2273 1281 
Q 2116 1406 1581 1522 
L 1381 1569 
Q 847 1681 609 1914 
Q 372 2147 372 2553 
Q 372 3047 722 3315 
Q 1072 3584 1716 3584 
Q 2034 3584 2315 3537 
Q 2597 3491 2834 3397 
z
" transform="scale(0.015625)"/>
       <path id="DejaVuSans-69" d="M 603 3500 
L 1178 3500 
L 1178 0 
L 603 0 
L 603 3500 
z
M 603 4863 
L 1178 4863 
L 1178 4134 
L 603 4134 
L 603 4863 
z
" transform="scale(0.015625)"/>
       <path id="DejaVuSans-74" d="M 1172 4494 
L 1172 3500 
L 2356 3500 
L 2356 3053 
L 1172 3053 
L 1172 1153 
Q 1172 725 1289 603 
Q 1406 481 1766 481 
L 2356 481 
L 2356 0 
L 1766 0 
Q 1100 0 847 248 
Q 594 497 594 1153 
L 594 3053 
L 172 3053 
L 172 3500 
L 594 3500 
L 594 4494 
L 1172 4494 
z
" transform="scale(0.015625)"/>
       <path id="DejaVuSans-25" d="M 4653 2053 
Q 4381 2053 4226 1822 
Q 4072 1591 4072 1178 
Q 4072 772 4226 539 
Q 4381 306 4653 306 
Q 4919 306 5073 539 
Q 5228 772 5228 1178 
Q 5228 1588 5073 1820 
Q 4919 2053 4653 2053 
z
M 4653 2450 
Q 5147 2450 5437 2106 
Q 5728 1763 5728 1178 
Q 5728 594 5436 251 
Q 5144 -91 4653 -91 
Q 4153 -91 3862 251 
Q 3572 594 3572 1178 
Q 3572 1766 3864 2108 
Q 4156 2450 4653 2450 
z
M 1428 4353 
Q 1159 4353 1004 4120 
Q 850 3888 850 3481 
Q 850 3069 1003 2837 
Q 1156 2606 1428 2606 
Q 1700 2606 1854 2837 
Q 2009 3069 2009 3481 
Q 2009 3884 1853 4118 
Q 1697 4353 1428 4353 
z
M 4250 4750 
L 4750 4750 
L 1831 -91 
L 1331 -91 
L 4250 4750 
z
M 1428 4750 
Q 1922 4750 2215 4408 
Q 2509 4066 2509 3481 
Q 2509 2891 2217 2550 
Q 1925 2209 1428 2209 
Q 931 2209 642 2551 
Q 353 2894 353 3481 
Q 353 4063 643 4406 
Q 934 4750 1428 4750 
z
" transform="scale(0.015625)"/>
      </defs>
      <use xlink:href="#DejaVuSans-54"/>
      <use xlink:href="#DejaVuSans-72" x="46.333984"/>
      <use xlink:href="#DejaVuSans-61" x="87.447266"/>
      <use xlink:href="#DejaVuSans-6e" x="148.726562"/>
      <use xlink:href="#DejaVuSans-73" x="212.105469"/>
      <use xlink:href="#DejaVuSans-6d" x="264.205078"/>
      <use xlink:href="#DejaVuSans-69" x="361.617188"/>
      <use xlink:href="#DejaVuSans-74" x="389.400391"/>
      <use xlink:href="#DejaVuSans-74" x="428.609375"/>
      <use xlink:href="#DejaVuSans-61" x="467.818359"/>
      <use xlink:href="#DejaVuSans-6e" x="529.097656"/>
      <use xlink:href="#DejaVuSans-63" x="592.476562"/>
      <use xlink:href="#DejaVuSans-65" x="647.457031"/>
      <use xlink:href="#DejaVuSans-20" x="708.980469"/>
      <use xlink:href="#DejaVuSans-28" x="740.767578"/>
      <use xlink:href="#DejaVuSans-25" x="779.78125"/>
      <use xlink:href="#DejaVuSans-29" x="874.800781"/>
     </g>
    </g>
   </g>
   <g id="line2d_14">
    <path d="M 72.012273 40.16193 
L 73.015804 38.714482 
L 74.019335 39.382654 
L 75.022866 38.723039 
L 76.026397 39.836485 
L 77.029928 37.835775 
L 78.033459 36.222433 
L 79.03699 37.687709 
L 80.040521 40.197828 
L 81.044052 41.20199 
L 82.047583 44.157522 
L 83.051114 45.490365 
L 84.054645 42.199771 
L 85.058176 41.049564 
L 86.061707 40.77487 
L 88.068769 44.707376 
L 89.0723 45.188007 
L 90.075831 46.493408 
L 91.079362 45.439982 
L 92.082893 44.599935 
L 93.086424 44.826235 
L 94.089955 44.793514 
L 95.093486 45.434725 
L 97.100548 45.942801 
L 98.104079 45.772171 
L 99.10761 45.72974 
L 100.111141 45.074946 
L 101.114672 44.723669 
L 103.121734 43.523455 
L 104.125265 41.85487 
L 105.128796 40.621728 
L 106.132327 39.803223 
L 107.135858 39.410594 
L 108.139389 40.767413 
L 109.14292 40.929473 
L 110.146451 41.503122 
L 111.149982 43.514943 
L 114.160576 45.442013 
L 116.167638 45.817174 
L 117.171169 45.676763 
L 119.178231 44.426522 
L 120.181762 44.269392 
L 122.188824 44.47687 
L 123.192355 44.999955 
L 124.195886 45.259821 
L 125.199417 45.21262 
L 126.202948 44.640207 
L 127.206479 44.626686 
L 129.213541 43.731369 
L 131.220603 43.381081 
L 132.224134 43.798331 
L 133.227665 42.630528 
L 134.231196 42.083033 
L 135.234727 42.418542 
L 136.238258 42.354645 
L 137.241789 42.76873 
L 138.24532 43.032626 
L 139.248851 43.489768 
L 141.255913 43.910524 
L 142.259444 44.953932 
L 143.262975 45.806211 
L 144.266506 46.473139 
L 145.270037 47.315226 
L 146.273568 47.836225 
L 147.277099 48.492315 
L 148.28063 49.317489 
L 149.284161 49.649227 
L 150.287692 49.353202 
L 152.294754 49.766438 
L 153.298285 49.549831 
L 154.301816 49.006418 
L 155.305347 48.718349 
L 156.308878 48.69175 
L 159.319471 47.840696 
L 160.323002 47.74114 
L 161.326533 48.007665 
L 162.330064 48.044246 
L 163.333595 48.666622 
L 164.337126 48.801008 
L 165.340657 48.51729 
L 166.344188 48.5315 
L 167.347719 48.656897 
L 168.35125 48.500095 
L 169.354782 48.163003 
L 172.365375 48.353502 
L 173.368906 48.623793 
L 174.372437 48.548357 
L 175.375968 48.264914 
L 176.379499 48.186271 
L 177.38303 48.543573 
L 178.386561 48.496955 
L 179.390092 48.687565 
L 180.393623 49.024106 
L 183.404216 49.193565 
L 184.407747 49.424395 
L 185.411278 49.224661 
L 186.414809 49.216105 
L 188.421871 49.692496 
L 189.425402 49.929578 
L 190.428933 50.013619 
L 192.435995 49.9851 
L 193.439526 50.185251 
L 194.443057 50.248788 
L 196.450119 50.202541 
L 197.45365 50.284089 
L 200.464243 50.229204 
L 203.474836 50.772507 
L 210.499553 51.274964 
L 211.503084 51.588291 
L 218.527801 52.645682 
L 220.534863 53.640553 
L 222.541925 54.698595 
L 223.545457 54.714223 
L 225.552519 55.079833 
L 226.55605 55.469253 
L 227.559581 56.046245 
L 230.570174 57.386811 
L 231.573705 57.923908 
L 238.598422 63.031871 
L 239.601953 63.918365 
L 240.605484 65.026415 
L 244.619608 68.60932 
L 246.62667 71.055683 
L 247.630201 72.258826 
L 248.633732 73.273941 
L 249.637263 74.805671 
L 251.644325 78.296004 
L 254.654918 85.038663 
L 255.658449 87.909529 
L 256.66198 92.149479 
L 257.665511 95.73046 
L 258.669042 98.469459 
L 260.676104 104.401639 
L 265.693759 118.189691 
L 267.700821 124.706013 
L 269.707883 132.638704 
L 270.711414 136.998788 
L 272.718476 148.764887 
L 275.729069 167.734977 
L 276.7326 170.638187 
L 277.736132 168.331231 
L 278.739663 168.065512 
L 279.743194 165.391925 
L 280.746725 168.902934 
L 281.750256 171.997502 
L 282.753787 173.277502 
L 283.757318 173.617619 
L 284.760849 170.559631 
L 285.76438 164.538692 
L 286.767911 156.569802 
L 287.771442 150.596331 
L 289.778504 142.718557 
L 290.782035 139.362029 
L 291.785566 138.009188 
L 292.789097 137.697402 
L 294.796159 135.825881 
L 295.79969 137.632225 
L 296.803221 143.728764 
L 299.813814 170.147736 
L 300.817345 174.720555 
L 301.820876 171.219476 
L 302.824407 167.16584 
L 303.827938 164.612845 
L 305.835 157.212138 
L 306.838531 154.160479 
L 308.845593 148.754352 
L 309.849124 145.545845 
L 312.859717 134.861928 
L 313.863248 132.233885 
L 314.866779 128.190589 
L 315.87031 122.684556 
L 317.877372 108.971787 
L 318.880903 103.719924 
L 319.884434 100.663284 
L 320.887965 98.49279 
L 321.891496 95.629927 
L 322.895027 93.276103 
L 323.898558 92.989917 
L 324.902089 91.343915 
L 325.90562 93.733302 
L 326.909151 97.959789 
L 327.912682 98.273573 
L 328.916213 94.269536 
L 329.919745 91.019131 
L 330.923275 89.822757 
L 331.926806 92.651143 
L 332.930338 94.715864 
L 334.9374 97.457086 
L 335.940931 98.523434 
L 336.944462 99.146453 
L 337.947993 99.37127 
L 339.955055 98.732437 
L 340.958586 98.68445 
L 342.965648 99.232927 
L 343.969179 99.325784 
L 345.976241 99.170487 
L 346.979772 99.176807 
L 348.986834 98.737175 
L 349.990365 98.295885 
L 350.993896 97.704855 
L 351.997427 96.942973 
L 353.000958 95.855757 
L 354.004489 94.565851 
L 356.011551 91.280938 
L 357.015082 89.243543 
L 358.018613 86.6633 
L 359.022144 83.559228 
L 361.029206 76.261604 
L 363.036268 68.20891 
L 365.04333 59.927884 
L 366.046861 56.929185 
L 367.050392 55.790078 
L 369.057454 56.00195 
L 370.060985 55.888682 
L 373.071578 56.049244 
L 374.075109 56.192189 
L 375.07864 56.498179 
L 377.085702 56.524824 
L 380.096295 57.22448 
L 381.099826 57.311992 
L 385.11395 58.681835 
L 386.117481 58.776699 
L 389.128075 58.044331 
L 390.131606 57.994779 
L 395.149261 59.525905 
L 398.159854 59.979332 
L 400.166916 60.945327 
L 401.170447 61.192231 
L 404.18104 61.609584 
L 406.188102 61.959576 
L 409.198695 62.240275 
L 411.205757 62.810002 
L 413.212819 63.069835 
L 414.21635 63.306543 
L 416.223412 63.475275 
L 418.230474 64.031419 
L 419.234005 64.436189 
L 421.241067 64.588818 
L 422.244598 64.955667 
L 423.248129 65.202218 
L 424.25166 65.194905 
L 425.255191 65.331698 
L 426.258722 65.702661 
L 427.262253 65.893011 
L 431.276377 67.153071 
L 432.279908 67.001444 
L 434.28697 67.220866 
L 435.290501 66.988984 
L 436.294032 66.900148 
L 437.297563 67.126838 
L 438.301094 67.153549 
L 439.304626 66.866445 
L 440.308156 66.344616 
L 441.311688 66.164288 
L 443.31875 66.030141 
L 445.325812 65.209256 
L 446.329343 65.245717 
L 447.332874 64.858556 
L 448.336405 64.02452 
L 449.339936 63.655752 
L 450.343467 63.784635 
L 451.346998 63.764865 
L 454.357591 63.038716 
L 455.361122 62.723109 
L 456.364653 62.535496 
L 457.368184 62.462507 
L 458.371715 62.230477 
L 460.378777 62.405994 
L 461.382308 62.270977 
L 462.385839 62.297792 
L 464.392901 62.577234 
L 465.396432 62.312237 
L 466.399963 61.694814 
L 467.403494 61.77318 
L 468.407025 62.31141 
L 469.410556 62.675593 
L 470.414087 62.342798 
L 471.417618 62.16806 
L 472.421149 62.322417 
L 474.428211 62.280914 
L 476.435273 62.565178 
L 477.438804 62.917896 
L 478.442335 63.008346 
L 479.445866 62.726949 
L 480.449397 62.564037 
L 481.452928 62.885661 
L 482.456459 63.47004 
L 483.45999 63.89655 
L 484.463521 64.156278 
L 485.467052 64.288925 
L 487.474114 64.397516 
L 488.477645 64.747035 
L 489.481176 64.85518 
L 491.488238 64.772885 
L 492.491769 64.973338 
L 493.495301 65.327822 
L 496.505894 65.13288 
L 498.512956 63.388358 
L 499.516487 63.112058 
L 500.520018 61.740505 
L 501.523549 60.754702 
L 502.52708 60.245315 
L 503.530611 59.333781 
L 504.534142 58.012537 
L 505.537673 57.393624 
L 506.541204 56.945999 
L 507.544735 55.955805 
L 509.551797 54.639274 
L 510.555328 53.607522 
L 511.558859 52.991485 
L 512.56239 52.530632 
L 513.565921 51.408321 
L 514.569452 50.003495 
L 515.572983 48.974477 
L 516.576514 48.168509 
L 517.580045 47.578855 
L 518.583576 47.156457 
L 519.587107 46.56923 
L 520.590638 46.165231 
L 521.594169 45.445565 
L 523.601231 44.802471 
L 524.604762 44.754132 
L 525.608293 44.498746 
L 526.611824 44.046748 
L 527.615355 43.435199 
L 530.625948 42.41844 
L 531.629479 42.119869 
L 534.640072 41.84459 
L 536.647134 41.33297 
L 537.650665 41.747349 
L 538.654196 41.807337 
L 539.657727 41.555854 
L 539.657727 41.555854 
" clip-path="url(#p23ab907399)" style="fill: none; stroke: #1f77b4; stroke-width: 1.5; stroke-linecap: square"/>
   </g>
   <g id="line2d_15">
    <path d="M 72.012273 43.411831 
L 73.015804 42.4475 
L 74.019335 43.782645 
L 75.022866 47.203297 
L 76.026397 43.905786 
L 77.029928 43.498012 
L 78.033459 44.199577 
L 79.03699 41.197526 
L 80.040521 40.433534 
L 81.044052 42.180073 
L 82.047583 43.433179 
L 83.051114 43.945973 
L 84.054645 43.321719 
L 85.058176 43.553776 
L 86.061707 43.428956 
L 87.065238 43.17779 
L 88.068769 43.6123 
L 89.0723 42.504963 
L 90.075831 42.60907 
L 91.079362 43.330618 
L 93.086424 42.235032 
L 94.089955 42.22813 
L 95.093486 42.347468 
L 97.100548 42.796074 
L 98.104079 42.945517 
L 99.10761 42.858755 
L 100.111141 42.894901 
L 101.114672 43.19676 
L 103.121734 43.563004 
L 104.125265 44.548843 
L 105.128796 45.026768 
L 107.135858 44.267907 
L 108.139389 43.099881 
L 109.14292 42.952136 
L 110.146451 43.440648 
L 111.149982 43.735586 
L 114.160576 43.46751 
L 116.167638 43.306061 
L 118.174699 42.901914 
L 119.178231 43.281149 
L 121.185293 43.185195 
L 122.188824 43.682752 
L 123.192355 43.727038 
L 124.195886 43.602245 
L 125.199417 43.837464 
L 129.213541 43.649799 
L 131.220603 43.981546 
L 132.224134 43.723054 
L 134.231196 43.961953 
L 135.234727 44.391344 
L 136.238258 44.476607 
L 138.24532 43.867005 
L 143.262975 43.961388 
L 144.266506 43.812207 
L 145.270037 43.428753 
L 146.273568 43.251968 
L 150.287692 43.15276 
L 152.294754 43.530238 
L 154.301816 43.697892 
L 156.308878 43.793723 
L 157.312409 43.74534 
L 159.319471 43.901189 
L 160.323002 43.869152 
L 162.330064 43.943842 
L 164.337126 43.806879 
L 166.344188 43.193877 
L 169.354782 43.366486 
L 170.358312 43.286632 
L 172.365375 43.373316 
L 173.368906 43.252533 
L 176.379499 43.275844 
L 179.390092 43.626824 
L 180.393623 43.589972 
L 182.400685 43.771832 
L 183.404216 43.948651 
L 187.41834 43.799477 
L 188.421871 43.834742 
L 189.425402 43.998366 
L 190.428933 44.366165 
L 191.432464 44.535705 
L 192.435995 44.417801 
L 193.439526 44.676749 
L 194.443057 44.704272 
L 195.446588 44.44862 
L 197.45365 44.683871 
L 200.464243 45.166503 
L 203.474836 46.12077 
L 204.478367 46.248633 
L 205.481898 45.783071 
L 206.485429 45.491083 
L 207.48896 45.496356 
L 208.492491 45.800644 
L 210.499553 46.693595 
L 211.503084 46.853262 
L 212.506615 46.688654 
L 213.510146 46.922505 
L 214.513677 47.345897 
L 215.517208 48.257345 
L 216.520739 48.857753 
L 217.52427 48.914212 
L 218.527801 49.349434 
L 219.531332 49.663034 
L 220.534863 49.820636 
L 221.538394 49.837248 
L 222.541925 49.729192 
L 223.545457 49.449257 
L 224.548987 49.324181 
L 227.559581 50.398516 
L 229.566643 51.423146 
L 234.584298 54.80893 
L 236.59136 56.291956 
L 237.594891 57.336737 
L 238.598422 58.698657 
L 239.601953 59.606862 
L 240.605484 60.234247 
L 241.609015 61.470915 
L 243.616077 63.531769 
L 244.619608 64.2483 
L 245.623139 65.390725 
L 247.630201 68.194227 
L 248.633732 69.122939 
L 249.637263 70.444535 
L 251.644325 73.840257 
L 254.654918 81.097852 
L 255.658449 84.135044 
L 256.66198 88.476699 
L 257.665511 92.167936 
L 262.683166 106.662077 
L 264.690228 112.348709 
L 268.704352 126.143795 
L 270.711414 134.912965 
L 272.718476 147.048701 
L 275.729069 167.066418 
L 276.7326 170.029268 
L 277.736132 167.430448 
L 278.739663 167.654792 
L 279.743194 164.647793 
L 281.750256 171.343622 
L 282.753787 172.548849 
L 283.757318 172.843532 
L 284.760849 169.742884 
L 285.76438 163.345174 
L 286.767911 154.987841 
L 287.771442 148.772531 
L 289.778504 140.772333 
L 290.782035 137.076641 
L 291.785566 135.509619 
L 292.789097 135.088046 
L 294.796159 133.05669 
L 295.79969 134.906663 
L 296.803221 141.340305 
L 299.813814 168.779812 
L 300.817345 173.620053 
L 301.820876 169.907851 
L 302.824407 165.541583 
L 303.827938 162.802763 
L 305.835 155.378383 
L 309.849124 142.9766 
L 312.859717 132.047781 
L 313.863248 129.178953 
L 314.866779 124.868885 
L 315.87031 119.17417 
L 317.877372 105.512434 
L 318.880903 100.44652 
L 319.884434 97.716229 
L 320.887965 95.325052 
L 322.895027 88.044501 
L 323.898558 87.431476 
L 324.902089 86.685188 
L 325.90562 89.290859 
L 326.909151 93.253113 
L 327.912682 92.337406 
L 328.916213 88.954788 
L 329.919745 86.004332 
L 330.923275 84.755889 
L 332.930338 89.326331 
L 333.933868 90.960248 
L 334.9374 92.235326 
L 335.940931 93.276659 
L 336.944462 93.9294 
L 337.947993 94.012364 
L 339.955055 93.520235 
L 340.958586 93.557406 
L 342.965648 93.98099 
L 343.969179 93.984791 
L 344.97271 93.871988 
L 346.979772 93.932003 
L 348.986834 93.338095 
L 349.990365 92.940816 
L 350.993896 92.290488 
L 351.997427 91.269055 
L 354.004489 88.658593 
L 355.00802 86.987349 
L 356.011551 85.026897 
L 357.015082 82.664873 
L 358.018613 79.861667 
L 360.025675 73.121825 
L 362.032737 65.019655 
L 365.04333 51.486131 
L 366.046861 48.614273 
L 367.050392 47.303621 
L 368.053923 46.888326 
L 370.060985 47.16666 
L 371.064516 47.135167 
L 372.068047 46.97448 
L 373.071578 47.024167 
L 374.075109 47.386398 
L 375.07864 47.626732 
L 376.082171 47.700236 
L 377.085702 47.6219 
L 379.092764 47.899876 
L 381.099826 48.189776 
L 382.103357 48.561695 
L 383.106888 49.064134 
L 384.110419 49.372235 
L 386.117481 49.208131 
L 387.121013 49.384842 
L 389.128075 49.271104 
L 390.131606 49.832184 
L 391.135137 50.202917 
L 393.142199 49.469487 
L 394.14573 49.668251 
L 395.149261 50.073388 
L 398.159854 51.602385 
L 399.163385 52.405927 
L 400.166916 53.059927 
L 401.170447 52.865384 
L 402.173978 52.42659 
L 403.177509 52.203427 
L 405.184571 52.623924 
L 406.188102 52.514033 
L 407.191633 52.557262 
L 408.195164 52.717655 
L 410.202226 53.298846 
L 414.21635 53.971267 
L 416.223412 54.480447 
L 418.230474 54.744038 
L 421.241067 55.273192 
L 422.244598 55.410535 
L 423.248129 55.377572 
L 425.255191 55.920866 
L 428.265784 56.175563 
L 429.269315 56.544041 
L 430.272846 56.723348 
L 432.279908 56.662015 
L 433.283439 56.82831 
L 434.28697 56.804539 
L 436.294032 56.55538 
L 438.301094 56.920666 
L 439.304626 56.674802 
L 442.315219 55.386905 
L 444.322281 54.96537 
L 445.325812 54.428023 
L 448.336405 53.488418 
L 449.339936 52.861325 
L 450.343467 52.476086 
L 451.346998 52.431271 
L 452.350529 52.155131 
L 453.35406 51.697304 
L 458.371715 51.00854 
L 460.378777 50.714928 
L 461.382308 50.400759 
L 463.38937 50.741211 
L 470.414087 50.20098 
L 471.417618 50.343818 
L 472.421149 50.609641 
L 474.428211 50.755756 
L 475.431742 50.953497 
L 476.435273 50.480003 
L 477.438804 50.635125 
L 478.442335 51.380593 
L 480.449397 51.844409 
L 481.452928 52.246116 
L 482.456459 52.37808 
L 483.45999 52.842032 
L 486.470583 53.722417 
L 487.474114 53.731101 
L 489.481176 54.16605 
L 490.484707 54.07036 
L 492.491769 53.276753 
L 494.498831 53.447445 
L 496.505894 52.806287 
L 498.512956 51.772973 
L 499.516487 51.341903 
L 503.530611 48.522407 
L 504.534142 47.572719 
L 505.537673 46.905865 
L 506.541204 45.523811 
L 507.544735 43.579701 
L 512.56239 38.055395 
L 513.565921 37.102595 
L 514.569452 35.584811 
L 515.572983 34.358737 
L 520.590638 31.391937 
L 523.601231 29.496005 
L 525.608293 29.136322 
L 526.611824 28.46713 
L 527.615355 27.94367 
L 528.618886 27.717977 
L 529.622417 27.736607 
L 530.625948 27.226103 
L 531.629479 26.987612 
L 533.636541 25.682115 
L 534.640072 25.598082 
L 536.647134 25.883854 
L 537.650665 25.977383 
L 538.654196 25.302274 
L 539.657727 24.855818 
L 539.657727 24.855818 
" clip-path="url(#p23ab907399)" style="fill: none; stroke: #ff7f0e; stroke-width: 1.5; stroke-linecap: square"/>
   </g>
   <g id="line2d_16">
    <path d="M 72.012273 46.189697 
L 73.015804 46.054486 
L 74.019335 49.02099 
L 75.022866 50.342558 
L 76.026397 47.831359 
L 78.033459 46.46506 
L 79.03699 43.973709 
L 80.040521 44.381858 
L 81.044052 46.116949 
L 82.047583 48.155144 
L 83.051114 48.67299 
L 84.054645 47.957953 
L 85.058176 48.348812 
L 86.061707 48.37169 
L 87.065238 48.563773 
L 88.068769 49.116492 
L 89.0723 48.919076 
L 91.079362 50.497162 
L 93.086424 49.774462 
L 94.089955 50.536402 
L 95.093486 50.610053 
L 96.097017 50.47008 
L 98.104079 50.806986 
L 99.10761 50.550783 
L 100.111141 50.046645 
L 101.114672 49.847182 
L 102.118203 50.295538 
L 103.121734 50.549365 
L 104.125265 51.028574 
L 105.128796 51.179327 
L 106.132327 50.605397 
L 108.139389 49.682012 
L 109.14292 50.127085 
L 110.146451 51.09109 
L 111.149982 51.683344 
L 113.157044 51.892802 
L 115.164106 52.862138 
L 116.167638 52.937972 
L 117.171169 52.78349 
L 118.174699 52.889139 
L 119.178231 53.477043 
L 120.181762 53.819651 
L 121.185293 53.766594 
L 123.192355 54.930898 
L 125.199417 55.386054 
L 126.202948 55.827922 
L 128.21001 56.137 
L 129.213541 56.033389 
L 130.217072 56.282384 
L 131.220603 56.806506 
L 133.227665 56.832219 
L 134.231196 57.104881 
L 135.234727 57.510259 
L 136.238258 57.344372 
L 137.241789 56.944832 
L 138.24532 56.889516 
L 139.248851 57.221758 
L 141.255913 58.768827 
L 144.266506 60.924714 
L 145.270037 61.530609 
L 151.291223 66.707728 
L 152.294754 67.766844 
L 153.298285 68.501172 
L 155.305347 69.482292 
L 157.312409 70.107789 
L 158.31594 70.698142 
L 160.323002 71.679283 
L 161.326533 72.364316 
L 162.330064 72.866388 
L 165.340657 73.790472 
L 168.35125 74.087592 
L 170.358312 73.839057 
L 172.365375 74.123702 
L 173.368906 74.11451 
L 176.379499 74.582325 
L 180.393623 76.127811 
L 182.400685 77.357298 
L 183.404216 77.700618 
L 184.407747 77.916732 
L 185.411278 78.411075 
L 187.41834 79.76382 
L 189.425402 80.854579 
L 191.432464 82.534421 
L 192.435995 83.271576 
L 193.439526 83.008309 
L 195.446588 79.86916 
L 196.450119 78.709848 
L 197.45365 77.051256 
L 200.464243 70.200736 
L 202.471305 66.616243 
L 203.474836 65.244296 
L 205.481898 64.269064 
L 207.48896 63.387565 
L 209.496022 63.483958 
L 210.499553 63.225785 
L 211.503084 63.260169 
L 212.506615 63.051162 
L 214.513677 62.923724 
L 216.520739 63.915622 
L 219.531332 63.420298 
L 220.534863 63.46101 
L 221.538394 63.368489 
L 223.545457 61.489825 
L 224.548987 60.953915 
L 225.552519 60.567137 
L 226.55605 60.408816 
L 230.570174 61.701045 
L 231.573705 62.179032 
L 233.580767 63.797276 
L 236.59136 66.296045 
L 239.601953 69.608568 
L 240.605484 70.439261 
L 242.612546 72.496673 
L 244.619608 74.117192 
L 247.630201 77.948274 
L 248.633732 78.765967 
L 249.637263 80.255959 
L 251.644325 83.717743 
L 254.654918 90.543291 
L 255.658449 93.436262 
L 256.66198 97.678864 
L 257.665511 101.282915 
L 258.669042 104.177858 
L 259.672573 107.578178 
L 260.676104 110.548669 
L 261.679635 113.139406 
L 264.690228 121.800006 
L 268.704352 136.007836 
L 270.711414 144.911181 
L 272.718476 156.819818 
L 275.729069 176.328084 
L 276.7326 179.103577 
L 277.736132 176.738324 
L 278.739663 176.964659 
L 279.743194 174.400381 
L 281.750256 180.935847 
L 282.753787 182.089313 
L 283.757318 182.271772 
L 284.760849 179.22152 
L 285.76438 173.13721 
L 286.767911 165.240362 
L 287.771442 159.367958 
L 289.778504 151.776318 
L 290.782035 148.348083 
L 291.785566 146.828032 
L 292.789097 146.502282 
L 294.796159 145.090445 
L 295.79969 147.006989 
L 296.803221 153.166887 
L 299.813814 179.529048 
L 300.817345 184.16234 
L 301.820876 180.988091 
L 302.824407 177.160392 
L 303.827938 174.835597 
L 305.835 168.293576 
L 307.842062 163.238675 
L 309.849124 157.722131 
L 312.859717 147.830312 
L 313.863248 145.380422 
L 314.866779 141.603307 
L 315.87031 136.438434 
L 317.877372 124.100557 
L 318.880903 119.700059 
L 320.887965 115.223604 
L 322.895027 108.9505 
L 323.898558 108.632727 
L 324.902089 108.08413 
L 325.90562 110.453587 
L 326.909151 113.85272 
L 327.912682 113.165274 
L 329.919745 107.619408 
L 330.923275 106.540913 
L 332.930338 110.889715 
L 333.933868 112.60861 
L 334.9374 114.04118 
L 335.940931 115.164675 
L 336.944462 116.036077 
L 337.947993 116.42993 
L 338.951524 116.296158 
L 339.955055 116.445194 
L 340.958586 116.744513 
L 341.962117 117.239257 
L 342.965648 117.906602 
L 343.969179 118.305347 
L 347.983303 119.14245 
L 348.986834 119.059916 
L 350.993896 118.619719 
L 351.997427 118.142746 
L 353.000958 117.295315 
L 354.004489 116.242673 
L 355.00802 114.863399 
L 356.011551 113.279987 
L 357.015082 111.303516 
L 359.022144 106.108466 
L 360.025675 103.296818 
L 362.032737 96.402571 
L 365.04333 85.219693 
L 366.046861 82.935008 
L 367.050392 82.16709 
L 368.053923 82.31986 
L 369.057454 82.788183 
L 370.060985 83.120109 
L 371.064516 83.262405 
L 372.068047 83.277965 
L 373.071578 83.525061 
L 375.07864 84.413199 
L 377.085702 84.955605 
L 379.092764 85.372996 
L 380.096295 85.695793 
L 381.099826 86.150934 
L 382.103357 87.09673 
L 383.106888 89.366724 
L 384.110419 94.632144 
L 385.11395 103.604584 
L 386.117481 113.97254 
L 387.121013 122.005476 
L 388.124543 127.216054 
L 390.131606 133.473748 
L 391.135137 135.047729 
L 392.138668 134.270452 
L 393.142199 132.552816 
L 394.14573 131.68949 
L 395.149261 131.022709 
L 396.152792 130.149788 
L 397.156323 129.998186 
L 398.159854 130.368885 
L 399.163385 131.080817 
L 400.166916 131.196463 
L 401.170447 129.188584 
L 402.173978 125.327753 
L 403.177509 120.567769 
L 404.18104 116.83194 
L 405.184571 113.973494 
L 406.188102 111.469159 
L 407.191633 109.589145 
L 408.195164 108.328951 
L 409.198695 107.258807 
L 411.205757 105.858927 
L 412.209288 105.105524 
L 414.21635 104.61433 
L 415.219881 104.46726 
L 416.223412 104.516355 
L 418.230474 104.294945 
L 421.241067 104.546908 
L 422.244598 105.047863 
L 425.255191 105.883598 
L 426.258722 106.570226 
L 430.272846 108.102801 
L 433.283439 109.431254 
L 435.290501 109.86574 
L 436.294032 110.271388 
L 437.297563 110.453282 
L 438.301094 110.803962 
L 439.304626 110.7937 
L 440.308156 110.65598 
L 441.311688 110.877335 
L 442.315219 110.809372 
L 444.322281 111.208238 
L 445.325812 110.711555 
L 447.332874 111.120101 
L 448.336405 110.862802 
L 449.339936 110.739486 
L 450.343467 110.970015 
L 451.346998 111.474207 
L 452.350529 111.577766 
L 454.357591 111.582766 
L 456.364653 112.345216 
L 457.368184 112.179928 
L 458.371715 112.265219 
L 459.375246 112.880737 
L 460.378777 113.150303 
L 461.382308 112.856754 
L 462.385839 113.167474 
L 463.38937 113.995704 
L 464.392901 114.621889 
L 466.399963 114.732447 
L 467.403494 115.829608 
L 468.407025 116.575097 
L 469.410556 116.429163 
L 470.414087 116.15302 
L 471.417618 116.606056 
L 472.421149 117.367932 
L 474.428211 118.129198 
L 475.431742 118.965506 
L 477.438804 119.899155 
L 478.442335 121.106511 
L 479.445866 121.38475 
L 480.449397 121.540086 
L 481.452928 122.49663 
L 482.456459 123.283882 
L 483.45999 124.313355 
L 484.463521 125.04031 
L 485.467052 125.482994 
L 487.474114 126.772486 
L 488.477645 127.288799 
L 489.481176 128.282401 
L 490.484707 128.730962 
L 491.488238 128.891432 
L 492.491769 129.169538 
L 493.495301 129.675913 
L 494.498831 129.938536 
L 495.502362 129.54218 
L 496.505894 129.57495 
L 497.509424 129.883382 
L 498.512956 129.803286 
L 499.516487 129.538692 
L 500.520018 129.514896 
L 503.530611 129.938283 
L 504.534142 129.602344 
L 508.548266 126.344771 
L 509.551797 125.949049 
L 511.558859 124.46865 
L 512.56239 124.066082 
L 513.565921 124.249636 
L 514.569452 123.874176 
L 515.572983 123.275999 
L 516.576514 122.991931 
L 521.594169 122.773549 
L 522.5977 122.42021 
L 523.601231 122.452234 
L 524.604762 122.894171 
L 525.608293 122.897942 
L 526.611824 122.620943 
L 527.615355 122.505034 
L 528.618886 122.551107 
L 529.622417 122.954575 
L 530.625948 122.788916 
L 531.629479 122.760782 
L 534.640072 123.189579 
L 536.647134 123.66707 
L 538.654196 124.060929 
L 539.657727 124.511185 
L 539.657727 124.511185 
" clip-path="url(#p23ab907399)" style="fill: none; stroke: #2ca02c; stroke-width: 1.5; stroke-linecap: square"/>
   </g>
   <g id="line2d_17">
    <path d="M 72.012273 65.272482 
L 73.015804 58.706676 
L 74.019335 56.357623 
L 75.022866 56.752457 
L 76.026397 58.336018 
L 77.029928 58.045021 
L 78.033459 56.630999 
L 79.03699 56.455485 
L 80.040521 57.717414 
L 81.044052 57.648259 
L 82.047583 57.058322 
L 83.051114 58.316499 
L 84.054645 59.841867 
L 85.058176 60.094917 
L 86.061707 60.529781 
L 87.065238 59.851145 
L 88.068769 60.211949 
L 89.0723 61.470225 
L 90.075831 61.908198 
L 91.079362 62.188052 
L 93.086424 63.113925 
L 95.093486 63.961228 
L 96.097017 64.076154 
L 98.104079 63.917464 
L 99.10761 64.305544 
L 100.111141 65.117701 
L 101.114672 65.43382 
L 102.118203 65.925894 
L 103.121734 66.866871 
L 104.125265 68.250578 
L 105.128796 68.296028 
L 106.132327 69.330883 
L 107.135858 71.022401 
L 109.14292 69.763268 
L 110.146451 68.566362 
L 111.149982 67.73963 
L 112.153513 67.679469 
L 113.157044 67.79107 
L 117.171169 67.366215 
L 118.174699 67.795403 
L 119.178231 68.023102 
L 122.188824 67.627888 
L 123.192355 68.030527 
L 124.195886 68.124284 
L 125.199417 68.377958 
L 126.202948 68.963134 
L 127.206479 69.087815 
L 128.21001 69.081782 
L 130.217072 69.839133 
L 133.227665 70.551732 
L 135.234727 71.978316 
L 138.24532 72.687014 
L 139.248851 73.375086 
L 140.252382 73.721099 
L 142.259444 73.371778 
L 144.266506 73.49439 
L 145.270037 73.313038 
L 148.28063 72.311774 
L 149.284161 72.177018 
L 151.291223 72.154621 
L 153.298285 71.865372 
L 154.301816 72.045629 
L 156.308878 72.041703 
L 157.312409 72.020512 
L 158.31594 72.14556 
L 159.319471 72.475901 
L 164.337126 73.25124 
L 167.347719 74.133365 
L 168.35125 74.471077 
L 169.354782 74.560474 
L 170.358312 74.531833 
L 172.365375 74.891896 
L 174.372437 74.830234 
L 176.379499 75.209226 
L 177.38303 75.287226 
L 181.397154 76.517453 
L 184.407747 76.9245 
L 185.411278 77.135029 
L 187.41834 77.396545 
L 189.425402 77.835111 
L 191.432464 78.708361 
L 193.439526 79.061129 
L 194.443057 78.989239 
L 197.45365 78.273562 
L 200.464243 76.763829 
L 201.467774 76.243562 
L 202.471305 75.574223 
L 203.474836 75.175206 
L 205.481898 75.258949 
L 207.48896 75.341867 
L 214.513677 77.044528 
L 215.517208 77.520616 
L 216.520739 78.353525 
L 217.52427 78.77362 
L 218.527801 78.978461 
L 219.531332 78.701207 
L 220.534863 78.772766 
L 222.541925 78.149181 
L 224.548987 77.96833 
L 226.55605 78.026717 
L 229.566643 79.302972 
L 236.59136 83.468582 
L 239.601953 86.182833 
L 240.605484 86.771428 
L 241.609015 87.592063 
L 244.619608 89.359135 
L 247.630201 92.496622 
L 248.633732 93.12924 
L 249.637263 94.28329 
L 252.647856 98.665443 
L 254.654918 102.329472 
L 255.658449 104.606912 
L 257.665511 111.091683 
L 259.672573 115.827613 
L 260.676104 118.377312 
L 262.683166 122.749942 
L 265.693759 129.856557 
L 267.700821 135.255787 
L 269.707883 141.883097 
L 270.711414 145.546317 
L 272.718476 155.4674 
L 275.729069 171.804023 
L 276.7326 174.139718 
L 277.736132 172.088349 
L 278.739663 172.204761 
L 279.743194 169.763169 
L 281.750256 175.474057 
L 282.753787 176.489194 
L 283.757318 176.501059 
L 284.760849 173.959729 
L 285.76438 168.890331 
L 286.767911 162.109263 
L 287.771442 157.027429 
L 289.778504 150.476328 
L 290.782035 147.574031 
L 291.785566 146.488818 
L 292.789097 146.193542 
L 294.796159 144.697567 
L 295.79969 146.095762 
L 296.803221 151.366954 
L 299.813814 173.606895 
L 300.817345 177.497982 
L 301.820876 174.447924 
L 302.824407 170.954656 
L 303.827938 168.726851 
L 305.835 162.648807 
L 309.849124 152.732906 
L 311.856186 146.770312 
L 312.859717 144.074542 
L 313.863248 142.060848 
L 314.866779 138.563411 
L 315.87031 134.3184 
L 317.877372 123.790677 
L 318.880903 120.260716 
L 320.887965 116.011889 
L 321.891496 112.85192 
L 322.895027 110.342223 
L 323.898558 110.500166 
L 324.902089 110.859439 
L 325.90562 112.064752 
L 326.909151 114.310445 
L 327.912682 113.172455 
L 328.916213 110.575716 
L 329.919745 108.495128 
L 330.923275 107.53074 
L 333.933868 111.629404 
L 335.940931 113.735668 
L 336.944462 114.139964 
L 338.951524 114.090064 
L 339.955055 114.00227 
L 340.958586 114.069901 
L 342.965648 114.483869 
L 343.969179 114.5032 
L 345.976241 114.799917 
L 347.983303 114.683227 
L 349.990365 114.052346 
L 350.993896 113.671115 
L 351.997427 113.161421 
L 354.004489 111.285774 
L 355.00802 109.940348 
L 357.015082 106.621803 
L 358.018613 104.462756 
L 360.025675 99.30875 
L 361.029206 96.402443 
L 365.04333 83.171125 
L 366.046861 80.974987 
L 367.050392 79.829418 
L 368.053923 79.768088 
L 369.057454 80.108016 
L 370.060985 80.245038 
L 375.07864 80.015306 
L 377.085702 80.058042 
L 379.092764 80.190846 
L 380.096295 80.18907 
L 381.099826 80.342135 
L 382.103357 80.635785 
L 383.106888 81.204809 
L 384.110419 82.559916 
L 385.11395 84.847278 
L 386.117481 87.572517 
L 387.121013 89.431958 
L 388.124543 91.009137 
L 389.128075 93.13457 
L 390.131606 95.753291 
L 391.135137 97.6204 
L 392.138668 97.935685 
L 394.14573 96.904559 
L 395.149261 96.798035 
L 396.152792 97.104318 
L 397.156323 98.113816 
L 399.163385 101.552897 
L 400.166916 101.91293 
L 401.170447 100.194671 
L 403.177509 95.343094 
L 404.18104 93.705948 
L 405.184571 92.644508 
L 407.191633 90.961812 
L 409.198695 89.01117 
L 412.209288 87.790107 
L 420.237536 87.479856 
L 422.244598 87.719211 
L 423.248129 87.96833 
L 425.255191 88.015285 
L 426.258722 88.300934 
L 428.265784 88.632114 
L 429.269315 88.847743 
L 430.272846 88.797298 
L 431.276377 89.2312 
L 432.279908 89.521577 
L 433.283439 89.565206 
L 435.290501 89.43622 
L 437.297563 89.697451 
L 438.301094 89.661383 
L 442.315219 88.687828 
L 445.325812 87.884906 
L 446.329343 87.923198 
L 447.332874 87.738302 
L 448.336405 87.101509 
L 449.339936 86.851808 
L 451.346998 87.056005 
L 452.350529 86.626097 
L 453.35406 86.35021 
L 454.357591 86.304778 
L 456.364653 85.909742 
L 457.368184 85.651546 
L 458.371715 85.60388 
L 459.375246 85.692352 
L 460.378777 85.608895 
L 461.382308 85.256939 
L 462.385839 85.255801 
L 464.392901 86.05584 
L 465.396432 86.085923 
L 466.399963 85.886638 
L 467.403494 86.079762 
L 468.407025 86.56488 
L 469.410556 86.643711 
L 470.414087 86.267327 
L 471.417618 86.13063 
L 473.42468 86.686852 
L 474.428211 86.878079 
L 475.431742 87.296728 
L 476.435273 87.367766 
L 477.438804 87.554382 
L 478.442335 88.099422 
L 480.449397 88.305554 
L 481.452928 88.803926 
L 482.456459 89.02247 
L 483.45999 89.78223 
L 484.463521 90.376311 
L 485.467052 90.464291 
L 487.474114 91.735883 
L 489.481176 92.424688 
L 490.484707 92.987684 
L 491.488238 93.273394 
L 492.491769 93.160094 
L 493.495301 92.155494 
L 494.498831 91.524559 
L 496.505894 90.658399 
L 498.512956 91.275947 
L 499.516487 90.878007 
L 500.520018 90.644323 
L 501.523549 90.233603 
L 502.52708 90.240795 
L 503.530611 90.449113 
L 504.534142 90.146217 
L 505.537673 89.194505 
L 506.541204 87.774362 
L 507.544735 86.130345 
L 508.548266 84.923603 
L 510.555328 82.908549 
L 512.56239 81.70342 
L 514.569452 80.223627 
L 515.572983 79.618084 
L 516.576514 79.185392 
L 517.580045 79.017223 
L 518.583576 78.65619 
L 519.587107 78.422591 
L 520.590638 77.587786 
L 521.594169 77.034548 
L 522.5977 76.742329 
L 523.601231 76.608382 
L 525.608293 75.725123 
L 528.618886 74.345068 
L 529.622417 74.223497 
L 530.625948 74.319166 
L 533.636541 73.648394 
L 534.640072 73.096796 
L 535.643603 73.020258 
L 536.647134 73.098978 
L 537.650665 72.933362 
L 538.654196 73.106223 
L 539.657727 73.099681 
L 539.657727 73.099681 
" clip-path="url(#p23ab907399)" style="fill: none; stroke: #d62728; stroke-width: 1.5; stroke-linecap: square"/>
   </g>
   <g id="line2d_18">
    <path d="M 72.012273 54.69588 
L 73.015804 54.246244 
L 74.019335 54.452503 
L 75.022866 53.872669 
L 76.026397 54.432095 
L 77.029928 54.515214 
L 78.033459 53.161573 
L 79.03699 52.782709 
L 80.040521 53.613572 
L 81.044052 52.439422 
L 82.047583 50.989122 
L 83.051114 51.457359 
L 84.054645 52.388559 
L 85.058176 52.751397 
L 86.061707 52.781485 
L 87.065238 52.633994 
L 88.068769 53.054453 
L 89.0723 52.809736 
L 90.075831 52.696155 
L 91.079362 53.670269 
L 92.082893 53.588917 
L 93.086424 53.027674 
L 94.089955 52.921977 
L 95.093486 53.11139 
L 96.097017 53.621675 
L 97.100548 53.119033 
L 98.104079 51.97815 
L 99.10761 51.854149 
L 100.111141 52.652895 
L 102.118203 53.737329 
L 103.121734 54.65412 
L 104.125265 56.021788 
L 105.128796 56.165203 
L 107.135858 58.782411 
L 108.139389 57.505227 
L 109.14292 56.792417 
L 111.149982 53.84112 
L 112.153513 53.165187 
L 114.160576 52.868542 
L 116.167638 52.211755 
L 117.171169 52.044643 
L 118.174699 52.064063 
L 119.178231 51.824736 
L 120.181762 51.786199 
L 121.185293 52.020792 
L 122.188824 51.657036 
L 123.192355 51.650071 
L 125.199417 51.407014 
L 127.206479 52.0147 
L 128.21001 51.971354 
L 129.213541 52.102612 
L 130.217072 52.025948 
L 132.224134 50.951548 
L 133.227665 51.272225 
L 134.231196 51.839507 
L 135.234727 52.00485 
L 136.238258 51.905453 
L 138.24532 51.336746 
L 140.252382 52.093852 
L 141.255913 52.282368 
L 142.259444 52.323388 
L 144.266506 52.805711 
L 145.270037 53.100608 
L 147.277099 53.304204 
L 149.284161 53.794612 
L 151.291223 53.712647 
L 152.294754 53.871499 
L 153.298285 53.896203 
L 158.31594 53.291325 
L 160.323002 53.618865 
L 161.326533 53.955597 
L 163.333595 54.302279 
L 164.337126 54.289027 
L 165.340657 54.016062 
L 166.344188 53.940911 
L 168.35125 54.326848 
L 169.354782 54.246457 
L 170.358312 53.961398 
L 171.361844 53.872204 
L 172.365375 53.952029 
L 174.372437 53.723943 
L 176.379499 54.013019 
L 177.38303 53.90889 
L 178.386561 54.09843 
L 180.393623 54.68415 
L 181.397154 54.850454 
L 183.404216 54.91525 
L 185.411278 55.091213 
L 187.41834 55.244156 
L 189.425402 55.538903 
L 190.428933 55.96074 
L 191.432464 56.256248 
L 192.435995 56.271132 
L 193.439526 56.47069 
L 194.443057 56.391118 
L 195.446588 56.095064 
L 197.45365 56.113635 
L 203.474836 55.115214 
L 204.478367 55.244215 
L 207.48896 54.980108 
L 209.496022 55.895592 
L 210.499553 55.891592 
L 213.510146 57.002167 
L 214.513677 57.316915 
L 215.517208 58.137471 
L 216.520739 59.164324 
L 217.52427 59.549339 
L 218.527801 59.749832 
L 219.531332 59.615227 
L 220.534863 59.722661 
L 221.538394 59.514371 
L 222.541925 58.879032 
L 223.545457 58.549375 
L 226.55605 58.271079 
L 228.563112 59.406477 
L 229.566643 60.074976 
L 236.59136 65.692164 
L 237.594891 66.78854 
L 238.598422 68.212872 
L 239.601953 69.401372 
L 240.605484 70.172117 
L 242.612546 72.148093 
L 244.619608 73.636204 
L 247.630201 77.537176 
L 248.633732 78.337303 
L 250.640794 81.620554 
L 251.644325 83.250731 
L 253.651387 87.722196 
L 254.654918 90.022455 
L 255.658449 92.945674 
L 257.665511 100.966437 
L 258.669042 103.913276 
L 260.676104 110.231364 
L 262.683166 115.595652 
L 264.690228 121.112948 
L 267.700821 131.078505 
L 269.707883 139.444966 
L 270.711414 144.033358 
L 272.718476 156.094702 
L 275.729069 175.892892 
L 276.7326 178.707307 
L 277.736132 176.142223 
L 278.739663 175.806239 
L 279.743194 173.300624 
L 281.750256 180.016509 
L 282.753787 181.336185 
L 283.757318 181.532198 
L 284.760849 178.369651 
L 285.76438 172.00122 
L 286.767911 163.57821 
L 287.771442 157.385411 
L 289.778504 149.351525 
L 290.782035 145.733787 
L 291.785566 144.280998 
L 292.789097 143.774945 
L 294.796159 141.952603 
L 295.79969 143.724186 
L 296.803221 150.136024 
L 299.813814 177.604189 
L 300.817345 182.425441 
L 301.820876 178.724905 
L 302.824407 174.435856 
L 303.827938 171.738026 
L 305.835 164.185868 
L 309.849124 151.877957 
L 311.856186 144.605796 
L 312.859717 141.277824 
L 313.863248 138.707032 
L 314.866779 134.275006 
L 315.87031 128.62787 
L 317.877372 115.224175 
L 318.880903 110.843756 
L 319.884434 108.299927 
L 320.887965 105.33187 
L 321.891496 100.924799 
L 322.895027 97.456559 
L 323.898558 97.494022 
L 324.902089 97.74242 
L 325.90562 99.696681 
L 326.909151 102.979401 
L 327.912682 101.498317 
L 328.916213 98.220271 
L 329.919745 95.652032 
L 330.923275 94.453297 
L 331.926806 96.214886 
L 332.930338 98.316826 
L 333.933868 99.973276 
L 334.9374 101.398184 
L 335.940931 102.612239 
L 336.944462 103.321591 
L 337.947993 103.498703 
L 339.955055 103.168299 
L 340.958586 103.187842 
L 342.965648 103.45239 
L 345.976241 103.172405 
L 347.983303 102.919776 
L 348.986834 102.607095 
L 349.990365 102.094546 
L 351.997427 100.496766 
L 354.004489 98.036297 
L 355.00802 96.283873 
L 357.015082 91.899439 
L 358.018613 89.147841 
L 360.025675 82.38653 
L 361.029206 78.583349 
L 363.036268 69.662893 
L 365.04333 60.920476 
L 366.046861 58.005079 
L 367.050392 56.515762 
L 368.053923 56.229608 
L 370.060985 56.860868 
L 371.064516 56.862803 
L 374.075109 57.205664 
L 375.07864 57.220888 
L 381.099826 58.734511 
L 382.103357 59.410229 
L 384.110419 61.400579 
L 386.117481 62.234441 
L 387.121013 62.538499 
L 388.124543 62.985174 
L 389.128075 65.214038 
L 390.131606 69.506398 
L 391.135137 71.880272 
L 392.138668 71.150512 
L 393.142199 69.928919 
L 394.14573 69.15093 
L 395.149261 68.941102 
L 396.152792 68.897363 
L 397.156323 69.521644 
L 398.159854 71.108601 
L 399.163385 73.085318 
L 400.166916 74.042272 
L 401.170447 73.039703 
L 403.177509 69.181328 
L 404.18104 68.206274 
L 407.191633 67.15205 
L 408.195164 66.66001 
L 409.198695 66.038014 
L 410.202226 65.852612 
L 411.205757 65.784272 
L 412.209288 65.559647 
L 413.212819 65.498617 
L 415.219881 65.670934 
L 420.237536 65.639089 
L 423.248129 66.134392 
L 424.25166 66.119135 
L 425.255191 66.288981 
L 427.262253 66.88581 
L 428.265784 67.137619 
L 430.272846 67.067861 
L 431.276377 67.311587 
L 434.28697 67.598801 
L 438.301094 67.596239 
L 439.304626 67.398497 
L 441.311688 66.486803 
L 443.31875 66.108891 
L 445.325812 65.366086 
L 446.329343 65.149326 
L 448.336405 64.150602 
L 450.343467 63.803122 
L 452.350529 63.023285 
L 454.357591 62.559485 
L 456.364653 61.971521 
L 458.371715 61.75576 
L 459.375246 61.510346 
L 460.378777 61.569653 
L 462.385839 61.24646 
L 463.38937 61.444619 
L 465.396432 61.518767 
L 466.399963 61.402494 
L 469.410556 61.981007 
L 471.417618 61.772136 
L 473.42468 62.101907 
L 474.428211 62.396688 
L 475.431742 63.05307 
L 477.438804 63.209164 
L 478.442335 63.775518 
L 479.445866 63.593622 
L 480.449397 63.894631 
L 481.452928 64.543332 
L 482.456459 64.783564 
L 483.45999 65.732679 
L 485.467052 66.024084 
L 486.470583 67.184 
L 487.474114 68.03573 
L 488.477645 68.144845 
L 490.484707 69.077344 
L 491.488238 68.999293 
L 492.491769 68.22675 
L 494.498831 67.393696 
L 495.502362 66.312128 
L 496.505894 65.787699 
L 497.509424 66.090814 
L 499.516487 65.559508 
L 502.52708 64.459105 
L 504.534142 63.900503 
L 505.537673 63.064151 
L 506.541204 60.857093 
L 507.544735 58.108269 
L 508.548266 56.361835 
L 510.555328 53.718214 
L 515.572983 48.988897 
L 517.580045 47.160856 
L 518.583576 46.895852 
L 519.587107 46.747567 
L 521.594169 44.441115 
L 522.5977 44.335416 
L 523.601231 43.958109 
L 528.618886 41.283581 
L 529.622417 41.107132 
L 530.625948 41.09528 
L 532.63301 40.761283 
L 533.636541 40.223324 
L 534.640072 39.365003 
L 535.643603 39.040567 
L 536.647134 38.921129 
L 537.650665 38.984227 
L 538.654196 39.208141 
L 539.657727 38.908633 
L 539.657727 38.908633 
" clip-path="url(#p23ab907399)" style="fill: none; stroke: #9467bd; stroke-width: 1.5; stroke-linecap: square"/>
   </g>
   <g id="line2d_19">
    <path d="M 72.012273 49.38231 
L 73.015804 47.894685 
L 74.019335 51.228139 
L 75.022866 52.750254 
L 76.026397 53.151193 
L 77.029928 54.436077 
L 78.033459 55.279729 
L 79.03699 53.422733 
L 80.040521 52.739405 
L 82.047583 53.530131 
L 83.051114 53.421795 
L 84.054645 54.315906 
L 85.058176 55.712755 
L 86.061707 55.511745 
L 87.065238 54.978754 
L 88.068769 54.663172 
L 89.0723 54.128456 
L 90.075831 54.088066 
L 91.079362 55.172053 
L 92.082893 55.557504 
L 94.089955 57.444531 
L 95.093486 58.695979 
L 99.10761 61.420807 
L 100.111141 62.550926 
L 101.114672 62.995637 
L 102.118203 63.041173 
L 105.128796 64.549009 
L 107.135858 64.807451 
L 108.139389 65.231584 
L 109.14292 65.133895 
L 110.146451 66.021751 
L 111.149982 66.357323 
L 113.157044 66.190209 
L 114.160576 66.337915 
L 115.164106 66.293706 
L 116.167638 66.474152 
L 117.171169 66.108205 
L 118.174699 65.903209 
L 119.178231 66.259363 
L 121.185293 66.489184 
L 123.192355 66.53006 
L 124.195886 67.158234 
L 125.199417 67.450307 
L 126.202948 67.445473 
L 129.213541 69.229973 
L 130.217072 69.487848 
L 131.220603 69.924991 
L 133.227665 71.693155 
L 134.231196 72.308533 
L 135.234727 72.763628 
L 136.238258 73.012981 
L 137.241789 73.41687 
L 139.248851 75.075124 
L 140.252382 76.153328 
L 141.255913 76.898107 
L 144.266506 77.798576 
L 146.273568 78.144388 
L 147.277099 78.469104 
L 148.28063 79.006767 
L 151.291223 80.289637 
L 152.294754 80.861611 
L 156.308878 82.489424 
L 157.312409 83.090144 
L 158.31594 83.365258 
L 159.319471 83.759646 
L 163.333595 87.603097 
L 164.337126 88.380216 
L 167.347719 90.107144 
L 169.354782 91.07875 
L 170.358312 91.767118 
L 171.361844 92.062368 
L 172.365375 92.036175 
L 173.368906 92.393781 
L 174.372437 93.053177 
L 175.375968 93.457738 
L 176.379499 94.041012 
L 177.38303 95.4186 
L 178.386561 97.212608 
L 179.390092 98.300701 
L 181.397154 97.910593 
L 182.400685 98.402779 
L 184.407747 99.746873 
L 192.435995 106.732443 
L 193.439526 106.546906 
L 194.443057 104.921528 
L 196.450119 102.619941 
L 197.45365 100.884892 
L 198.457181 98.534893 
L 199.460712 95.698301 
L 201.467774 91.616274 
L 202.471305 89.700168 
L 203.474836 88.277596 
L 206.485429 88.360883 
L 207.48896 88.666557 
L 210.499553 91.173691 
L 212.506615 93.134015 
L 213.510146 93.860444 
L 214.513677 93.835087 
L 215.517208 93.954214 
L 217.52427 95.4276 
L 218.527801 96.33518 
L 219.531332 96.656893 
L 220.534863 96.748259 
L 221.538394 96.575671 
L 222.541925 95.677758 
L 223.545457 95.014831 
L 225.552519 94.074811 
L 226.55605 94.103466 
L 227.559581 94.531424 
L 228.563112 94.217316 
L 229.566643 94.142702 
L 230.570174 94.36893 
L 231.573705 94.878867 
L 233.580767 96.71876 
L 235.587829 98.476499 
L 236.59136 99.120986 
L 237.594891 100.043729 
L 238.598422 101.137743 
L 240.605484 103.081908 
L 242.612546 105.642404 
L 245.623139 109.394311 
L 249.637263 115.159864 
L 251.644325 118.649304 
L 254.654918 125.302424 
L 255.658449 128.036767 
L 256.66198 131.78998 
L 257.665511 135.015542 
L 259.672573 140.618092 
L 261.679635 145.9247 
L 265.693759 156.869835 
L 267.700821 162.875172 
L 269.707883 170.360086 
L 270.711414 174.425958 
L 272.718476 184.454013 
L 274.725538 195.857011 
L 275.729069 201.646167 
L 276.7326 204.363204 
L 277.736132 202.856215 
L 278.739663 203.559112 
L 279.743194 201.358286 
L 281.750256 207.429616 
L 282.753787 208.762529 
L 283.757318 209.19588 
L 284.760849 207.068045 
L 285.76438 202.586501 
L 286.767911 196.721294 
L 287.771442 192.509419 
L 289.778504 187.021838 
L 290.782035 184.613869 
L 291.785566 183.878811 
L 292.789097 184.125212 
L 293.792628 183.945718 
L 294.796159 183.606418 
L 295.79969 185.4476 
L 296.803221 190.644041 
L 299.813814 212.370823 
L 300.817345 216.440492 
L 301.820876 214.215188 
L 302.824407 211.426889 
L 303.827938 209.919963 
L 305.835 205.18683 
L 306.838531 203.3685 
L 307.842062 201.854323 
L 309.849124 198.048498 
L 312.859717 191.317347 
L 313.863248 189.971474 
L 314.866779 187.288144 
L 315.87031 183.874557 
L 317.877372 175.265012 
L 318.880903 172.182451 
L 319.884434 170.677473 
L 320.887965 169.444049 
L 322.895027 165.953462 
L 323.898558 166.395723 
L 324.902089 166.659509 
L 325.90562 168.805749 
L 326.909151 171.864757 
L 327.912682 171.890209 
L 328.916213 170.086466 
L 329.919745 168.538789 
L 330.923275 168.235879 
L 332.930338 172.762397 
L 334.9374 176.597622 
L 335.940931 178.366076 
L 336.944462 179.791918 
L 337.947993 181.016036 
L 338.951524 181.813543 
L 339.955055 182.386658 
L 340.958586 182.681152 
L 343.969179 183.123324 
L 344.97271 183.3374 
L 347.983303 184.354616 
L 348.986834 184.465081 
L 349.990365 184.742674 
L 350.993896 184.88373 
L 351.997427 184.875571 
L 353.000958 184.725443 
L 354.004489 184.311537 
L 356.011551 182.909714 
L 358.018613 180.974016 
L 359.022144 179.663302 
L 360.025675 177.993791 
L 362.032737 173.983981 
L 365.04333 167.587082 
L 366.046861 166.555445 
L 367.050392 166.564254 
L 368.053923 167.224726 
L 370.060985 168.909226 
L 371.064516 169.486318 
L 374.075109 171.757357 
L 376.082171 173.884502 
L 377.085702 175.08124 
L 379.092764 178.090929 
L 380.096295 179.407389 
L 381.099826 181.008994 
L 382.103357 183.441524 
L 383.106888 186.860602 
L 384.110419 191.672143 
L 386.117481 203.176956 
L 387.121013 206.246157 
L 388.124543 207.279081 
L 389.128075 207.976058 
L 390.131606 209.598621 
L 391.135137 210.500004 
L 392.138668 210.592149 
L 393.142199 210.850942 
L 394.14573 211.936728 
L 395.149261 212.852981 
L 396.152792 213.231724 
L 397.156323 214.254384 
L 398.159854 215.524225 
L 400.166916 218.532382 
L 401.170447 217.975367 
L 402.173978 215.263926 
L 403.177509 211.480153 
L 404.18104 208.97516 
L 405.184571 207.305874 
L 407.191633 204.427261 
L 409.198695 203.665151 
L 410.202226 203.535646 
L 411.205757 202.921549 
L 412.209288 202.614188 
L 413.212819 203.413777 
L 414.21635 203.787578 
L 415.219881 203.645307 
L 416.223412 203.902066 
L 417.226943 204.589736 
L 418.230474 205.114322 
L 419.234005 205.339569 
L 420.237536 205.293363 
L 421.241067 205.567331 
L 422.244598 206.660053 
L 423.248129 207.485484 
L 425.255191 208.282373 
L 426.258722 210.030223 
L 427.262253 210.789132 
L 428.265784 210.994497 
L 429.269315 211.517776 
L 430.272846 212.270936 
L 431.276377 213.467549 
L 432.279908 214.374963 
L 433.283439 215.026083 
L 434.28697 215.532311 
L 436.294032 216.808391 
L 437.297563 217.204721 
L 438.301094 217.786134 
L 439.304626 218.16092 
L 440.308156 218.248081 
L 441.311688 218.713139 
L 443.31875 219.838585 
L 444.322281 220.193491 
L 445.325812 220.073217 
L 446.329343 220.939469 
L 447.332874 221.1484 
L 448.336405 220.629015 
L 449.339936 220.583682 
L 450.343467 221.4816 
L 451.346998 223.060065 
L 452.350529 223.638676 
L 453.35406 223.731472 
L 454.357591 223.694974 
L 456.364653 225.176593 
L 457.368184 225.053414 
L 458.371715 225.370238 
L 459.375246 226.657857 
L 460.378777 227.057439 
L 461.382308 226.685526 
L 462.385839 227.199901 
L 463.38937 228.528937 
L 464.392901 229.627618 
L 465.396432 229.901069 
L 466.399963 229.648568 
L 468.407025 232.792686 
L 469.410556 232.953755 
L 470.414087 232.373566 
L 471.417618 232.822165 
L 472.421149 234.111926 
L 473.42468 234.890956 
L 474.428211 235.156234 
L 475.431742 236.056649 
L 476.435273 237.441711 
L 477.438804 238.000415 
L 478.442335 238.931514 
L 479.445866 239.503827 
L 480.449397 239.56802 
L 481.452928 240.422407 
L 482.456459 241.778225 
L 484.463521 243.749435 
L 485.467052 243.966416 
L 486.470583 244.443374 
L 487.474114 245.641226 
L 489.481176 247.738632 
L 490.484707 248.276055 
L 491.488238 248.955192 
L 492.491769 249.877033 
L 493.495301 250.387457 
L 494.498831 250.484211 
L 495.502362 250.165237 
L 496.505894 250.505134 
L 497.509424 251.415 
L 498.512956 252.105376 
L 499.516487 251.794799 
L 500.520018 252.505995 
L 501.523549 253.531906 
L 502.52708 254.318372 
L 503.530611 254.770109 
L 504.534142 254.395915 
L 505.537673 253.50282 
L 506.541204 253.71495 
L 507.544735 254.225881 
L 509.551797 253.907438 
L 511.558859 253.727944 
L 512.56239 253.870028 
L 513.565921 254.448833 
L 514.569452 254.739379 
L 515.572983 255.18237 
L 517.580045 255.76217 
L 518.583576 255.765678 
L 519.587107 255.551459 
L 520.590638 255.724482 
L 521.594169 256.027693 
L 522.5977 256.585605 
L 523.601231 257.295029 
L 524.604762 257.394813 
L 525.608293 257.274642 
L 527.615355 258.083953 
L 529.622417 258.400381 
L 530.625948 258.578226 
L 531.629479 258.597127 
L 533.636541 259.481561 
L 534.640072 259.953618 
L 535.643603 260.71426 
L 536.647134 261.104108 
L 537.650665 261.347484 
L 539.657727 262.772182 
L 539.657727 262.772182 
" clip-path="url(#p23ab907399)" style="fill: none; stroke: #8c564b; stroke-width: 1.5; stroke-linecap: square"/>
   </g>
   <g id="line2d_20">
    <path d="M 72.012273 53.680558 
L 73.015804 54.068432 
L 74.019335 56.431691 
L 75.022866 58.377039 
L 76.026397 55.204879 
L 77.029928 53.52035 
L 78.033459 53.808271 
L 79.03699 53.317957 
L 80.040521 51.88956 
L 81.044052 52.088815 
L 82.047583 54.193692 
L 83.051114 53.688605 
L 84.054645 51.853598 
L 85.058176 51.58849 
L 86.061707 52.17066 
L 87.065238 52.468902 
L 88.068769 51.477217 
L 89.0723 49.587026 
L 91.079362 50.880975 
L 92.082893 49.780951 
L 93.086424 49.22319 
L 94.089955 49.634445 
L 95.093486 49.224074 
L 96.097017 49.053462 
L 97.100548 49.216148 
L 99.10761 49.292876 
L 101.114672 48.779113 
L 102.118203 49.325747 
L 105.128796 50.420475 
L 106.132327 49.518222 
L 108.139389 48.485612 
L 109.14292 48.658469 
L 110.146451 49.345682 
L 111.149982 49.506255 
L 112.153513 49.554304 
L 114.160576 49.854136 
L 116.167638 49.499469 
L 118.174699 48.379712 
L 119.178231 48.747425 
L 120.181762 48.89428 
L 121.185293 48.760848 
L 122.188824 48.937673 
L 123.192355 48.889469 
L 124.195886 48.584455 
L 125.199417 48.75605 
L 128.21001 48.695414 
L 129.213541 48.479947 
L 131.220603 48.644385 
L 132.224134 48.15858 
L 133.227665 47.894409 
L 134.231196 47.752969 
L 135.234727 48.005457 
L 136.238258 47.991265 
L 137.241789 47.433596 
L 138.24532 47.249235 
L 142.259444 48.125901 
L 143.262975 48.612934 
L 144.266506 48.909103 
L 145.270037 48.881711 
L 146.273568 49.0758 
L 148.28063 50.080221 
L 150.287692 50.276154 
L 151.291223 50.579812 
L 152.294754 51.020056 
L 153.298285 51.1958 
L 155.305347 51.053891 
L 156.308878 51.064358 
L 157.312409 50.882041 
L 158.31594 50.997877 
L 160.323002 51.471604 
L 161.326533 51.533593 
L 165.340657 50.943779 
L 166.344188 50.588279 
L 167.347719 50.518906 
L 168.35125 50.596096 
L 170.358312 50.260376 
L 172.365375 50.336493 
L 176.379499 50.16857 
L 177.38303 50.404432 
L 178.386561 50.474479 
L 179.390092 50.318232 
L 184.407747 50.64173 
L 186.414809 50.53765 
L 187.41834 50.699234 
L 189.425402 50.802373 
L 190.428933 51.173596 
L 191.432464 51.295744 
L 192.435995 51.090983 
L 193.439526 51.36953 
L 194.443057 51.459778 
L 195.446588 51.29514 
L 197.45365 51.597952 
L 199.460712 51.493057 
L 201.467774 51.809911 
L 202.471305 51.65386 
L 203.474836 51.762752 
L 204.478367 51.991028 
L 207.48896 51.799838 
L 208.492491 52.226681 
L 209.496022 52.492748 
L 210.499553 52.50742 
L 211.503084 52.941242 
L 212.506615 53.184435 
L 213.510146 53.573555 
L 214.513677 53.767689 
L 215.517208 54.608779 
L 216.520739 55.632394 
L 217.52427 55.757363 
L 218.527801 55.689103 
L 219.531332 55.775612 
L 220.534863 56.051477 
L 221.538394 56.138884 
L 223.545457 55.00059 
L 225.552519 54.777066 
L 226.55605 54.914715 
L 228.563112 56.029976 
L 229.566643 56.532438 
L 232.577236 58.591862 
L 234.584298 60.099245 
L 236.59136 61.6296 
L 237.594891 62.617829 
L 238.598422 63.803274 
L 241.609015 66.474386 
L 242.612546 67.442688 
L 244.619608 69.021557 
L 246.62667 71.536334 
L 247.630201 72.664733 
L 248.633732 73.41948 
L 249.637263 74.827994 
L 251.644325 78.136845 
L 254.654918 84.598493 
L 255.658449 87.349256 
L 256.66198 91.63282 
L 257.665511 95.082198 
L 258.669042 97.716927 
L 259.672573 100.886023 
L 264.690228 113.893374 
L 267.700821 123.291876 
L 269.707883 131.181787 
L 270.711414 135.527816 
L 272.718476 147.095137 
L 275.729069 166.135535 
L 276.7326 168.90994 
L 277.736132 166.480204 
L 278.739663 166.647066 
L 279.743194 163.656855 
L 281.750256 170.255726 
L 282.753787 171.303867 
L 283.757318 171.476105 
L 284.760849 168.399799 
L 285.76438 162.215621 
L 286.767911 154.155244 
L 287.771442 148.204721 
L 289.778504 140.329243 
L 290.782035 136.749003 
L 291.785566 135.296485 
L 292.789097 134.967791 
L 294.796159 133.0749 
L 295.79969 134.770498 
L 296.803221 140.940241 
L 298.810283 158.506481 
L 299.813814 167.277727 
L 300.817345 171.885404 
L 301.820876 168.362141 
L 302.824407 164.207386 
L 303.827938 161.533439 
L 305.835 154.474061 
L 309.849124 142.498094 
L 312.859717 131.830008 
L 313.863248 129.089857 
L 314.866779 124.935244 
L 315.87031 119.475532 
L 317.877372 106.635669 
L 318.880903 101.929483 
L 320.887965 97.398855 
L 322.895027 90.296058 
L 323.898558 89.603426 
L 324.902089 88.585132 
L 325.90562 90.980696 
L 326.909151 94.774793 
L 327.912682 94.024764 
L 329.919745 87.856163 
L 330.923275 86.621491 
L 332.930338 90.812819 
L 333.933868 92.303895 
L 334.9374 93.484376 
L 335.940931 94.336853 
L 336.944462 94.924269 
L 337.947993 94.886244 
L 338.951524 94.391783 
L 339.955055 94.284864 
L 341.962117 94.536555 
L 343.969179 95.080005 
L 346.979772 95.033904 
L 348.986834 94.501608 
L 349.990365 93.928163 
L 350.993896 93.225738 
L 351.997427 92.327614 
L 353.000958 91.17018 
L 354.004489 89.82604 
L 355.00802 88.250605 
L 356.011551 86.424653 
L 357.015082 84.01094 
L 359.022144 78.192957 
L 360.025675 74.86876 
L 362.032737 67.011808 
L 365.04333 54.253363 
L 366.046861 51.451157 
L 367.050392 50.125386 
L 368.053923 49.741369 
L 371.064516 49.830481 
L 372.068047 49.701992 
L 373.071578 49.826458 
L 374.075109 50.123485 
L 376.082171 50.223392 
L 380.096295 50.159569 
L 382.103357 50.388746 
L 384.110419 50.78164 
L 385.11395 50.70399 
L 386.117481 50.759727 
L 387.121013 51.073309 
L 389.128075 51.344691 
L 390.131606 51.675655 
L 391.135137 51.815963 
L 393.142199 51.656456 
L 394.14573 51.936952 
L 396.152792 52.85089 
L 397.156323 53.308842 
L 398.159854 53.465999 
L 400.166916 54.608595 
L 401.170447 54.558338 
L 403.177509 54.313144 
L 405.184571 54.481802 
L 406.188102 54.429166 
L 408.195164 54.732373 
L 409.198695 54.976823 
L 412.209288 55.179337 
L 414.21635 55.577468 
L 415.219881 55.741734 
L 416.223412 56.099614 
L 417.226943 56.297972 
L 418.230474 56.309384 
L 420.237536 56.596242 
L 421.241067 56.668568 
L 422.244598 56.895427 
L 424.25166 56.823647 
L 426.258722 57.23508 
L 428.265784 57.068006 
L 429.269315 57.398378 
L 430.272846 57.588988 
L 431.276377 57.61258 
L 433.283439 57.975113 
L 437.297563 57.680418 
L 438.301094 57.775529 
L 439.304626 57.670632 
L 441.311688 57.069115 
L 442.315219 56.52954 
L 444.322281 56.121987 
L 445.325812 55.539605 
L 446.329343 55.243227 
L 447.332874 55.08152 
L 449.339936 53.956095 
L 450.343467 53.667639 
L 451.346998 53.522394 
L 453.35406 52.674808 
L 454.357591 52.49091 
L 455.361122 52.465236 
L 458.371715 52.032648 
L 459.375246 52.015064 
L 460.378777 51.750763 
L 461.382308 51.20691 
L 462.385839 51.075395 
L 464.392901 51.450338 
L 466.399963 51.22056 
L 467.403494 51.422251 
L 468.407025 51.388922 
L 469.410556 51.180431 
L 470.414087 51.124888 
L 472.421149 51.668507 
L 473.42468 51.594293 
L 474.428211 51.825826 
L 475.431742 52.394044 
L 476.435273 51.928042 
L 477.438804 52.121232 
L 478.442335 53.041295 
L 479.445866 53.083691 
L 480.449397 53.398899 
L 481.452928 53.868152 
L 482.456459 53.88383 
L 483.45999 54.600222 
L 485.467052 55.011874 
L 486.470583 55.397488 
L 487.474114 55.247535 
L 488.477645 55.326867 
L 489.481176 55.871826 
L 490.484707 55.867541 
L 492.491769 55.010369 
L 494.498831 55.134028 
L 495.502362 54.664627 
L 496.505894 54.533497 
L 497.509424 54.052928 
L 498.512956 53.311913 
L 499.516487 52.75599 
L 500.520018 51.937846 
L 501.523549 51.407024 
L 502.52708 51.095582 
L 503.530611 50.495936 
L 504.534142 49.627277 
L 505.537673 48.936089 
L 507.544735 45.403185 
L 509.551797 43.202327 
L 511.558859 40.897489 
L 512.56239 39.798897 
L 513.565921 38.977956 
L 514.569452 37.659455 
L 515.572983 36.70007 
L 521.594169 33.375288 
L 523.601231 31.932123 
L 524.604762 31.865248 
L 525.608293 31.630442 
L 527.615355 30.139089 
L 528.618886 29.618394 
L 529.622417 29.668459 
L 530.625948 29.053018 
L 532.63301 28.4116 
L 533.636541 27.804403 
L 534.640072 27.329663 
L 537.650665 27.340548 
L 538.654196 27.018658 
L 539.657727 26.542017 
L 539.657727 26.542017 
" clip-path="url(#p23ab907399)" style="fill: none; stroke: #e377c2; stroke-width: 1.5; stroke-linecap: square"/>
   </g>
   <g id="line2d_21">
    <path d="M 72.012273 40.339791 
L 73.015804 36.289038 
L 74.019335 39.494874 
L 75.022866 38.884837 
L 76.026397 39.710245 
L 77.029928 40.307775 
L 78.033459 41.03697 
L 79.03699 39.99701 
L 80.040521 38.498648 
L 81.044052 40.258683 
L 82.047583 41.66375 
L 83.051114 43.34934 
L 84.054645 44.446206 
L 85.058176 46.408605 
L 86.061707 46.845356 
L 87.065238 45.757061 
L 88.068769 45.232381 
L 89.0723 46.293768 
L 90.075831 46.105113 
L 91.079362 45.035726 
L 92.082893 45.259862 
L 94.089955 47.519065 
L 95.093486 47.852523 
L 96.097017 48.330346 
L 97.100548 49.389419 
L 98.104079 49.778527 
L 99.10761 50.022603 
L 100.111141 49.816931 
L 101.114672 49.351023 
L 102.118203 49.22809 
L 103.121734 49.460876 
L 104.125265 49.4518 
L 105.128796 48.250182 
L 106.132327 48.304598 
L 107.135858 49.388782 
L 108.139389 49.608527 
L 109.14292 49.559628 
L 110.146451 49.983131 
L 111.149982 50.56283 
L 114.160576 50.306308 
L 116.167638 50.898985 
L 117.171169 50.882692 
L 118.174699 51.076385 
L 119.178231 51.492775 
L 120.181762 52.231854 
L 121.185293 52.544259 
L 122.188824 52.727046 
L 123.192355 53.091624 
L 124.195886 53.863698 
L 125.199417 54.445645 
L 126.202948 54.545144 
L 128.21001 55.741345 
L 129.213541 55.837248 
L 131.220603 56.666148 
L 132.224134 56.484675 
L 133.227665 56.734505 
L 134.231196 57.244784 
L 135.234727 57.227912 
L 136.238258 57.338693 
L 138.24532 58.300136 
L 139.248851 58.599139 
L 140.252382 58.61182 
L 141.255913 58.44147 
L 142.259444 58.765764 
L 143.262975 59.216538 
L 148.28063 59.354085 
L 150.287692 59.982893 
L 151.291223 60.106304 
L 154.301816 61.360528 
L 157.312409 62.177389 
L 158.31594 62.379937 
L 160.323002 63.099293 
L 161.326533 63.835502 
L 162.330064 64.342924 
L 166.344188 64.968559 
L 167.347719 65.576034 
L 168.35125 65.976108 
L 170.358312 66.443612 
L 171.361844 66.367481 
L 172.365375 66.011999 
L 173.368906 66.027604 
L 175.375968 66.816491 
L 177.38303 67.174268 
L 178.386561 67.631089 
L 180.393623 68.225065 
L 182.400685 69.264646 
L 183.404216 69.522737 
L 185.411278 69.858011 
L 186.414809 70.139871 
L 187.41834 70.568715 
L 189.425402 71.126761 
L 192.435995 72.817719 
L 193.439526 72.658034 
L 194.443057 71.565153 
L 195.446588 70.691646 
L 196.450119 70.04453 
L 197.45365 69.223627 
L 198.457181 67.979101 
L 200.464243 65.08519 
L 202.471305 62.796729 
L 203.474836 61.896191 
L 206.485429 61.384447 
L 211.503084 61.079715 
L 212.506615 60.710077 
L 214.513677 60.244542 
L 217.52427 60.378876 
L 218.527801 60.16638 
L 219.531332 60.284165 
L 222.541925 61.310809 
L 224.548987 61.608832 
L 226.55605 62.207383 
L 227.559581 62.772205 
L 228.563112 63.118385 
L 230.570174 64.176716 
L 231.573705 64.873875 
L 237.594891 69.868795 
L 239.601953 71.366068 
L 246.62667 78.461788 
L 248.633732 80.80515 
L 250.640794 84.151365 
L 251.644325 85.784588 
L 254.654918 92.549071 
L 255.658449 95.328531 
L 256.66198 99.458421 
L 257.665511 102.873081 
L 258.669042 105.571755 
L 260.676104 111.69618 
L 264.690228 122.850805 
L 267.700821 132.194192 
L 269.707883 139.874935 
L 270.711414 144.131265 
L 272.718476 155.349027 
L 275.729069 173.49493 
L 276.7326 176.323318 
L 277.736132 174.336931 
L 278.739663 175.120594 
L 279.743194 172.19038 
L 281.750256 178.532294 
L 282.753787 179.64012 
L 283.757318 179.962535 
L 284.760849 177.373341 
L 285.76438 172.294699 
L 286.767911 165.553181 
L 287.771442 160.317217 
L 288.774973 156.806399 
L 290.782035 150.909234 
L 291.785566 149.911214 
L 292.789097 149.830753 
L 294.796159 148.958318 
L 295.79969 150.866569 
L 296.803221 156.669286 
L 299.813814 180.932473 
L 300.817345 185.340534 
L 301.820876 182.601224 
L 302.824407 179.24265 
L 303.827938 177.213966 
L 305.835 171.46133 
L 306.838531 169.185411 
L 307.842062 167.278959 
L 309.849124 162.508788 
L 312.859717 154.347353 
L 313.863248 152.807569 
L 314.866779 149.481742 
L 315.87031 145.056811 
L 317.877372 134.325135 
L 318.880903 130.440423 
L 319.884434 128.326453 
L 320.887965 126.725215 
L 322.895027 122.509984 
L 323.898558 123.132799 
L 324.902089 123.149065 
L 325.90562 125.216837 
L 326.909151 128.593005 
L 327.912682 128.00732 
L 328.916213 125.52026 
L 329.919745 123.702337 
L 330.923275 123.305551 
L 332.930338 128.174296 
L 333.933868 130.344149 
L 336.944462 135.791405 
L 337.947993 137.174371 
L 338.951524 138.013776 
L 339.955055 138.420277 
L 340.958586 138.525257 
L 343.969179 138.330621 
L 344.97271 138.142417 
L 349.990365 138.69169 
L 350.993896 138.639164 
L 351.997427 138.348201 
L 354.004489 137.159104 
L 355.00802 136.286545 
L 356.011551 135.224334 
L 358.018613 132.10815 
L 359.022144 130.350934 
L 360.025675 128.291215 
L 362.032737 123.110504 
L 364.039799 117.51356 
L 365.04333 115.089991 
L 366.046861 113.523716 
L 367.050392 113.191595 
L 368.053923 113.833434 
L 369.057454 114.794641 
L 370.060985 115.58067 
L 371.064516 116.10629 
L 374.075109 118.079356 
L 375.07864 119.153494 
L 376.082171 120.58418 
L 381.099826 128.766265 
L 382.103357 131.751962 
L 383.106888 136.090452 
L 384.110419 141.35582 
L 386.117481 152.977946 
L 387.121013 156.461066 
L 389.128075 160.702967 
L 390.131606 163.910444 
L 391.135137 165.555207 
L 392.138668 164.663773 
L 393.142199 162.711552 
L 394.14573 161.496098 
L 396.152792 159.83128 
L 397.156323 159.629608 
L 398.159854 160.22411 
L 399.163385 161.309137 
L 400.166916 162.214756 
L 401.170447 161.157597 
L 402.173978 158.648451 
L 403.177509 155.474011 
L 404.18104 153.588803 
L 407.191633 149.831527 
L 408.195164 149.466732 
L 409.198695 148.913327 
L 410.202226 148.773938 
L 411.205757 148.233791 
L 412.209288 147.831923 
L 413.212819 148.324472 
L 414.21635 148.45948 
L 415.219881 148.410484 
L 416.223412 148.774883 
L 417.226943 149.533327 
L 418.230474 150.115245 
L 419.234005 150.125161 
L 420.237536 149.973893 
L 421.241067 150.422253 
L 422.244598 151.722186 
L 423.248129 152.374043 
L 424.25166 152.489374 
L 425.255191 152.78561 
L 426.258722 154.161622 
L 427.262253 155.190196 
L 429.269315 156.23609 
L 430.272846 157.092492 
L 431.276377 158.308509 
L 432.279908 158.991091 
L 433.283439 159.309054 
L 439.304626 162.296324 
L 440.308156 162.365481 
L 442.315219 162.879944 
L 443.31875 163.467167 
L 444.322281 163.901644 
L 445.325812 163.587627 
L 446.329343 164.166334 
L 447.332874 164.368611 
L 448.336405 164.021724 
L 449.339936 164.079934 
L 450.343467 164.777915 
L 451.346998 166.006924 
L 452.350529 166.386703 
L 453.35406 166.566222 
L 454.357591 166.3621 
L 455.361122 166.764997 
L 456.364653 167.49746 
L 457.368184 167.41929 
L 458.371715 167.590494 
L 459.375246 168.843794 
L 460.378777 169.222896 
L 461.382308 168.774432 
L 462.385839 169.195145 
L 463.38937 170.305736 
L 464.392901 171.627941 
L 465.396432 172.201252 
L 466.399963 172.181128 
L 468.407025 174.928498 
L 469.410556 174.956399 
L 470.414087 174.46452 
L 471.417618 175.026195 
L 472.421149 176.070123 
L 473.42468 176.59889 
L 474.428211 176.663106 
L 475.431742 177.418576 
L 476.435273 178.797466 
L 477.438804 179.411624 
L 478.442335 180.242466 
L 479.445866 180.537038 
L 480.449397 180.551148 
L 481.452928 181.417006 
L 482.456459 182.594199 
L 483.45999 183.414062 
L 484.463521 184.592598 
L 486.470583 185.317681 
L 487.474114 186.734985 
L 489.481176 188.595399 
L 491.488238 189.664848 
L 492.491769 190.62289 
L 493.495301 190.862488 
L 494.498831 190.780448 
L 495.502362 191.165173 
L 496.505894 191.677949 
L 499.516487 192.509187 
L 501.523549 193.873588 
L 503.530611 194.51668 
L 504.534142 194.387899 
L 505.537673 193.158096 
L 506.541204 192.887122 
L 507.544735 193.406307 
L 509.551797 193.566696 
L 510.555328 193.072082 
L 511.558859 192.432878 
L 512.56239 192.237092 
L 514.569452 192.54414 
L 515.572983 192.775334 
L 516.576514 192.79402 
L 517.580045 193.204502 
L 519.587107 193.210298 
L 520.590638 193.350359 
L 521.594169 193.708587 
L 522.5977 194.192728 
L 523.601231 194.233504 
L 524.604762 194.407572 
L 525.608293 194.806543 
L 527.615355 195.088203 
L 529.622417 195.887823 
L 532.63301 195.966782 
L 534.640072 197.003658 
L 536.647134 198.162466 
L 537.650665 198.655383 
L 539.657727 200.084725 
L 539.657727 200.084725 
" clip-path="url(#p23ab907399)" style="fill: none; stroke: #7f7f7f; stroke-width: 1.5; stroke-linecap: square"/>
   </g>
   <g id="patch_3">
    <path d="M 48.63 274.668 
L 48.63 12.96 
" style="fill: none; stroke: #000000; stroke-width: 0.8; stroke-linejoin: miter; stroke-linecap: square"/>
   </g>
   <g id="patch_4">
    <path d="M 563.04 274.668 
L 563.04 12.96 
" style="fill: none; stroke: #000000; stroke-width: 0.8; stroke-linejoin: miter; stroke-linecap: square"/>
   </g>
   <g id="patch_5">
    <path d="M 48.63 274.668 
L 563.04 274.668 
" style="fill: none; stroke: #000000; stroke-width: 0.8; stroke-linejoin: miter; stroke-linecap: square"/>
   </g>
   <g id="patch_6">
    <path d="M 48.63 12.96 
L 563.04 12.96 
" style="fill: none; stroke: #000000; stroke-width: 0.8; stroke-linejoin: miter; stroke-linecap: square"/>
   </g>
   <g id="legend_1">
    <g id="patch_7">
     <path d="M 57.03 268.668 
L 162.585 268.668 
Q 164.985 268.668 164.985 266.268 
L 164.985 123.888 
Q 164.985 121.488 162.585 121.488 
L 57.03 121.488 
Q 54.63 121.488 54.63 123.888 
L 54.63 266.268 
Q 54.63 268.668 57.03 268.668 
z
" style="fill: #ffffff; opacity: 0.8; stroke: #cccccc; stroke-linejoin: miter"/>
    </g>
    <g id="line2d_22">
     <path d="M 59.43 131.206125 
L 71.43 131.206125 
L 83.43 131.206125 
" style="fill: none; stroke: #1f77b4; stroke-width: 1.5; stroke-linecap: square"/>
    </g>
    <g id="text_16">
     <!-- FTD24_11a -->
     <g transform="translate(93.03 135.406125) scale(0.12 -0.12)">
      <defs>
       <path id="DejaVuSans-46" d="M 628 4666 
L 3309 4666 
L 3309 4134 
L 1259 4134 
L 1259 2759 
L 3109 2759 
L 3109 2228 
L 1259 2228 
L 1259 0 
L 628 0 
L 628 4666 
z
" transform="scale(0.015625)"/>
       <path id="DejaVuSans-44" d="M 1259 4147 
L 1259 519 
L 2022 519 
Q 2988 519 3436 956 
Q 3884 1394 3884 2338 
Q 3884 3275 3436 3711 
Q 2988 4147 2022 4147 
L 1259 4147 
z
M 628 4666 
L 1925 4666 
Q 3281 4666 3915 4102 
Q 4550 3538 4550 2338 
Q 4550 1131 3912 565 
Q 3275 0 1925 0 
L 628 0 
L 628 4666 
z
" transform="scale(0.015625)"/>
       <path id="DejaVuSans-5f" d="M 3263 -1063 
L 3263 -1509 
L -63 -1509 
L -63 -1063 
L 3263 -1063 
z
" transform="scale(0.015625)"/>
      </defs>
      <use xlink:href="#DejaVuSans-46"/>
      <use xlink:href="#DejaVuSans-54" x="55.769531"/>
      <use xlink:href="#DejaVuSans-44" x="116.853516"/>
      <use xlink:href="#DejaVuSans-32" x="193.855469"/>
      <use xlink:href="#DejaVuSans-34" x="257.478516"/>
      <use xlink:href="#DejaVuSans-5f" x="321.101562"/>
      <use xlink:href="#DejaVuSans-31" x="371.101562"/>
      <use xlink:href="#DejaVuSans-31" x="434.724609"/>
      <use xlink:href="#DejaVuSans-61" x="498.347656"/>
     </g>
    </g>
    <g id="line2d_23">
     <path d="M 59.43 149.153625 
L 71.43 149.153625 
L 83.43 149.153625 
" style="fill: none; stroke: #ff7f0e; stroke-width: 1.5; stroke-linecap: square"/>
    </g>
    <g id="text_17">
     <!-- FTD24_12a -->
     <g transform="translate(93.03 153.353625) scale(0.12 -0.12)">
      <use xlink:href="#DejaVuSans-46"/>
      <use xlink:href="#DejaVuSans-54" x="55.769531"/>
      <use xlink:href="#DejaVuSans-44" x="116.853516"/>
      <use xlink:href="#DejaVuSans-32" x="193.855469"/>
      <use xlink:href="#DejaVuSans-34" x="257.478516"/>
      <use xlink:href="#DejaVuSans-5f" x="321.101562"/>
      <use xlink:href="#DejaVuSans-31" x="371.101562"/>
      <use xlink:href="#DejaVuSans-32" x="434.724609"/>
      <use xlink:href="#DejaVuSans-61" x="498.347656"/>
     </g>
    </g>
    <g id="line2d_24">
     <path d="M 59.43 167.101125 
L 71.43 167.101125 
L 83.43 167.101125 
" style="fill: none; stroke: #2ca02c; stroke-width: 1.5; stroke-linecap: square"/>
    </g>
    <g id="text_18">
     <!-- FTD24_13a -->
     <g transform="translate(93.03 171.301125) scale(0.12 -0.12)">
      <use xlink:href="#DejaVuSans-46"/>
      <use xlink:href="#DejaVuSans-54" x="55.769531"/>
      <use xlink:href="#DejaVuSans-44" x="116.853516"/>
      <use xlink:href="#DejaVuSans-32" x="193.855469"/>
      <use xlink:href="#DejaVuSans-34" x="257.478516"/>
      <use xlink:href="#DejaVuSans-5f" x="321.101562"/>
      <use xlink:href="#DejaVuSans-31" x="371.101562"/>
      <use xlink:href="#DejaVuSans-33" x="434.724609"/>
      <use xlink:href="#DejaVuSans-61" x="498.347656"/>
     </g>
    </g>
    <g id="line2d_25">
     <path d="M 59.43 185.048625 
L 71.43 185.048625 
L 83.43 185.048625 
" style="fill: none; stroke: #d62728; stroke-width: 1.5; stroke-linecap: square"/>
    </g>
    <g id="text_19">
     <!-- FTD24_14a -->
     <g transform="translate(93.03 189.248625) scale(0.12 -0.12)">
      <use xlink:href="#DejaVuSans-46"/>
      <use xlink:href="#DejaVuSans-54" x="55.769531"/>
      <use xlink:href="#DejaVuSans-44" x="116.853516"/>
      <use xlink:href="#DejaVuSans-32" x="193.855469"/>
      <use xlink:href="#DejaVuSans-34" x="257.478516"/>
      <use xlink:href="#DejaVuSans-5f" x="321.101562"/>
      <use xlink:href="#DejaVuSans-31" x="371.101562"/>
      <use xlink:href="#DejaVuSans-34" x="434.724609"/>
      <use xlink:href="#DejaVuSans-61" x="498.347656"/>
     </g>
    </g>
    <g id="line2d_26">
     <path d="M 59.43 202.996125 
L 71.43 202.996125 
L 83.43 202.996125 
" style="fill: none; stroke: #9467bd; stroke-width: 1.5; stroke-linecap: square"/>
    </g>
    <g id="text_20">
     <!-- FTD24_16a -->
     <g transform="translate(93.03 207.196125) scale(0.12 -0.12)">
      <use xlink:href="#DejaVuSans-46"/>
      <use xlink:href="#DejaVuSans-54" x="55.769531"/>
      <use xlink:href="#DejaVuSans-44" x="116.853516"/>
      <use xlink:href="#DejaVuSans-32" x="193.855469"/>
      <use xlink:href="#DejaVuSans-34" x="257.478516"/>
      <use xlink:href="#DejaVuSans-5f" x="321.101562"/>
      <use xlink:href="#DejaVuSans-31" x="371.101562"/>
      <use xlink:href="#DejaVuSans-36" x="434.724609"/>
      <use xlink:href="#DejaVuSans-61" x="498.347656"/>
     </g>
    </g>
    <g id="line2d_27">
     <path d="M 59.43 220.943625 
L 71.43 220.943625 
L 83.43 220.943625 
" style="fill: none; stroke: #8c564b; stroke-width: 1.5; stroke-linecap: square"/>
    </g>
    <g id="text_21">
     <!-- FTD24_17a -->
     <g transform="translate(93.03 225.143625) scale(0.12 -0.12)">
      <use xlink:href="#DejaVuSans-46"/>
      <use xlink:href="#DejaVuSans-54" x="55.769531"/>
      <use xlink:href="#DejaVuSans-44" x="116.853516"/>
      <use xlink:href="#DejaVuSans-32" x="193.855469"/>
      <use xlink:href="#DejaVuSans-34" x="257.478516"/>
      <use xlink:href="#DejaVuSans-5f" x="321.101562"/>
      <use xlink:href="#DejaVuSans-31" x="371.101562"/>
      <use xlink:href="#DejaVuSans-37" x="434.724609"/>
      <use xlink:href="#DejaVuSans-61" x="498.347656"/>
     </g>
    </g>
    <g id="line2d_28">
     <path d="M 59.43 238.891125 
L 71.43 238.891125 
L 83.43 238.891125 
" style="fill: none; stroke: #e377c2; stroke-width: 1.5; stroke-linecap: square"/>
    </g>
    <g id="text_22">
     <!-- FTD24_19a -->
     <g transform="translate(93.03 243.091125) scale(0.12 -0.12)">
      <defs>
       <path id="DejaVuSans-39" d="M 703 97 
L 703 672 
Q 941 559 1184 500 
Q 1428 441 1663 441 
Q 2288 441 2617 861 
Q 2947 1281 2994 2138 
Q 2813 1869 2534 1725 
Q 2256 1581 1919 1581 
Q 1219 1581 811 2004 
Q 403 2428 403 3163 
Q 403 3881 828 4315 
Q 1253 4750 1959 4750 
Q 2769 4750 3195 4129 
Q 3622 3509 3622 2328 
Q 3622 1225 3098 567 
Q 2575 -91 1691 -91 
Q 1453 -91 1209 -44 
Q 966 3 703 97 
z
M 1959 2075 
Q 2384 2075 2632 2365 
Q 2881 2656 2881 3163 
Q 2881 3666 2632 3958 
Q 2384 4250 1959 4250 
Q 1534 4250 1286 3958 
Q 1038 3666 1038 3163 
Q 1038 2656 1286 2365 
Q 1534 2075 1959 2075 
z
" transform="scale(0.015625)"/>
      </defs>
      <use xlink:href="#DejaVuSans-46"/>
      <use xlink:href="#DejaVuSans-54" x="55.769531"/>
      <use xlink:href="#DejaVuSans-44" x="116.853516"/>
      <use xlink:href="#DejaVuSans-32" x="193.855469"/>
      <use xlink:href="#DejaVuSans-34" x="257.478516"/>
      <use xlink:href="#DejaVuSans-5f" x="321.101562"/>
      <use xlink:href="#DejaVuSans-31" x="371.101562"/>
      <use xlink:href="#DejaVuSans-39" x="434.724609"/>
      <use xlink:href="#DejaVuSans-61" x="498.347656"/>
     </g>
    </g>
    <g id="line2d_29">
     <path d="M 59.43 256.838625 
L 71.43 256.838625 
L 83.43 256.838625 
" style="fill: none; stroke: #7f7f7f; stroke-width: 1.5; stroke-linecap: square"/>
    </g>
    <g id="text_23">
     <!-- FTD24_20a -->
     <g transform="translate(93.03 261.038625) scale(0.12 -0.12)">
      <use xlink:href="#DejaVuSans-46"/>
      <use xlink:href="#DejaVuSans-54" x="55.769531"/>
      <use xlink:href="#DejaVuSans-44" x="116.853516"/>
      <use xlink:href="#DejaVuSans-32" x="193.855469"/>
      <use xlink:href="#DejaVuSans-34" x="257.478516"/>
      <use xlink:href="#DejaVuSans-5f" x="321.101562"/>
      <use xlink:href="#DejaVuSans-32" x="371.101562"/>
      <use xlink:href="#DejaVuSans-30" x="434.724609"/>
      <use xlink:href="#DejaVuSans-61" x="498.347656"/>
     </g>
    </g>
   </g>
  </g>
 </g>
 <defs>
  <clipPath id="p23ab907399">
   <rect x="48.63" y="12.96" width="514.41" height="261.708"/>
  </clipPath>
 </defs>
</svg>
