<?xml version="1.0" encoding="utf-8" standalone="no"?>
<!DOCTYPE svg PUBLIC "-//W3C//DTD SVG 1.1//EN"
  "http://www.w3.org/Graphics/SVG/1.1/DTD/svg11.dtd">
<svg xmlns:xlink="http://www.w3.org/1999/xlink" width="576pt" height="396pt" viewBox="0 0 576 396" xmlns="http://www.w3.org/2000/svg" version="1.1">
 <metadata>
  <rdf:RDF xmlns:dc="http://purl.org/dc/elements/1.1/" xmlns:cc="http://creativecommons.org/ns#" xmlns:rdf="http://www.w3.org/1999/02/22-rdf-syntax-ns#">
   <cc:Work>
    <dc:type rdf:resource="http://purl.org/dc/dcmitype/StillImage"/>
    <dc:date>2026-06-27T07:46:59.285536</dc:date>
    <dc:format>image/svg+xml</dc:format>
    <dc:creator>
     <cc:Agent>
      <dc:title>Matplotlib v3.8.2, https://matplotlib.org/</dc:title>
     </cc:Agent>
    </dc:creator>
   </cc:Work>
  </rdf:RDF>
 </metadata>
 <defs>
  <style type="text/css">*{stroke-linejoin: round; stroke-linecap: butt}</style>
 </defs>
 <g id="figure_1">
  <g id="patch_1">
   <path d="M 0 396 
L 576 396 
L 576 0 
L 0 0 
z
" style="fill: #ffffff"/>
  </g>
  <g id="axes_1">
   <g id="patch_2">
    <path d="M 60.582 346.668 
L 563.04 346.668 
L 563.04 12.96 
L 60.582 12.96 
z
" style="fill: #ffffff"/>
   </g>
   <g id="matplotlib.axis_1">
    <g id="xtick_1">
     <g id="line2d_1">
      <defs>
       <path id="mce13ef0b01" d="M 0 0 
L 0 -3.5 
" style="stroke: #000000; stroke-width: 0.8"/>
      </defs>
      <g>
       <use xlink:href="#mce13ef0b01" x="74.130668" y="346.668" style="stroke: #000000; stroke-width: 0.8"/>
      </g>
     </g>
     <g id="text_1">
      <!-- 1050 -->
      <g transform="translate(58.860668 359.286125) scale(0.12 -0.12)">
       <defs>
        <path id="DejaVuSans-31" d="M 794 531 
L 1825 531 
L 1825 4091 
L 703 3866 
L 703 4441 
L 1819 4666 
L 2450 4666 
L 2450 531 
L 3481 531 
L 3481 0 
L 794 0 
L 794 531 
z
" transform="scale(0.015625)"/>
        <path id="DejaVuSans-30" d="M 2034 4250 
Q 1547 4250 1301 3770 
Q 1056 3291 1056 2328 
Q 1056 1369 1301 889 
Q 1547 409 2034 409 
Q 2525 409 2770 889 
Q 3016 1369 3016 2328 
Q 3016 3291 2770 3770 
Q 2525 4250 2034 4250 
z
M 2034 4750 
Q 2819 4750 3233 4129 
Q 3647 3509 3647 2328 
Q 3647 1150 3233 529 
Q 2819 -91 2034 -91 
Q 1250 -91 836 529 
Q 422 1150 422 2328 
Q 422 3509 836 4129 
Q 1250 4750 2034 4750 
z
" transform="scale(0.015625)"/>
        <path id="DejaVuSans-35" d="M 691 4666 
L 3169 4666 
L 3169 4134 
L 1269 4134 
L 1269 2991 
Q 1406 3038 1543 3061 
Q 1681 3084 1819 3084 
Q 2600 3084 3056 2656 
Q 3513 2228 3513 1497 
Q 3513 744 3044 326 
Q 2575 -91 1722 -91 
Q 1428 -91 1123 -41 
Q 819 9 494 109 
L 494 744 
Q 775 591 1075 516 
Q 1375 441 1709 441 
Q 2250 441 2565 725 
Q 2881 1009 2881 1497 
Q 2881 1984 2565 2268 
Q 2250 2553 1709 2553 
Q 1456 2553 1204 2497 
Q 953 2441 691 2322 
L 691 4666 
z
" transform="scale(0.015625)"/>
       </defs>
       <use xlink:href="#DejaVuSans-31"/>
       <use xlink:href="#DejaVuSans-30" x="63.623047"/>
       <use xlink:href="#DejaVuSans-35" x="127.246094"/>
       <use xlink:href="#DejaVuSans-30" x="190.869141"/>
      </g>
     </g>
    </g>
    <g id="xtick_2">
     <g id="line2d_2">
      <g>
       <use xlink:href="#mce13ef0b01" x="141.414311" y="346.668" style="stroke: #000000; stroke-width: 0.8"/>
      </g>
     </g>
     <g id="text_2">
      <!-- 1100 -->
      <g transform="translate(126.144311 359.286125) scale(0.12 -0.12)">
       <use xlink:href="#DejaVuSans-31"/>
       <use xlink:href="#DejaVuSans-31" x="63.623047"/>
       <use xlink:href="#DejaVuSans-30" x="127.246094"/>
       <use xlink:href="#DejaVuSans-30" x="190.869141"/>
      </g>
     </g>
    </g>
    <g id="xtick_3">
     <g id="line2d_3">
      <g>
       <use xlink:href="#mce13ef0b01" x="208.697953" y="346.668" style="stroke: #000000; stroke-width: 0.8"/>
      </g>
     </g>
     <g id="text_3">
      <!-- 1150 -->
      <g transform="translate(193.427953 359.286125) scale(0.12 -0.12)">
       <use xlink:href="#DejaVuSans-31"/>
       <use xlink:href="#DejaVuSans-31" x="63.623047"/>
       <use xlink:href="#DejaVuSans-35" x="127.246094"/>
       <use xlink:href="#DejaVuSans-30" x="190.869141"/>
      </g>
     </g>
    </g>
    <g id="xtick_4">
     <g id="line2d_4">
      <g>
       <use xlink:href="#mce13ef0b01" x="275.981595" y="346.668" style="stroke: #000000; stroke-width: 0.8"/>
      </g>
     </g>
     <g id="text_4">
      <!-- 1200 -->
      <g transform="translate(260.711595 359.286125) scale(0.12 -0.12)">
       <defs>
        <path id="DejaVuSans-32" d="M 1228 531 
L 3431 531 
L 3431 0 
L 469 0 
L 469 531 
Q 828 903 1448 1529 
Q 2069 2156 2228 2338 
Q 2531 2678 2651 2914 
Q 2772 3150 2772 3378 
Q 2772 3750 2511 3984 
Q 2250 4219 1831 4219 
Q 1534 4219 1204 4116 
Q 875 4013 500 3803 
L 500 4441 
Q 881 4594 1212 4672 
Q 1544 4750 1819 4750 
Q 2544 4750 2975 4387 
Q 3406 4025 3406 3419 
Q 3406 3131 3298 2873 
Q 3191 2616 2906 2266 
Q 2828 2175 2409 1742 
Q 1991 1309 1228 531 
z
" transform="scale(0.015625)"/>
       </defs>
       <use xlink:href="#DejaVuSans-31"/>
       <use xlink:href="#DejaVuSans-32" x="63.623047"/>
       <use xlink:href="#DejaVuSans-30" x="127.246094"/>
       <use xlink:href="#DejaVuSans-30" x="190.869141"/>
      </g>
     </g>
    </g>
    <g id="xtick_5">
     <g id="line2d_5">
      <g>
       <use xlink:href="#mce13ef0b01" x="343.265237" y="346.668" style="stroke: #000000; stroke-width: 0.8"/>
      </g>
     </g>
     <g id="text_5">
      <!-- 1250 -->
      <g transform="translate(327.995237 359.286125) scale(0.12 -0.12)">
       <use xlink:href="#DejaVuSans-31"/>
       <use xlink:href="#DejaVuSans-32" x="63.623047"/>
       <use xlink:href="#DejaVuSans-35" x="127.246094"/>
       <use xlink:href="#DejaVuSans-30" x="190.869141"/>
      </g>
     </g>
    </g>
    <g id="xtick_6">
     <g id="line2d_6">
      <g>
       <use xlink:href="#mce13ef0b01" x="410.548879" y="346.668" style="stroke: #000000; stroke-width: 0.8"/>
      </g>
     </g>
     <g id="text_6">
      <!-- 1300 -->
      <g transform="translate(395.278879 359.286125) scale(0.12 -0.12)">
       <defs>
        <path id="DejaVuSans-33" d="M 2597 2516 
Q 3050 2419 3304 2112 
Q 3559 1806 3559 1356 
Q 3559 666 3084 287 
Q 2609 -91 1734 -91 
Q 1441 -91 1130 -33 
Q 819 25 488 141 
L 488 750 
Q 750 597 1062 519 
Q 1375 441 1716 441 
Q 2309 441 2620 675 
Q 2931 909 2931 1356 
Q 2931 1769 2642 2001 
Q 2353 2234 1838 2234 
L 1294 2234 
L 1294 2753 
L 1863 2753 
Q 2328 2753 2575 2939 
Q 2822 3125 2822 3475 
Q 2822 3834 2567 4026 
Q 2313 4219 1838 4219 
Q 1578 4219 1281 4162 
Q 984 4106 628 3988 
L 628 4550 
Q 988 4650 1302 4700 
Q 1616 4750 1894 4750 
Q 2613 4750 3031 4423 
Q 3450 4097 3450 3541 
Q 3450 3153 3228 2886 
Q 3006 2619 2597 2516 
z
" transform="scale(0.015625)"/>
       </defs>
       <use xlink:href="#DejaVuSans-31"/>
       <use xlink:href="#DejaVuSans-33" x="63.623047"/>
       <use xlink:href="#DejaVuSans-30" x="127.246094"/>
       <use xlink:href="#DejaVuSans-30" x="190.869141"/>
      </g>
     </g>
    </g>
    <g id="xtick_7">
     <g id="line2d_7">
      <g>
       <use xlink:href="#mce13ef0b01" x="477.832521" y="346.668" style="stroke: #000000; stroke-width: 0.8"/>
      </g>
     </g>
     <g id="text_7">
      <!-- 1350 -->
      <g transform="translate(462.562521 359.286125) scale(0.12 -0.12)">
       <use xlink:href="#DejaVuSans-31"/>
       <use xlink:href="#DejaVuSans-33" x="63.623047"/>
       <use xlink:href="#DejaVuSans-35" x="127.246094"/>
       <use xlink:href="#DejaVuSans-30" x="190.869141"/>
      </g>
     </g>
    </g>
    <g id="xtick_8">
     <g id="line2d_8">
      <g>
       <use xlink:href="#mce13ef0b01" x="545.116163" y="346.668" style="stroke: #000000; stroke-width: 0.8"/>
      </g>
     </g>
     <g id="text_8">
      <!-- 1400 -->
      <g transform="translate(529.846163 359.286125) scale(0.12 -0.12)">
       <defs>
        <path id="DejaVuSans-34" d="M 2419 4116 
L 825 1625 
L 2419 1625 
L 2419 4116 
z
M 2253 4666 
L 3047 4666 
L 3047 1625 
L 3713 1625 
L 3713 1100 
L 3047 1100 
L 3047 0 
L 2419 0 
L 2419 1100 
L 313 1100 
L 313 1709 
L 2253 4666 
z
" transform="scale(0.015625)"/>
       </defs>
       <use xlink:href="#DejaVuSans-31"/>
       <use xlink:href="#DejaVuSans-34" x="63.623047"/>
       <use xlink:href="#DejaVuSans-30" x="127.246094"/>
       <use xlink:href="#DejaVuSans-30" x="190.869141"/>
      </g>
     </g>
    </g>
    <g id="text_9">
     <!-- Wavenumber (cm$^{-1}$) -->
     <g transform="translate(249.351 375.766125) scale(0.12 -0.12)">
      <defs>
       <path id="DejaVuSans-57" d="M 213 4666 
L 850 4666 
L 1831 722 
L 2809 4666 
L 3519 4666 
L 4500 722 
L 5478 4666 
L 6119 4666 
L 4947 0 
L 4153 0 
L 3169 4050 
L 2175 0 
L 1381 0 
L 213 4666 
z
" transform="scale(0.015625)"/>
       <path id="DejaVuSans-61" d="M 2194 1759 
Q 1497 1759 1228 1600 
Q 959 1441 959 1056 
Q 959 750 1161 570 
Q 1363 391 1709 391 
Q 2188 391 2477 730 
Q 2766 1069 2766 1631 
L 2766 1759 
L 2194 1759 
z
M 3341 1997 
L 3341 0 
L 2766 0 
L 2766 531 
Q 2569 213 2275 61 
Q 1981 -91 1556 -91 
Q 1019 -91 701 211 
Q 384 513 384 1019 
Q 384 1609 779 1909 
Q 1175 2209 1959 2209 
L 2766 2209 
L 2766 2266 
Q 2766 2663 2505 2880 
Q 2244 3097 1772 3097 
Q 1472 3097 1187 3025 
Q 903 2953 641 2809 
L 641 3341 
Q 956 3463 1253 3523 
Q 1550 3584 1831 3584 
Q 2591 3584 2966 3190 
Q 3341 2797 3341 1997 
z
" transform="scale(0.015625)"/>
       <path id="DejaVuSans-76" d="M 191 3500 
L 800 3500 
L 1894 563 
L 2988 3500 
L 3597 3500 
L 2284 0 
L 1503 0 
L 191 3500 
z
" transform="scale(0.015625)"/>
       <path id="DejaVuSans-65" d="M 3597 1894 
L 3597 1613 
L 953 1613 
Q 991 1019 1311 708 
Q 1631 397 2203 397 
Q 2534 397 2845 478 
Q 3156 559 3463 722 
L 3463 178 
Q 3153 47 2828 -22 
Q 2503 -91 2169 -91 
Q 1331 -91 842 396 
Q 353 884 353 1716 
Q 353 2575 817 3079 
Q 1281 3584 2069 3584 
Q 2775 3584 3186 3129 
Q 3597 2675 3597 1894 
z
M 3022 2063 
Q 3016 2534 2758 2815 
Q 2500 3097 2075 3097 
Q 1594 3097 1305 2825 
Q 1016 2553 972 2059 
L 3022 2063 
z
" transform="scale(0.015625)"/>
       <path id="DejaVuSans-6e" d="M 3513 2113 
L 3513 0 
L 2938 0 
L 2938 2094 
Q 2938 2591 2744 2837 
Q 2550 3084 2163 3084 
Q 1697 3084 1428 2787 
Q 1159 2491 1159 1978 
L 1159 0 
L 581 0 
L 581 3500 
L 1159 3500 
L 1159 2956 
Q 1366 3272 1645 3428 
Q 1925 3584 2291 3584 
Q 2894 3584 3203 3211 
Q 3513 2838 3513 2113 
z
" transform="scale(0.015625)"/>
       <path id="DejaVuSans-75" d="M 544 1381 
L 544 3500 
L 1119 3500 
L 1119 1403 
Q 1119 906 1312 657 
Q 1506 409 1894 409 
Q 2359 409 2629 706 
Q 2900 1003 2900 1516 
L 2900 3500 
L 3475 3500 
L 3475 0 
L 2900 0 
L 2900 538 
Q 2691 219 2414 64 
Q 2138 -91 1772 -91 
Q 1169 -91 856 284 
Q 544 659 544 1381 
z
M 1991 3584 
L 1991 3584 
z
" transform="scale(0.015625)"/>
       <path id="DejaVuSans-6d" d="M 3328 2828 
Q 3544 3216 3844 3400 
Q 4144 3584 4550 3584 
Q 5097 3584 5394 3201 
Q 5691 2819 5691 2113 
L 5691 0 
L 5113 0 
L 5113 2094 
Q 5113 2597 4934 2840 
Q 4756 3084 4391 3084 
Q 3944 3084 3684 2787 
Q 3425 2491 3425 1978 
L 3425 0 
L 2847 0 
L 2847 2094 
Q 2847 2600 2669 2842 
Q 2491 3084 2119 3084 
Q 1678 3084 1418 2786 
Q 1159 2488 1159 1978 
L 1159 0 
L 581 0 
L 581 3500 
L 1159 3500 
L 1159 2956 
Q 1356 3278 1631 3431 
Q 1906 3584 2284 3584 
Q 2666 3584 2933 3390 
Q 3200 3197 3328 2828 
z
" transform="scale(0.015625)"/>
       <path id="DejaVuSans-62" d="M 3116 1747 
Q 3116 2381 2855 2742 
Q 2594 3103 2138 3103 
Q 1681 3103 1420 2742 
Q 1159 2381 1159 1747 
Q 1159 1113 1420 752 
Q 1681 391 2138 391 
Q 2594 391 2855 752 
Q 3116 1113 3116 1747 
z
M 1159 2969 
Q 1341 3281 1617 3432 
Q 1894 3584 2278 3584 
Q 2916 3584 3314 3078 
Q 3713 2572 3713 1747 
Q 3713 922 3314 415 
Q 2916 -91 2278 -91 
Q 1894 -91 1617 61 
Q 1341 213 1159 525 
L 1159 0 
L 581 0 
L 581 4863 
L 1159 4863 
L 1159 2969 
z
" transform="scale(0.015625)"/>
       <path id="DejaVuSans-72" d="M 2631 2963 
Q 2534 3019 2420 3045 
Q 2306 3072 2169 3072 
Q 1681 3072 1420 2755 
Q 1159 2438 1159 1844 
L 1159 0 
L 581 0 
L 581 3500 
L 1159 3500 
L 1159 2956 
Q 1341 3275 1631 3429 
Q 1922 3584 2338 3584 
Q 2397 3584 2469 3576 
Q 2541 3569 2628 3553 
L 2631 2963 
z
" transform="scale(0.015625)"/>
       <path id="DejaVuSans-20" transform="scale(0.015625)"/>
       <path id="DejaVuSans-28" d="M 1984 4856 
Q 1566 4138 1362 3434 
Q 1159 2731 1159 2009 
Q 1159 1288 1364 580 
Q 1569 -128 1984 -844 
L 1484 -844 
Q 1016 -109 783 600 
Q 550 1309 550 2009 
Q 550 2706 781 3412 
Q 1013 4119 1484 4856 
L 1984 4856 
z
" transform="scale(0.015625)"/>
       <path id="DejaVuSans-63" d="M 3122 3366 
L 3122 2828 
Q 2878 2963 2633 3030 
Q 2388 3097 2138 3097 
Q 1578 3097 1268 2742 
Q 959 2388 959 1747 
Q 959 1106 1268 751 
Q 1578 397 2138 397 
Q 2388 397 2633 464 
Q 2878 531 3122 666 
L 3122 134 
Q 2881 22 2623 -34 
Q 2366 -91 2075 -91 
Q 1284 -91 818 406 
Q 353 903 353 1747 
Q 353 2603 823 3093 
Q 1294 3584 2113 3584 
Q 2378 3584 2631 3529 
Q 2884 3475 3122 3366 
z
" transform="scale(0.015625)"/>
       <path id="DejaVuSans-2212" d="M 678 2272 
L 4684 2272 
L 4684 1741 
L 678 1741 
L 678 2272 
z
" transform="scale(0.015625)"/>
       <path id="DejaVuSans-29" d="M 513 4856 
L 1013 4856 
Q 1481 4119 1714 3412 
Q 1947 2706 1947 2009 
Q 1947 1309 1714 600 
Q 1481 -109 1013 -844 
L 513 -844 
Q 928 -128 1133 580 
Q 1338 1288 1338 2009 
Q 1338 2731 1133 3434 
Q 928 4138 513 4856 
z
" transform="scale(0.015625)"/>
      </defs>
      <use xlink:href="#DejaVuSans-57" transform="translate(0 0.684375)"/>
      <use xlink:href="#DejaVuSans-61" transform="translate(98.876953 0.684375)"/>
      <use xlink:href="#DejaVuSans-76" transform="translate(160.15625 0.684375)"/>
      <use xlink:href="#DejaVuSans-65" transform="translate(219.335938 0.684375)"/>
      <use xlink:href="#DejaVuSans-6e" transform="translate(280.859375 0.684375)"/>
      <use xlink:href="#DejaVuSans-75" transform="translate(344.238281 0.684375)"/>
      <use xlink:href="#DejaVuSans-6d" transform="translate(407.617188 0.684375)"/>
      <use xlink:href="#DejaVuSans-62" transform="translate(505.029297 0.684375)"/>
      <use xlink:href="#DejaVuSans-65" transform="translate(568.505859 0.684375)"/>
      <use xlink:href="#DejaVuSans-72" transform="translate(630.029297 0.684375)"/>
      <use xlink:href="#DejaVuSans-20" transform="translate(671.142578 0.684375)"/>
      <use xlink:href="#DejaVuSans-28" transform="translate(702.929688 0.684375)"/>
      <use xlink:href="#DejaVuSans-63" transform="translate(741.943359 0.684375)"/>
      <use xlink:href="#DejaVuSans-6d" transform="translate(796.923828 0.684375)"/>
      <use xlink:href="#DejaVuSans-2212" transform="translate(895.292969 38.965625) scale(0.7)"/>
      <use xlink:href="#DejaVuSans-31" transform="translate(953.945312 38.965625) scale(0.7)"/>
      <use xlink:href="#DejaVuSans-29" transform="translate(1001.21582 0.684375)"/>
     </g>
    </g>
   </g>
   <g id="matplotlib.axis_2">
    <g id="ytick_1">
     <g id="line2d_9">
      <defs>
       <path id="m31b012f3bf" d="M 0 0 
L 3.5 0 
" style="stroke: #000000; stroke-width: 0.8"/>
      </defs>
      <g>
       <use xlink:href="#m31b012f3bf" x="60.582" y="291.793158" style="stroke: #000000; stroke-width: 0.8"/>
      </g>
     </g>
     <g id="text_10">
      <!-- 260 -->
      <g transform="translate(34.177 296.35222) scale(0.12 -0.12)">
       <defs>
        <path id="DejaVuSans-36" d="M 2113 2584 
Q 1688 2584 1439 2293 
Q 1191 2003 1191 1497 
Q 1191 994 1439 701 
Q 1688 409 2113 409 
Q 2538 409 2786 701 
Q 3034 994 3034 1497 
Q 3034 2003 2786 2293 
Q 2538 2584 2113 2584 
z
M 3366 4563 
L 3366 3988 
Q 3128 4100 2886 4159 
Q 2644 4219 2406 4219 
Q 1781 4219 1451 3797 
Q 1122 3375 1075 2522 
Q 1259 2794 1537 2939 
Q 1816 3084 2150 3084 
Q 2853 3084 3261 2657 
Q 3669 2231 3669 1497 
Q 3669 778 3244 343 
Q 2819 -91 2113 -91 
Q 1303 -91 875 529 
Q 447 1150 447 2328 
Q 447 3434 972 4092 
Q 1497 4750 2381 4750 
Q 2619 4750 2861 4703 
Q 3103 4656 3366 4563 
z
" transform="scale(0.015625)"/>
       </defs>
       <use xlink:href="#DejaVuSans-32"/>
       <use xlink:href="#DejaVuSans-36" x="63.623047"/>
       <use xlink:href="#DejaVuSans-30" x="127.246094"/>
      </g>
     </g>
    </g>
    <g id="ytick_2">
     <g id="line2d_10">
      <g>
       <use xlink:href="#m31b012f3bf" x="60.582" y="218.542287" style="stroke: #000000; stroke-width: 0.8"/>
      </g>
     </g>
     <g id="text_11">
      <!-- 270 -->
      <g transform="translate(34.177 223.10135) scale(0.12 -0.12)">
       <defs>
        <path id="DejaVuSans-37" d="M 525 4666 
L 3525 4666 
L 3525 4397 
L 1831 0 
L 1172 0 
L 2766 4134 
L 525 4134 
L 525 4666 
z
" transform="scale(0.015625)"/>
       </defs>
       <use xlink:href="#DejaVuSans-32"/>
       <use xlink:href="#DejaVuSans-37" x="63.623047"/>
       <use xlink:href="#DejaVuSans-30" x="127.246094"/>
      </g>
     </g>
    </g>
    <g id="ytick_3">
     <g id="line2d_11">
      <g>
       <use xlink:href="#m31b012f3bf" x="60.582" y="145.291417" style="stroke: #000000; stroke-width: 0.8"/>
      </g>
     </g>
     <g id="text_12">
      <!-- 280 -->
      <g transform="translate(34.177 149.850479) scale(0.12 -0.12)">
       <defs>
        <path id="DejaVuSans-38" d="M 2034 2216 
Q 1584 2216 1326 1975 
Q 1069 1734 1069 1313 
Q 1069 891 1326 650 
Q 1584 409 2034 409 
Q 2484 409 2743 651 
Q 3003 894 3003 1313 
Q 3003 1734 2745 1975 
Q 2488 2216 2034 2216 
z
M 1403 2484 
Q 997 2584 770 2862 
Q 544 3141 544 3541 
Q 544 4100 942 4425 
Q 1341 4750 2034 4750 
Q 2731 4750 3128 4425 
Q 3525 4100 3525 3541 
Q 3525 3141 3298 2862 
Q 3072 2584 2669 2484 
Q 3125 2378 3379 2068 
Q 3634 1759 3634 1313 
Q 3634 634 3220 271 
Q 2806 -91 2034 -91 
Q 1263 -91 848 271 
Q 434 634 434 1313 
Q 434 1759 690 2068 
Q 947 2378 1403 2484 
z
M 1172 3481 
Q 1172 3119 1398 2916 
Q 1625 2713 2034 2713 
Q 2441 2713 2670 2916 
Q 2900 3119 2900 3481 
Q 2900 3844 2670 4047 
Q 2441 4250 2034 4250 
Q 1625 4250 1398 4047 
Q 1172 3844 1172 3481 
z
" transform="scale(0.015625)"/>
       </defs>
       <use xlink:href="#DejaVuSans-32"/>
       <use xlink:href="#DejaVuSans-38" x="63.623047"/>
       <use xlink:href="#DejaVuSans-30" x="127.246094"/>
      </g>
     </g>
    </g>
    <g id="ytick_4">
     <g id="line2d_12">
      <g>
       <use xlink:href="#m31b012f3bf" x="60.582" y="72.040546" style="stroke: #000000; stroke-width: 0.8"/>
      </g>
     </g>
     <g id="text_13">
      <!-- 290 -->
      <g transform="translate(34.177 76.599609) scale(0.12 -0.12)">
       <defs>
        <path id="DejaVuSans-39" d="M 703 97 
L 703 672 
Q 941 559 1184 500 
Q 1428 441 1663 441 
Q 2288 441 2617 861 
Q 2947 1281 2994 2138 
Q 2813 1869 2534 1725 
Q 2256 1581 1919 1581 
Q 1219 1581 811 2004 
Q 403 2428 403 3163 
Q 403 3881 828 4315 
Q 1253 4750 1959 4750 
Q 2769 4750 3195 4129 
Q 3622 3509 3622 2328 
Q 3622 1225 3098 567 
Q 2575 -91 1691 -91 
Q 1453 -91 1209 -44 
Q 966 3 703 97 
z
M 1959 2075 
Q 2384 2075 2632 2365 
Q 2881 2656 2881 3163 
Q 2881 3666 2632 3958 
Q 2384 4250 1959 4250 
Q 1534 4250 1286 3958 
Q 1038 3666 1038 3163 
Q 1038 2656 1286 2365 
Q 1534 2075 1959 2075 
z
" transform="scale(0.015625)"/>
       </defs>
       <use xlink:href="#DejaVuSans-32"/>
       <use xlink:href="#DejaVuSans-39" x="63.623047"/>
       <use xlink:href="#DejaVuSans-30" x="127.246094"/>
      </g>
     </g>
    </g>
    <g id="text_14">
     <!-- Absorption coefficient α (cm$^{-1}$) -->
     <g transform="translate(27.657 273.594) rotate(-90) scale(0.12 -0.12)">
      <defs>
       <path id="DejaVuSans-41" d="M 2188 4044 
L 1331 1722 
L 3047 1722 
L 2188 4044 
z
M 1831 4666 
L 2547 4666 
L 4325 0 
L 3669 0 
L 3244 1197 
L 1141 1197 
L 716 0 
L 50 0 
L 1831 4666 
z
" transform="scale(0.015625)"/>
       <path id="DejaVuSans-73" d="M 2834 3397 
L 2834 2853 
Q 2591 2978 2328 3040 
Q 2066 3103 1784 3103 
Q 1356 3103 1142 2972 
Q 928 2841 928 2578 
Q 928 2378 1081 2264 
Q 1234 2150 1697 2047 
L 1894 2003 
Q 2506 1872 2764 1633 
Q 3022 1394 3022 966 
Q 3022 478 2636 193 
Q 2250 -91 1575 -91 
Q 1294 -91 989 -36 
Q 684 19 347 128 
L 347 722 
Q 666 556 975 473 
Q 1284 391 1588 391 
Q 1994 391 2212 530 
Q 2431 669 2431 922 
Q 2431 1156 2273 1281 
Q 2116 1406 1581 1522 
L 1381 1569 
Q 847 1681 609 1914 
Q 372 2147 372 2553 
Q 372 3047 722 3315 
Q 1072 3584 1716 3584 
Q 2034 3584 2315 3537 
Q 2597 3491 2834 3397 
z
" transform="scale(0.015625)"/>
       <path id="DejaVuSans-6f" d="M 1959 3097 
Q 1497 3097 1228 2736 
Q 959 2375 959 1747 
Q 959 1119 1226 758 
Q 1494 397 1959 397 
Q 2419 397 2687 759 
Q 2956 1122 2956 1747 
Q 2956 2369 2687 2733 
Q 2419 3097 1959 3097 
z
M 1959 3584 
Q 2709 3584 3137 3096 
Q 3566 2609 3566 1747 
Q 3566 888 3137 398 
Q 2709 -91 1959 -91 
Q 1206 -91 779 398 
Q 353 888 353 1747 
Q 353 2609 779 3096 
Q 1206 3584 1959 3584 
z
" transform="scale(0.015625)"/>
       <path id="DejaVuSans-70" d="M 1159 525 
L 1159 -1331 
L 581 -1331 
L 581 3500 
L 1159 3500 
L 1159 2969 
Q 1341 3281 1617 3432 
Q 1894 3584 2278 3584 
Q 2916 3584 3314 3078 
Q 3713 2572 3713 1747 
Q 3713 922 3314 415 
Q 2916 -91 2278 -91 
Q 1894 -91 1617 61 
Q 1341 213 1159 525 
z
M 3116 1747 
Q 3116 2381 2855 2742 
Q 2594 3103 2138 3103 
Q 1681 3103 1420 2742 
Q 1159 2381 1159 1747 
Q 1159 1113 1420 752 
Q 1681 391 2138 391 
Q 2594 391 2855 752 
Q 3116 1113 3116 1747 
z
" transform="scale(0.015625)"/>
       <path id="DejaVuSans-74" d="M 1172 4494 
L 1172 3500 
L 2356 3500 
L 2356 3053 
L 1172 3053 
L 1172 1153 
Q 1172 725 1289 603 
Q 1406 481 1766 481 
L 2356 481 
L 2356 0 
L 1766 0 
Q 1100 0 847 248 
Q 594 497 594 1153 
L 594 3053 
L 172 3053 
L 172 3500 
L 594 3500 
L 594 4494 
L 1172 4494 
z
" transform="scale(0.015625)"/>
       <path id="DejaVuSans-69" d="M 603 3500 
L 1178 3500 
L 1178 0 
L 603 0 
L 603 3500 
z
M 603 4863 
L 1178 4863 
L 1178 4134 
L 603 4134 
L 603 4863 
z
" transform="scale(0.015625)"/>
       <path id="DejaVuSans-66" d="M 2375 4863 
L 2375 4384 
L 1825 4384 
Q 1516 4384 1395 4259 
Q 1275 4134 1275 3809 
L 1275 3500 
L 2222 3500 
L 2222 3053 
L 1275 3053 
L 1275 0 
L 697 0 
L 697 3053 
L 147 3053 
L 147 3500 
L 697 3500 
L 697 3744 
Q 697 4328 969 4595 
Q 1241 4863 1831 4863 
L 2375 4863 
z
" transform="scale(0.015625)"/>
       <path id="DejaVuSans-3b1" d="M 2644 1628 
L 2506 2350 
Q 2366 3091 1809 3091 
Q 1391 3091 1200 2747 
Q 959 2316 959 1747 
Q 959 1059 1194 731 
Q 1431 397 1809 397 
Q 2228 397 2453 1063 
L 2644 1628 
z
M 2966 2584 
L 3275 3500 
L 3788 3500 
L 3147 1603 
L 3272 919 
Q 3300 766 3409 638 
Q 3538 488 3638 488 
L 3913 488 
L 3913 0 
L 3569 0 
Q 3275 0 3013 263 
Q 2884 394 2831 669 
Q 2688 322 2394 50 
Q 2256 -78 1809 -78 
Q 1075 -78 719 397 
Q 353 888 353 1747 
Q 353 2666 750 3097 
Q 1191 3578 1809 3578 
Q 2781 3578 2966 2584 
z
" transform="scale(0.015625)"/>
      </defs>
      <use xlink:href="#DejaVuSans-41" transform="translate(0 0.684375)"/>
      <use xlink:href="#DejaVuSans-62" transform="translate(68.408203 0.684375)"/>
      <use xlink:href="#DejaVuSans-73" transform="translate(131.884766 0.684375)"/>
      <use xlink:href="#DejaVuSans-6f" transform="translate(183.984375 0.684375)"/>
      <use xlink:href="#DejaVuSans-72" transform="translate(245.166016 0.684375)"/>
      <use xlink:href="#DejaVuSans-70" transform="translate(286.279297 0.684375)"/>
      <use xlink:href="#DejaVuSans-74" transform="translate(349.755859 0.684375)"/>
      <use xlink:href="#DejaVuSans-69" transform="translate(388.964844 0.684375)"/>
      <use xlink:href="#DejaVuSans-6f" transform="translate(416.748047 0.684375)"/>
      <use xlink:href="#DejaVuSans-6e" transform="translate(477.929688 0.684375)"/>
      <use xlink:href="#DejaVuSans-20" transform="translate(541.308594 0.684375)"/>
      <use xlink:href="#DejaVuSans-63" transform="translate(573.095703 0.684375)"/>
      <use xlink:href="#DejaVuSans-6f" transform="translate(628.076172 0.684375)"/>
      <use xlink:href="#DejaVuSans-65" transform="translate(689.257812 0.684375)"/>
      <use xlink:href="#DejaVuSans-66" transform="translate(750.78125 0.684375)"/>
      <use xlink:href="#DejaVuSans-66" transform="translate(785.986328 0.684375)"/>
      <use xlink:href="#DejaVuSans-69" transform="translate(821.191406 0.684375)"/>
      <use xlink:href="#DejaVuSans-63" transform="translate(848.974609 0.684375)"/>
      <use xlink:href="#DejaVuSans-69" transform="translate(903.955078 0.684375)"/>
      <use xlink:href="#DejaVuSans-65" transform="translate(931.738281 0.684375)"/>
      <use xlink:href="#DejaVuSans-6e" transform="translate(993.261719 0.684375)"/>
      <use xlink:href="#DejaVuSans-74" transform="translate(1056.640625 0.684375)"/>
      <use xlink:href="#DejaVuSans-20" transform="translate(1095.849609 0.684375)"/>
      <use xlink:href="#DejaVuSans-3b1" transform="translate(1127.636719 0.684375)"/>
      <use xlink:href="#DejaVuSans-20" transform="translate(1193.554688 0.684375)"/>
      <use xlink:href="#DejaVuSans-28" transform="translate(1225.341797 0.684375)"/>
      <use xlink:href="#DejaVuSans-63" transform="translate(1264.355469 0.684375)"/>
      <use xlink:href="#DejaVuSans-6d" transform="translate(1319.335938 0.684375)"/>
      <use xlink:href="#DejaVuSans-2212" transform="translate(1417.705078 38.965625) scale(0.7)"/>
      <use xlink:href="#DejaVuSans-31" transform="translate(1476.357422 38.965625) scale(0.7)"/>
      <use xlink:href="#DejaVuSans-29" transform="translate(1523.62793 0.684375)"/>
     </g>
    </g>
   </g>
   <g id="line2d_13">
    <path d="M 83.421 331.499455 
L 93.802364 328.509325 
L 104.183728 323.677139 
L 114.565091 311.32841 
L 124.946455 299.003324 
L 135.327819 286.721524 
L 145.709182 275.371381 
L 156.090546 265.532571 
L 166.47191 258.041987 
L 176.853272 250.245479 
L 187.234636 244.034659 
L 197.616 238.400354 
L 207.997364 231.384056 
L 218.378727 222.524534 
L 228.760091 218.927665 
L 239.141455 219.358008 
L 249.522818 214.614832 
L 259.904182 205.985845 
L 270.285546 200.998063 
L 280.666909 193.854876 
L 291.048273 176.198398 
L 301.429637 152.884111 
L 311.810999 138.745519 
L 322.192363 141.703737 
L 332.573727 144.080054 
L 342.95509 137.764724 
L 353.336454 129.024812 
L 363.717818 120.434795 
L 374.099182 108.877151 
L 384.480545 96.775489 
L 394.861909 87.230173 
L 405.243273 75.342929 
L 415.624636 61.703732 
L 426.006 50.895061 
L 436.387364 40.849479 
L 446.768726 28.128545 
L 457.15009 30.534616 
L 467.531454 52.179177 
L 477.912817 67.022418 
L 488.294181 82.787484 
L 498.675545 105.613045 
L 509.056908 136.304146 
L 519.438272 173.043105 
L 529.819636 200.667049 
L 540.201 225.581191 
" clip-path="url(#p2048ce9971)" style="fill: none; stroke: #000000; stroke-width: 1.5; stroke-linecap: square"/>
   </g>
   <g id="line2d_14">
    <path d="M 83.421 327.591099 
L 93.802364 324.322839 
L 104.183728 319.172611 
L 114.565091 311.723568 
L 124.946455 301.887434 
L 135.327819 290.114727 
L 145.709182 277.471981 
L 156.090546 265.459023 
L 166.47191 255.5127 
L 176.853272 248.311712 
L 187.234636 243.244076 
L 197.616 238.576599 
L 207.997364 232.62112 
L 218.378727 225.298281 
L 228.760091 218.585594 
L 239.141455 214.788553 
L 249.522818 213.717413 
L 259.904182 211.624378 
L 270.285546 203.699926 
L 280.666909 188.460201 
L 291.048273 169.845571 
L 301.429637 154.424706 
L 311.810999 146.026203 
L 322.192363 143.10373 
L 332.573727 141.085933 
L 342.95509 136.51869 
L 353.336454 128.843897 
L 363.717818 119.28961 
L 374.099182 109.066582 
L 384.480545 98.515303 
L 394.861909 87.277723 
L 405.243273 74.946123 
L 415.624636 61.748491 
L 426.006 48.957128 
L 436.387364 38.777549 
L 446.768726 33.693709 
L 457.15009 35.586787 
L 467.531454 45.126746 
L 477.912817 61.749892 
L 488.294181 84.112241 
L 498.675545 110.616532 
L 509.056908 139.684849 
L 519.438272 169.762468 
L 529.819636 199.270662 
L 540.201 226.698259 
" clip-path="url(#p2048ce9971)" style="fill: none; stroke-dasharray: 5.55,2.4; stroke-dashoffset: 0; stroke: #ff0000; stroke-width: 1.5"/>
   </g>
   <g id="line2d_15">
    <path d="M 83.421 327.910552 
L 93.802364 324.815833 
L 104.183728 319.92208 
L 114.565091 312.846122 
L 124.946455 303.545006 
L 135.327819 292.532763 
L 145.709182 280.977024 
L 156.090546 270.570592 
L 166.47191 263.153939 
L 176.853272 260.190332 
L 187.234636 262.29592 
L 197.616 269.031171 
L 207.997364 279.05024 
L 218.378727 290.538834 
L 228.760091 301.745673 
L 239.141455 311.39622 
L 249.522818 318.865543 
L 259.904182 324.11433 
L 270.285546 327.484081 
L 280.666909 329.468771 
L 291.048273 330.544228 
L 301.429637 331.08151 
L 311.810999 331.329364 
L 322.192363 331.435069 
L 332.573727 331.476785 
L 342.95509 331.49203 
L 353.336454 331.497193 
L 363.717818 331.498814 
L 374.099182 331.499286 
L 384.480545 331.499413 
L 394.861909 331.499445 
L 405.243273 331.499453 
L 415.624636 331.499454 
L 426.006 331.499454 
L 436.387364 331.499455 
L 446.768726 331.499455 
L 457.15009 331.499455 
L 467.531454 331.499455 
L 477.912817 331.499455 
L 488.294181 331.499455 
L 498.675545 331.499455 
L 509.056908 331.499455 
L 519.438272 331.499455 
L 529.819636 331.499455 
L 540.201 331.499455 
" clip-path="url(#p2048ce9971)" style="fill: none; stroke-dasharray: 1.5,2.475; stroke-dashoffset: 0; stroke: #1f77b4; stroke-width: 1.5"/>
   </g>
   <g id="line2d_16">
    <path d="M 83.421 331.499454 
L 93.802364 331.49945 
L 104.183728 331.499415 
L 114.565091 331.499135 
L 124.946455 331.497261 
L 135.327819 331.486745 
L 145.709182 331.437234 
L 156.090546 331.242124 
L 166.47191 330.600332 
L 176.853272 328.845376 
L 187.234636 324.8807 
L 197.616 317.554851 
L 207.997364 306.679351 
L 218.378727 294.177148 
L 228.760091 284.08608 
L 239.141455 280.61317 
L 249.522818 285.360462 
L 259.904182 296.156491 
L 270.285546 308.627393 
L 280.666909 318.9947 
L 291.048273 325.72365 
L 301.429637 329.245645 
L 311.810999 330.756453 
L 322.192363 331.292522 
L 332.573727 331.450765 
L 342.95509 331.489776 
L 353.336454 331.497829 
L 363.717818 331.499224 
L 374.099182 331.499427 
L 384.480545 331.499452 
L 394.861909 331.499454 
L 405.243273 331.499455 
L 415.624636 331.499455 
L 426.006 331.499455 
L 436.387364 331.499455 
L 446.768726 331.499455 
L 457.15009 331.499455 
L 467.531454 331.499455 
L 477.912817 331.499455 
L 488.294181 331.499455 
L 498.675545 331.499455 
L 509.056908 331.499455 
L 519.438272 331.499455 
L 529.819636 331.499455 
L 540.201 331.499455 
" clip-path="url(#p2048ce9971)" style="fill: none; stroke-dasharray: 1.5,2.475; stroke-dashoffset: 0; stroke: #ff7f0e; stroke-width: 1.5"/>
   </g>
   <g id="line2d_17">
    <path d="M 83.421 331.499455 
L 93.802364 331.499455 
L 104.183728 331.499455 
L 114.565091 331.499455 
L 124.946455 331.499455 
L 135.327819 331.499455 
L 145.709182 331.499455 
L 156.090546 331.499454 
L 166.47191 331.499452 
L 176.853272 331.49942 
L 187.234636 331.499118 
L 197.616 331.496732 
L 207.997364 331.481469 
L 218.378727 331.402296 
L 228.760091 331.070277 
L 239.141455 329.949227 
L 249.522818 326.9206 
L 259.904182 320.44031 
L 270.285546 309.657602 
L 280.666909 296.224971 
L 291.048273 284.915631 
L 301.429637 281.194257 
L 311.810999 287.077889 
L 322.192363 299.423609 
L 332.573727 312.560081 
L 342.95509 322.355029 
L 353.336454 327.889095 
L 363.717818 330.333859 
L 374.099182 331.19174 
L 384.480545 331.433026 
L 394.861909 331.487728 
L 405.243273 331.497762 
L 415.624636 331.499255 
L 426.006 331.499435 
L 436.387364 331.499453 
L 446.768726 331.499454 
L 457.15009 331.499455 
L 467.531454 331.499455 
L 477.912817 331.499455 
L 488.294181 331.499455 
L 498.675545 331.499455 
L 509.056908 331.499455 
L 519.438272 331.499455 
L 529.819636 331.499455 
L 540.201 331.499455 
" clip-path="url(#p2048ce9971)" style="fill: none; stroke-dasharray: 1.5,2.475; stroke-dashoffset: 0; stroke: #2ca02c; stroke-width: 1.5"/>
   </g>
   <g id="line2d_18">
    <path d="M 83.421 331.180005 
L 93.802364 331.006472 
L 104.183728 330.750043 
L 114.565091 330.377261 
L 124.946455 329.844164 
L 135.327819 329.094318 
L 145.709182 328.057032 
L 156.090546 326.646036 
L 166.47191 324.758984 
L 176.853272 322.278164 
L 187.234636 319.072857 
L 197.616 315.003717 
L 207.997364 309.929448 
L 218.378727 303.715901 
L 228.760091 296.247408 
L 239.141455 287.439923 
L 249.522818 277.255116 
L 259.904182 265.714289 
L 270.285546 252.910677 
L 280.666909 239.018546 
L 291.048273 224.297512 
L 301.429637 209.09077 
L 311.810999 193.816301 
L 322.192363 178.950796 
L 332.573727 165.006836 
L 342.95509 152.504588 
L 353.336454 141.940119 
L 363.717818 133.752964 
L 374.099182 128.295855 
L 384.480545 125.809532 
L 394.861909 126.405133 
L 405.243273 130.055952 
L 415.624636 136.599427 
L 426.006 145.749148 
L 436.387364 157.115636 
L 446.768726 170.233818 
L 457.15009 184.594484 
L 467.531454 199.67677 
L 477.912817 214.978825 
L 488.294181 230.044212 
L 498.675545 244.482242 
L 509.056908 257.981256 
L 519.438272 270.314655 
L 529.819636 281.340181 
L 540.201 290.993588 
" clip-path="url(#p2048ce9971)" style="fill: none; stroke-dasharray: 1.5,2.475; stroke-dashoffset: 0; stroke: #d62728; stroke-width: 1.5"/>
   </g>
   <g id="line2d_19">
    <path d="M 83.421 331.499455 
L 93.802364 331.499455 
L 104.183728 331.499455 
L 114.565091 331.499455 
L 124.946455 331.499455 
L 135.327819 331.499455 
L 145.709182 331.499455 
L 156.090546 331.499455 
L 166.47191 331.499455 
L 176.853272 331.499455 
L 187.234636 331.499455 
L 197.616 331.499455 
L 207.997364 331.499455 
L 218.378727 331.499455 
L 228.760091 331.499455 
L 239.141455 331.499454 
L 249.522818 331.499454 
L 259.904182 331.499452 
L 270.285546 331.499439 
L 280.666909 331.499367 
L 291.048273 331.499014 
L 301.429637 331.49746 
L 311.810999 331.491309 
L 322.192363 331.469423 
L 332.573727 331.39948 
L 342.95509 331.198974 
L 353.336454 330.684057 
L 363.717818 329.501675 
L 374.099182 327.080185 
L 384.480545 322.673165 
L 394.861909 315.583575 
L 405.243273 305.587043 
L 415.624636 293.409562 
L 426.006 280.947676 
L 436.387364 270.925227 
L 446.768726 265.965847 
L 457.15009 267.486921 
L 467.531454 275.045976 
L 477.912817 286.548268 
L 488.294181 299.183547 
L 498.675545 310.523763 
L 509.056908 319.206932 
L 519.438272 324.995306 
L 529.819636 328.392287 
L 540.201 330.159273 
" clip-path="url(#p2048ce9971)" style="fill: none; stroke-dasharray: 1.5,2.475; stroke-dashoffset: 0; stroke: #9467bd; stroke-width: 1.5"/>
   </g>
   <g id="line2d_20">
    <path d="M 83.421 331.499451 
L 93.802364 331.499447 
L 104.183728 331.499437 
L 114.565091 331.499414 
L 124.946455 331.499366 
L 135.327819 331.499264 
L 145.709182 331.499055 
L 156.090546 331.498635 
L 166.47191 331.497812 
L 176.853272 331.496237 
L 187.234636 331.493299 
L 197.616 331.487947 
L 207.997364 331.47843 
L 218.378727 331.46192 
L 228.760091 331.433975 
L 239.141455 331.387831 
L 249.522818 331.313511 
L 259.904182 331.196779 
L 270.285546 331.018008 
L 280.666909 330.751128 
L 291.048273 330.362854 
L 301.429637 329.812522 
L 311.810999 329.052865 
L 322.192363 328.032104 
L 332.573727 326.697613 
L 342.95509 325.001284 
L 353.336454 322.906395 
L 363.717818 320.395496 
L 374.099182 317.478384 
L 384.480545 314.198987 
L 394.861909 310.639764 
L 405.243273 306.922321 
L 415.624636 303.203269 
L 426.006 299.664963 
L 436.387364 296.501611 
L 446.768726 293.902041 
L 457.15009 292.031194 
L 467.531454 291.012851 
L 477.912817 290.916091 
L 488.294181 291.747538 
L 498.675545 293.450614 
L 509.056908 295.911901 
L 519.438272 298.973642 
L 529.819636 302.450432 
L 540.201 306.147688 
" clip-path="url(#p2048ce9971)" style="fill: none; stroke-dasharray: 1.5,2.475; stroke-dashoffset: 0; stroke: #8c564b; stroke-width: 1.5"/>
   </g>
   <g id="line2d_21">
    <path d="M 83.421 331.499455 
L 93.802364 331.499455 
L 104.183728 331.499455 
L 114.565091 331.499455 
L 124.946455 331.499455 
L 135.327819 331.499455 
L 145.709182 331.499455 
L 156.090546 331.499455 
L 166.47191 331.499455 
L 176.853272 331.499455 
L 187.234636 331.499455 
L 197.616 331.499455 
L 207.997364 331.499455 
L 218.378727 331.499455 
L 228.760091 331.499455 
L 239.141455 331.499455 
L 249.522818 331.499454 
L 259.904182 331.499454 
L 270.285546 331.499452 
L 280.666909 331.499445 
L 291.048273 331.49941 
L 301.429637 331.499271 
L 311.810999 331.498749 
L 322.192363 331.496934 
L 332.573727 331.4911 
L 342.95509 331.473736 
L 353.336454 331.425936 
L 363.717818 331.304305 
L 374.099182 331.018433 
L 384.480545 330.398456 
L 394.861909 329.15935 
L 405.243273 326.880865 
L 415.624636 323.034797 
L 426.006 317.093724 
L 436.387364 308.733439 
L 446.768726 298.090366 
L 457.15009 285.972552 
L 467.531454 273.889512 
L 477.912817 263.805072 
L 488.294181 257.635307 
L 498.675545 256.658278 
L 509.056908 261.083123 
L 519.438272 269.977229 
L 529.819636 281.586125 
L 540.201 293.896073 
" clip-path="url(#p2048ce9971)" style="fill: none; stroke-dasharray: 1.5,2.475; stroke-dashoffset: 0; stroke: #e377c2; stroke-width: 1.5"/>
   </g>
   <g id="patch_3">
    <path d="M 60.582 346.668 
L 60.582 12.96 
" style="fill: none; stroke: #000000; stroke-width: 0.8; stroke-linejoin: miter; stroke-linecap: square"/>
   </g>
   <g id="patch_4">
    <path d="M 563.04 346.668 
L 563.04 12.96 
" style="fill: none; stroke: #000000; stroke-width: 0.8; stroke-linejoin: miter; stroke-linecap: square"/>
   </g>
   <g id="patch_5">
    <path d="M 60.582 346.668 
L 563.04 346.668 
" style="fill: none; stroke: #000000; stroke-width: 0.8; stroke-linejoin: miter; stroke-linecap: square"/>
   </g>
   <g id="patch_6">
    <path d="M 60.582 12.96 
L 563.04 12.96 
" style="fill: none; stroke: #000000; stroke-width: 0.8; stroke-linejoin: miter; stroke-linecap: square"/>
   </g>
   <g id="legend_1">
    <g id="patch_7">
     <path d="M 68.982 181.4175 
L 229.922625 181.4175 
Q 232.322625 181.4175 232.322625 179.0175 
L 232.322625 21.36 
Q 232.322625 18.96 229.922625 18.96 
L 68.982 18.96 
Q 66.582 18.96 66.582 21.36 
L 66.582 179.0175 
Q 66.582 181.4175 68.982 181.4175 
z
" style="fill: #ffffff; opacity: 0.8; stroke: #cccccc; stroke-linejoin: miter"/>
    </g>
    <g id="line2d_22">
     <path d="M 71.382 28.678125 
L 83.382 28.678125 
L 95.382 28.678125 
" style="fill: none; stroke: #000000; stroke-width: 1.5; stroke-linecap: square"/>
    </g>
    <g id="text_15">
     <!-- FTD24_17a -->
     <g transform="translate(104.982 32.878125) scale(0.12 -0.12)">
      <defs>
       <path id="DejaVuSans-46" d="M 628 4666 
L 3309 4666 
L 3309 4134 
L 1259 4134 
L 1259 2759 
L 3109 2759 
L 3109 2228 
L 1259 2228 
L 1259 0 
L 628 0 
L 628 4666 
z
" transform="scale(0.015625)"/>
       <path id="DejaVuSans-54" d="M -19 4666 
L 3928 4666 
L 3928 4134 
L 2272 4134 
L 2272 0 
L 1638 0 
L 1638 4134 
L -19 4134 
L -19 4666 
z
" transform="scale(0.015625)"/>
       <path id="DejaVuSans-44" d="M 1259 4147 
L 1259 519 
L 2022 519 
Q 2988 519 3436 956 
Q 3884 1394 3884 2338 
Q 3884 3275 3436 3711 
Q 2988 4147 2022 4147 
L 1259 4147 
z
M 628 4666 
L 1925 4666 
Q 3281 4666 3915 4102 
Q 4550 3538 4550 2338 
Q 4550 1131 3912 565 
Q 3275 0 1925 0 
L 628 0 
L 628 4666 
z
" transform="scale(0.015625)"/>
       <path id="DejaVuSans-5f" d="M 3263 -1063 
L 3263 -1509 
L -63 -1509 
L -63 -1063 
L 3263 -1063 
z
" transform="scale(0.015625)"/>
      </defs>
      <use xlink:href="#DejaVuSans-46"/>
      <use xlink:href="#DejaVuSans-54" x="55.769531"/>
      <use xlink:href="#DejaVuSans-44" x="116.853516"/>
      <use xlink:href="#DejaVuSans-32" x="193.855469"/>
      <use xlink:href="#DejaVuSans-34" x="257.478516"/>
      <use xlink:href="#DejaVuSans-5f" x="321.101562"/>
      <use xlink:href="#DejaVuSans-31" x="371.101562"/>
      <use xlink:href="#DejaVuSans-37" x="434.724609"/>
      <use xlink:href="#DejaVuSans-61" x="498.347656"/>
     </g>
    </g>
    <g id="line2d_23">
     <path d="M 71.382 46.625625 
L 83.382 46.625625 
L 95.382 46.625625 
" style="fill: none; stroke-dasharray: 5.55,2.4; stroke-dashoffset: 0; stroke: #ff0000; stroke-width: 1.5"/>
    </g>
    <g id="text_16">
     <!-- Fit -->
     <g transform="translate(104.982 50.825625) scale(0.12 -0.12)">
      <use xlink:href="#DejaVuSans-46"/>
      <use xlink:href="#DejaVuSans-69" x="50.269531"/>
      <use xlink:href="#DejaVuSans-74" x="78.052734"/>
     </g>
    </g>
    <g id="line2d_24">
     <path d="M 71.382 64.239375 
L 83.382 64.239375 
L 95.382 64.239375 
" style="fill: none; stroke-dasharray: 1.5,2.475; stroke-dashoffset: 0; stroke: #1f77b4; stroke-width: 1.5"/>
    </g>
    <g id="text_17">
     <!-- C center (1130) -->
     <g transform="translate(104.982 68.439375) scale(0.12 -0.12)">
      <defs>
       <path id="DejaVuSans-43" d="M 4122 4306 
L 4122 3641 
Q 3803 3938 3442 4084 
Q 3081 4231 2675 4231 
Q 1875 4231 1450 3742 
Q 1025 3253 1025 2328 
Q 1025 1406 1450 917 
Q 1875 428 2675 428 
Q 3081 428 3442 575 
Q 3803 722 4122 1019 
L 4122 359 
Q 3791 134 3420 21 
Q 3050 -91 2638 -91 
Q 1578 -91 968 557 
Q 359 1206 359 2328 
Q 359 3453 968 4101 
Q 1578 4750 2638 4750 
Q 3056 4750 3426 4639 
Q 3797 4528 4122 4306 
z
" transform="scale(0.015625)"/>
      </defs>
      <use xlink:href="#DejaVuSans-43"/>
      <use xlink:href="#DejaVuSans-20" x="69.824219"/>
      <use xlink:href="#DejaVuSans-63" x="101.611328"/>
      <use xlink:href="#DejaVuSans-65" x="156.591797"/>
      <use xlink:href="#DejaVuSans-6e" x="218.115234"/>
      <use xlink:href="#DejaVuSans-74" x="281.494141"/>
      <use xlink:href="#DejaVuSans-65" x="320.703125"/>
      <use xlink:href="#DejaVuSans-72" x="382.226562"/>
      <use xlink:href="#DejaVuSans-20" x="423.339844"/>
      <use xlink:href="#DejaVuSans-28" x="455.126953"/>
      <use xlink:href="#DejaVuSans-31" x="494.140625"/>
      <use xlink:href="#DejaVuSans-31" x="557.763672"/>
      <use xlink:href="#DejaVuSans-33" x="621.386719"/>
      <use xlink:href="#DejaVuSans-30" x="685.009766"/>
      <use xlink:href="#DejaVuSans-29" x="748.632812"/>
     </g>
    </g>
    <g id="line2d_25">
     <path d="M 71.382 81.853125 
L 83.382 81.853125 
L 95.382 81.853125 
" style="fill: none; stroke-dasharray: 1.5,2.475; stroke-dashoffset: 0; stroke: #ff7f0e; stroke-width: 1.5"/>
    </g>
    <g id="text_18">
     <!-- B center (1180) -->
     <g transform="translate(104.982 86.053125) scale(0.12 -0.12)">
      <defs>
       <path id="DejaVuSans-42" d="M 1259 2228 
L 1259 519 
L 2272 519 
Q 2781 519 3026 730 
Q 3272 941 3272 1375 
Q 3272 1813 3026 2020 
Q 2781 2228 2272 2228 
L 1259 2228 
z
M 1259 4147 
L 1259 2741 
L 2194 2741 
Q 2656 2741 2882 2914 
Q 3109 3088 3109 3444 
Q 3109 3797 2882 3972 
Q 2656 4147 2194 4147 
L 1259 4147 
z
M 628 4666 
L 2241 4666 
Q 2963 4666 3353 4366 
Q 3744 4066 3744 3513 
Q 3744 3084 3544 2831 
Q 3344 2578 2956 2516 
Q 3422 2416 3680 2098 
Q 3938 1781 3938 1306 
Q 3938 681 3513 340 
Q 3088 0 2303 0 
L 628 0 
L 628 4666 
z
" transform="scale(0.015625)"/>
      </defs>
      <use xlink:href="#DejaVuSans-42"/>
      <use xlink:href="#DejaVuSans-20" x="68.603516"/>
      <use xlink:href="#DejaVuSans-63" x="100.390625"/>
      <use xlink:href="#DejaVuSans-65" x="155.371094"/>
      <use xlink:href="#DejaVuSans-6e" x="216.894531"/>
      <use xlink:href="#DejaVuSans-74" x="280.273438"/>
      <use xlink:href="#DejaVuSans-65" x="319.482422"/>
      <use xlink:href="#DejaVuSans-72" x="381.005859"/>
      <use xlink:href="#DejaVuSans-20" x="422.119141"/>
      <use xlink:href="#DejaVuSans-28" x="453.90625"/>
      <use xlink:href="#DejaVuSans-31" x="492.919922"/>
      <use xlink:href="#DejaVuSans-31" x="556.542969"/>
      <use xlink:href="#DejaVuSans-38" x="620.166016"/>
      <use xlink:href="#DejaVuSans-30" x="683.789062"/>
      <use xlink:href="#DejaVuSans-29" x="747.412109"/>
     </g>
    </g>
    <g id="line2d_26">
     <path d="M 71.382 99.466875 
L 83.382 99.466875 
L 95.382 99.466875 
" style="fill: none; stroke-dasharray: 1.5,2.475; stroke-dashoffset: 0; stroke: #2ca02c; stroke-width: 1.5"/>
    </g>
    <g id="text_19">
     <!-- A center (1215) -->
     <g transform="translate(104.982 103.666875) scale(0.12 -0.12)">
      <use xlink:href="#DejaVuSans-41"/>
      <use xlink:href="#DejaVuSans-20" x="68.408203"/>
      <use xlink:href="#DejaVuSans-63" x="100.195312"/>
      <use xlink:href="#DejaVuSans-65" x="155.175781"/>
      <use xlink:href="#DejaVuSans-6e" x="216.699219"/>
      <use xlink:href="#DejaVuSans-74" x="280.078125"/>
      <use xlink:href="#DejaVuSans-65" x="319.287109"/>
      <use xlink:href="#DejaVuSans-72" x="380.810547"/>
      <use xlink:href="#DejaVuSans-20" x="421.923828"/>
      <use xlink:href="#DejaVuSans-28" x="453.710938"/>
      <use xlink:href="#DejaVuSans-31" x="492.724609"/>
      <use xlink:href="#DejaVuSans-32" x="556.347656"/>
      <use xlink:href="#DejaVuSans-31" x="619.970703"/>
      <use xlink:href="#DejaVuSans-35" x="683.59375"/>
      <use xlink:href="#DejaVuSans-29" x="747.216797"/>
     </g>
    </g>
    <g id="line2d_27">
     <path d="M 71.382 117.080625 
L 83.382 117.080625 
L 95.382 117.080625 
" style="fill: none; stroke-dasharray: 1.5,2.475; stroke-dashoffset: 0; stroke: #d62728; stroke-width: 1.5"/>
    </g>
    <g id="text_20">
     <!-- Platelet (1280) -->
     <g transform="translate(104.982 121.280625) scale(0.12 -0.12)">
      <defs>
       <path id="DejaVuSans-50" d="M 1259 4147 
L 1259 2394 
L 2053 2394 
Q 2494 2394 2734 2622 
Q 2975 2850 2975 3272 
Q 2975 3691 2734 3919 
Q 2494 4147 2053 4147 
L 1259 4147 
z
M 628 4666 
L 2053 4666 
Q 2838 4666 3239 4311 
Q 3641 3956 3641 3272 
Q 3641 2581 3239 2228 
Q 2838 1875 2053 1875 
L 1259 1875 
L 1259 0 
L 628 0 
L 628 4666 
z
" transform="scale(0.015625)"/>
       <path id="DejaVuSans-6c" d="M 603 4863 
L 1178 4863 
L 1178 0 
L 603 0 
L 603 4863 
z
" transform="scale(0.015625)"/>
      </defs>
      <use xlink:href="#DejaVuSans-50"/>
      <use xlink:href="#DejaVuSans-6c" x="60.302734"/>
      <use xlink:href="#DejaVuSans-61" x="88.085938"/>
      <use xlink:href="#DejaVuSans-74" x="149.365234"/>
      <use xlink:href="#DejaVuSans-65" x="188.574219"/>
      <use xlink:href="#DejaVuSans-6c" x="250.097656"/>
      <use xlink:href="#DejaVuSans-65" x="277.880859"/>
      <use xlink:href="#DejaVuSans-74" x="339.404297"/>
      <use xlink:href="#DejaVuSans-20" x="378.613281"/>
      <use xlink:href="#DejaVuSans-28" x="410.400391"/>
      <use xlink:href="#DejaVuSans-31" x="449.414062"/>
      <use xlink:href="#DejaVuSans-32" x="513.037109"/>
      <use xlink:href="#DejaVuSans-38" x="576.660156"/>
      <use xlink:href="#DejaVuSans-30" x="640.283203"/>
      <use xlink:href="#DejaVuSans-29" x="703.90625"/>
     </g>
    </g>
    <g id="line2d_28">
     <path d="M 71.382 134.694375 
L 83.382 134.694375 
L 95.382 134.694375 
" style="fill: none; stroke-dasharray: 1.5,2.475; stroke-dashoffset: 0; stroke: #9467bd; stroke-width: 1.5"/>
    </g>
    <g id="text_21">
     <!-- Pos. C center (1332) -->
     <g transform="translate(104.982 138.894375) scale(0.12 -0.12)">
      <defs>
       <path id="DejaVuSans-2e" d="M 684 794 
L 1344 794 
L 1344 0 
L 684 0 
L 684 794 
z
" transform="scale(0.015625)"/>
      </defs>
      <use xlink:href="#DejaVuSans-50"/>
      <use xlink:href="#DejaVuSans-6f" x="56.677734"/>
      <use xlink:href="#DejaVuSans-73" x="117.859375"/>
      <use xlink:href="#DejaVuSans-2e" x="169.958984"/>
      <use xlink:href="#DejaVuSans-20" x="201.746094"/>
      <use xlink:href="#DejaVuSans-43" x="233.533203"/>
      <use xlink:href="#DejaVuSans-20" x="303.357422"/>
      <use xlink:href="#DejaVuSans-63" x="335.144531"/>
      <use xlink:href="#DejaVuSans-65" x="390.125"/>
      <use xlink:href="#DejaVuSans-6e" x="451.648438"/>
      <use xlink:href="#DejaVuSans-74" x="515.027344"/>
      <use xlink:href="#DejaVuSans-65" x="554.236328"/>
      <use xlink:href="#DejaVuSans-72" x="615.759766"/>
      <use xlink:href="#DejaVuSans-20" x="656.873047"/>
      <use xlink:href="#DejaVuSans-28" x="688.660156"/>
      <use xlink:href="#DejaVuSans-31" x="727.673828"/>
      <use xlink:href="#DejaVuSans-33" x="791.296875"/>
      <use xlink:href="#DejaVuSans-33" x="854.919922"/>
      <use xlink:href="#DejaVuSans-32" x="918.542969"/>
      <use xlink:href="#DejaVuSans-29" x="982.166016"/>
     </g>
    </g>
    <g id="line2d_29">
     <path d="M 71.382 152.308125 
L 83.382 152.308125 
L 95.382 152.308125 
" style="fill: none; stroke-dasharray: 1.5,2.475; stroke-dashoffset: 0; stroke: #8c564b; stroke-width: 1.5"/>
    </g>
    <g id="text_22">
     <!-- C center (1344) -->
     <g transform="translate(104.982 156.508125) scale(0.12 -0.12)">
      <use xlink:href="#DejaVuSans-43"/>
      <use xlink:href="#DejaVuSans-20" x="69.824219"/>
      <use xlink:href="#DejaVuSans-63" x="101.611328"/>
      <use xlink:href="#DejaVuSans-65" x="156.591797"/>
      <use xlink:href="#DejaVuSans-6e" x="218.115234"/>
      <use xlink:href="#DejaVuSans-74" x="281.494141"/>
      <use xlink:href="#DejaVuSans-65" x="320.703125"/>
      <use xlink:href="#DejaVuSans-72" x="382.226562"/>
      <use xlink:href="#DejaVuSans-20" x="423.339844"/>
      <use xlink:href="#DejaVuSans-28" x="455.126953"/>
      <use xlink:href="#DejaVuSans-31" x="494.140625"/>
      <use xlink:href="#DejaVuSans-33" x="557.763672"/>
      <use xlink:href="#DejaVuSans-34" x="621.386719"/>
      <use xlink:href="#DejaVuSans-34" x="685.009766"/>
      <use xlink:href="#DejaVuSans-29" x="748.632812"/>
     </g>
    </g>
    <g id="line2d_30">
     <path d="M 71.382 169.921875 
L 83.382 169.921875 
L 95.382 169.921875 
" style="fill: none; stroke-dasharray: 1.5,2.475; stroke-dashoffset: 0; stroke: #e377c2; stroke-width: 1.5"/>
    </g>
    <g id="text_23">
     <!-- Platelet (1360) -->
     <g transform="translate(104.982 174.121875) scale(0.12 -0.12)">
      <use xlink:href="#DejaVuSans-50"/>
      <use xlink:href="#DejaVuSans-6c" x="60.302734"/>
      <use xlink:href="#DejaVuSans-61" x="88.085938"/>
      <use xlink:href="#DejaVuSans-74" x="149.365234"/>
      <use xlink:href="#DejaVuSans-65" x="188.574219"/>
      <use xlink:href="#DejaVuSans-6c" x="250.097656"/>
      <use xlink:href="#DejaVuSans-65" x="277.880859"/>
      <use xlink:href="#DejaVuSans-74" x="339.404297"/>
      <use xlink:href="#DejaVuSans-20" x="378.613281"/>
      <use xlink:href="#DejaVuSans-28" x="410.400391"/>
      <use xlink:href="#DejaVuSans-31" x="449.414062"/>
      <use xlink:href="#DejaVuSans-33" x="513.037109"/>
      <use xlink:href="#DejaVuSans-36" x="576.660156"/>
      <use xlink:href="#DejaVuSans-30" x="640.283203"/>
      <use xlink:href="#DejaVuSans-29" x="703.90625"/>
     </g>
    </g>
   </g>
  </g>
 </g>
 <defs>
  <clipPath id="p2048ce9971">
   <rect x="60.582" y="12.96" width="502.458" height="333.708"/>
  </clipPath>
 </defs>
</svg>
