<svg width="1280" height="720" xmlns="http://www.w3.org/2000/svg" xmlns:xlink="http://www.w3.org/1999/xlink" overflow="hidden"><g><rect x="0" y="0" width="1280" height="720" fill="#FFFFFF"/><g><path d="M73.5001 558.5 953.5 558.5M73.5001 457.5 953.5 457.5M73.5001 355.5 953.5 355.5M73.5001 253.5 953.5 253.5M73.5001 151.5 953.5 151.5M73.5001 49.5001 953.5 49.5001" stroke="#D9D9D9" stroke-linejoin="round" stroke-miterlimit="10" fill="none"/></g><g><path d="M171.5 49.5001 171.5 660.5M269.5 49.5001 269.5 660.5M367.5 49.5001 367.5 660.5M464.5 49.5001 464.5 660.5M562.5 49.5001 562.5 660.5M660.5 49.5001 660.5 660.5M758.5 49.5001 758.5 660.5M856.5 49.5001 856.5 660.5M953.5 49.5001 953.5 660.5" stroke="#D9D9D9" stroke-linejoin="round" stroke-miterlimit="10" fill="none"/></g><g><path d="M0 0 0.000104987 611" stroke="#BFBFBF" stroke-linejoin="round" stroke-miterlimit="10" fill="none" fill-rule="evenodd" transform="matrix(1 0 0 -1 73.5001 660.5)"/></g><g><path d="M73.5001 660.5 953.5 660.5" stroke="#BFBFBF" stroke-linejoin="round" stroke-miterlimit="10" fill="none" fill-rule="evenodd"/></g><g><path d="M74 650 75 648 76 647 77 645 78 644 79 642 80 641 81 639 81 637 82 636 83 634 84 633 85 631 86 630 87 628 88 627 89 625 90 624 91 622 92 621 93 619 94 618 95 616 96 615 97 613 98 611 99 610 100 608 101 607 102 605 103 604 104 602 105 601 106 599 107 598 108 596 109 595 110 593 111 592 112 590 113 589 114 587 115 585 116 584 117 582 118 581 119 579 120 578 121 576 122 575 123 573 124 572 125 570 126 569 126 567 127 566 128 564 129 563 130 561 131 560 132 558 133 556 134 555 135 553 136 552 137 550 138 549 139 547 140 546 141 544 142 543 143 541 144 540 145 538 146 537 147 535 148 534 149 534 150 534 151 534 152 534 153 534 154 534 155 534 156 534 157 534 158 534 159 534 160 534 161 534 162 534 163 534 164 534 165 534 166 534 167 534 168 534 169 534 170 534 170 534 171 534 172 534 173 534 174 534 175 534 176 534 177 534 178 533 179 532 180 532 181 531 182 531 183 530 184 530 185 529 186 529 187 528 188 528 189 527 190 527 191 526 192 526 193 525 194 525 195 524 196 524 197 523 198 523 199 522 200 522 201 521 202 521 203 520 204 520 205 519 206 519 207 518 208 518 209 517 210 517 211 516 212 516 213 515 214 515 214 514 215 514 216 513 217 513 218 512 219 512 220 511 221 511 222 510 223 510 224 509 225 509 226 508 227 508 228 507 229 507 230 506 231 505 232 505 233 504 234 504 235 503 236 503 237 502 238 502 239 501 240 501 241 500 242 500 243 499 244 499 245 498 246 498 247 497 248 497 249 496 250 496 251 495 252 495 253 494 254 494 255 493 256 493 257 492 258 492 259 491 259 491 260 490 261 490 262 489 263 489 264 488 265 488 266 487 267 487 268 486 269 486 270 485 271 485 272 484 273 484 274 483 275 483 276 482 277 482 278 481 279 481 280 480 281 480 282 479 283 478 284 478 285 477 286 477 287 476 288 476 289 475 290 475 291 474 292 474 293 473 294 473 295 472 296 472 297 471 298 471 299 470 300 470 301 469 302 469 303 468 303 468 304 467 305 467 306 466 307 466 308 465 309 465 310 464 311 464 312 463 313 463 314 462 315 462 316 461 317 461 318 460 319 460 320 459 321 459 322 458 323 458 324 457 325 457 326 457 327 457 328 457 329 457 330 457 331 457 332 457 333 457 334 457 335 457 336 457 337 457 338 457 339 457 340 457 341 457 342 457 343 457 344 457 345 457 346 457 347 457 347 457 348 457 349 457 350 457 351 457 352 457 353 457 354 456 355 454 356 453 357 451 358 449 359 448 360 446 361 445 362 443 363 442 364 440 365 439 366 437 367 436 368 434 369 433 370 431 371 430 372 428 373 427 374 425 375 423 376 422 377 420 378 419 379 417 380 416 381 414 382 413 383 411 384 410 385 408 386 407 387 405 388 404 389 402 390 401 391 399 392 397 392 396 393 394 394 393 395 391 396 390 397 388 398 387 399 385 400 384 401 382 402 381 403 379 404 378 405 376 406 375 407 373 408 371 409 370 410 368 411 367 412 365 413 364 414 362 415 361 416 359 417 358 418 356 419 355 420 353 421 352 422 350 423 349 424 347 425 345 426 344 427 342 428 341 429 339 430 338 431 336 432 335 433 333 434 332 435 330 436 329 436 327 437 326 438 324 439 323 440 321 441 320 442 318 443 316 444 315 445 313 446 312 447 310 448 309 449 307 450 306 451 304 452 303 453 301 454 300 455 298 456 297 457 295 458 294 459 292 460 290 461 289 462 287 463 286 464 284 465 283 466 281 467 280 468 278 469 277 470 275 471 274 472 272 473 271 474 269 475 268 476 266 477 264 478 263 479 261 480 260 480 258 481 257 482 255 483 254 484 252 485 251 486 249 487 248 488 246 489 245 490 243 491 242 492 240 493 238 494 237 495 235 496 234 497 232 498 231 499 229 500 228 501 226 502 225 503 223 504 222 505 220 506 219 507 217 508 216 509 214 510 213 511 211 512 209 513 208 514 206 515 205 516 203 517 202 518 200 519 199 520 197 521 196 522 194 523 193 524 191 525 190 525 188 526 187 527 185 528 183 529 182 530 180 531 179 532 177 533 176 534 174 535 173 536 171 537 170 538 168 539 167 540 165 541 164 542 162 543 161 544 159 545 157 546 156 547 154 548 153 549 151 550 150 551 148 552 147 553 145 554 144 555 142 556 141 557 139 558 138 559 136 560 135 561 133 562 131 563 130 564 128 565 127 566 126 567 126 568 126 569 126 569 126 570 126 571 126 572 126 573 126 574 126 575 126 576 126 577 126 578 126 579 126 580 126 581 126 582 126 583 126 584 126 585 126 586 126 587 126 588 126 589 126 590 126 591 126 592 126 593 126 594 126 595 126 596 126 597 126 598 126 599 126 600 126 601 126 602 126 603 126 604 126 605 126 606 126 607 126 608 126 609 126 610 126 611 126 612 126 613 126 613 126 614 126 615 126 616 126 617 126 618 126 619 126 620 126 621 126 622 126 623 126 624 126 625 126 626 126 627 126 628 126 629 126 630 126 631 126 632 126 633 126 634 126 635 126 636 126 637 126 638 126 639 126 640 126 641 126 642 126 643 126 644 126 645 126 646 126 647 126 648 126 649 126 650 126 651 126 652 126 653 126 654 126 655 126 656 126 657 126 658 126 658 126 659 126 660 126 661 126 662 126 663 126 664 126 665 126 666 126 667 126 668 126 669 126 670 126 671 126 672 126 673 126 674 126 675 126 676 126 677 126 678 126 679 126 680 126 681 126 682 126 683 126 684 128 685 131 686 134 687 136 688 139 689 141 690 144 691 146 692 149 693 151 694 154 695 156 696 159 697 162 698 164 699 167 700 169 701 172 702 174 702 177 703 179 704 182 705 184 706 187 707 190 708 192 709 195 710 197 711 200 712 202 713 205 714 207 715 210 716 213 717 215 718 218 719 220 720 223 721 225 722 228 723 230 724 233 725 235 726 238 727 241 728 243 729 246 730 248 731 251 732 253 733 256 734 258 735 261 736 263 737 266 738 269 739 271 740 274 741 276 742 279 743 281 744 284 745 286 746 289 746 291 747 294 748 297 749 299 750 302 751 304 752 307 753 309 754 312 755 314 756 317 757 320 758 322 759 325 760 327 761 330 762 332 763 335 764 337 765 340 766 342 767 345 768 348 769 350 770 353 771 355 772 358 773 360 774 363 775 365 776 368 777 370 778 373 779 376 780 378 781 381 782 383 783 386 784 388 785 391 786 393 787 396 788 398 789 401 790 404 790 406 791 409 792 411 793 414 794 416 795 419 796 421 797 424 798 427 799 429 800 432 801 434 802 437 803 439 804 442 805 444 806 447 807 449 808 452 809 455 810 457 811 460 812 462 813 465 814 467 815 470 816 472 817 475 818 477 819 480 820 483 821 485 822 488 823 490 824 493 825 495 826 498 827 500 828 503 829 505 830 508 831 511 832 513 833 516 834 518 835 521 835 523 836 526 837 528 838 531 839 534 840 536 841 539 842 541 843 544 844 546 845 549 846 551 847 554 848 556 849 559 850 562 851 564 852 567 853 569 854 572 855 574 856 577 857 579 858 582 859 584 860 587 861 590 862 592 863 595 864 597 865 600 866 602 867 605 868 607 869 610 870 612 871 615 872 618 873 620 874 623 875 625 876 628 877 630 878 633 879 635 879 638 880 641 881 643 882 646 883 648 884 651" stroke="#000000" stroke-width="4" stroke-linecap="round" stroke-linejoin="round" stroke-miterlimit="10" fill="none"/></g><g><text font-family="Aptos,Aptos_MSFontService,sans-serif" font-weight="400" font-size="12" transform="translate(56.1801 664)">0</text></g><g><text font-family="Aptos,Aptos_MSFontService,sans-serif" font-weight="400" font-size="12" transform="translate(43.3534 562)">200</text></g><g><text font-family="Aptos,Aptos_MSFontService,sans-serif" font-weight="400" font-size="12" transform="translate(43.3534 460)">400</text></g><g><text font-family="Aptos,Aptos_MSFontService,sans-serif" font-weight="400" font-size="12" transform="translate(43.3534 358)">600</text></g><g><text font-family="Aptos,Aptos_MSFontService,sans-serif" font-weight="400" font-size="12" transform="translate(43.3534 256)">800</text></g><g><text font-family="Aptos,Aptos_MSFontService,sans-serif" font-weight="400" font-size="12" transform="translate(36.9401 154)">1000</text></g><g><text font-family="Aptos,Aptos_MSFontService,sans-serif" font-weight="400" font-size="12" transform="translate(36.9401 52)">1200</text></g><g><text font-family="Aptos,Aptos_MSFontService,sans-serif" font-weight="400" font-size="12" transform="translate(70.4656 679)">0</text></g><g><text font-family="Aptos,Aptos_MSFontService,sans-serif" font-weight="400" font-size="12" transform="translate(161.846 679)">100</text></g><g><text font-family="Aptos,Aptos_MSFontService,sans-serif" font-weight="400" font-size="12" transform="translate(259.639 679)">200</text></g><g><text font-family="Aptos,Aptos_MSFontService,sans-serif" font-weight="400" font-size="12" transform="translate(357.433 679)">300</text></g><g><text font-family="Aptos,Aptos_MSFontService,sans-serif" font-weight="400" font-size="12" transform="translate(455.227 679)">400</text></g><g><text font-family="Aptos,Aptos_MSFontService,sans-serif" font-weight="400" font-size="12" transform="translate(553.02 679)">500</text></g><g><text font-family="Aptos,Aptos_MSFontService,sans-serif" font-weight="400" font-size="12" transform="translate(650.814 679)">600</text></g><g><text font-family="Aptos,Aptos_MSFontService,sans-serif" font-weight="400" font-size="12" transform="translate(748.608 679)">700</text></g><g><text font-family="Aptos,Aptos_MSFontService,sans-serif" font-weight="400" font-size="12" transform="translate(846.401 679)">800</text></g><g><text font-family="Aptos,Aptos_MSFontService,sans-serif" font-weight="400" font-size="12" transform="translate(944.195 679)">900</text></g><g><text font-family="Aptos,Aptos_MSFontService,sans-serif" font-weight="400" font-size="13.3333" transform="matrix(6.12323e-17 -1 1 6.12323e-17 29.6667 402)">Temperature (C)</text></g><g><text font-family="Aptos,Aptos_MSFontService,sans-serif" font-weight="400" font-size="13.3333" transform="translate(483.543 700)">Time (min)</text></g><g><text font-family="Aptos,Aptos_MSFontService,sans-serif" font-weight="400" font-size="18.6667" transform="translate(354.297 28)">Tube Furnace Temperature Profile</text></g></g></svg>